<?xml version="1.0" encoding="utf-8"?>
<!-- Generator: Adobe Illustrator 16.0.0, SVG Export Plug-In . SVG Version: 6.00 Build 0)  -->
<!DOCTYPE svg PUBLIC "-//W3C//DTD SVG 1.1//EN" "http://www.w3.org/Graphics/SVG/1.1/DTD/svg11.dtd">
<svg version="1.1" id="Capa_1" xmlns="http://www.w3.org/2000/svg" xmlns:xlink="http://www.w3.org/1999/xlink" x="0px" y="0px"
	 width="913.835px" height="246.431px" viewBox="0 0 913.835 246.431" enable-background="new 0 0 913.835 246.431"
	 xml:space="preserve">
<polygon fill="#7FBA28" points="562.667,200.448 430.667,165.264 423.392,215.721 471.428,224.362 "/>
<polygon fill="#40B2E7" points="486.667,227.104 243.667,183.389 167.334,246.296 483.334,246.296 "/>
<polygon fill="#7FBA28" points="642.667,211.11 734.667,222.84 798.667,197.25 708.667,170.595 "/>
<polygon fill="#EC652A" points="753.667,221.773 562.667,200.448 537.167,246.296 749.667,246.296 "/>
<polygon fill="#1F72B5" points="837.667,176.992 797.667,235.634 772.667,246.296 670.667,246.296 "/>
<polygon fill="#009C3D" points="708.667,170.595 792.938,195.554 832.106,179.299 861.289,135.391 "/>
<polyline fill="#EC652A" points="897.667,81.032 861.667,135.409 787.218,152.476 867.667,84.23 "/>
<polyline fill="#1F72B5" points="0,246.431 167.667,246.296 243.667,183.389 0,246.431 "/>
<polygon fill="#009C3D" points="430.667,165.264 423.667,215.376 324.343,197.902 "/>
<polygon fill="#E3342A" points="562.667,200.448 537.667,246.296 387.746,246.296 "/>
<polyline fill="#40B2E7" points="901.667,74.635 877.667,190.853 794.667,235.634 901.667,74.635 "/>
<polyline fill="#009C3D" points="913.835,185.521 872.667,206.846 913.667,0 "/>
<polyline fill="#7FBA28" points="913.667,246.296 769.239,246.296 913.667,167.396 "/>
<polyline fill="none" points="16.189,225.742 248.538,225.742 248.538,156.945 16.189,156.945 "/>
</svg>
