<?xml version="1.0" encoding="utf-8"?>
<!-- Generator: Adobe Illustrator 16.0.0, SVG Export Plug-In . SVG Version: 6.00 Build 0)  -->
<!DOCTYPE svg PUBLIC "-//W3C//DTD SVG 1.1//EN" "http://www.w3.org/Graphics/SVG/1.1/DTD/svg11.dtd">
<svg version="1.1" id="Capa_1" xmlns="http://www.w3.org/2000/svg" xmlns:xlink="http://www.w3.org/1999/xlink" x="0px" y="0px"
	 width="143.955px" height="140.387px" viewBox="0 0 143.955 140.387" enable-background="new 0 0 143.955 140.387"
	 xml:space="preserve">
<path fill="#FFFFFF" d="M-0.858,140.387h144.813V13.273H-0.858V140.387z M4.428,17.913h134.242v117.833H4.428V17.913z"/>
<rect x="48.073" y="36.938" fill="#FFFFFF" width="81.848" height="4.639"/>
<rect x="15.697" y="4.26" fill="#FFFFFF" width="39.217" height="13.587"/>
<rect x="88.184" y="4.26" fill="#FFFFFF" width="39.217" height="13.587"/>
<path fill="#FFFFFF" d="M32.825,118.636c0,3.626-3.35,6.566-7.481,6.566c-4.13,0-7.48-2.94-7.48-6.566
	c0-3.625,3.35-6.566,7.48-6.566C29.475,112.069,32.825,115.011,32.825,118.636"/>
<path fill="#FFFFFF" d="M32.825,92.177c0,3.626-3.35,6.565-7.481,6.565c-4.13,0-7.48-2.939-7.48-6.565
	c0-3.627,3.35-6.566,7.48-6.566C29.475,85.611,32.825,88.55,32.825,92.177"/>
<polygon fill="#FFFFFF" points="17.349,48.149 11.276,43.312 14.828,39.875 17.349,41.885 35.86,27.143 39.412,30.579 "/>
<rect x="48.073" y="63.397" fill="#FFFFFF" width="81.848" height="4.64"/>
<polygon fill="#FFFFFF" points="17.349,74.608 11.276,69.77 14.828,66.334 17.349,68.342 35.86,53.602 39.412,57.038 "/>
<rect x="48.073" y="89.856" fill="#FFFFFF" width="81.848" height="4.64"/>
<rect x="48.073" y="116.314" fill="#FFFFFF" width="81.848" height="4.64"/>
</svg>
