<?xml version="1.0" encoding="utf-8"?>
<!-- Generator: Adobe Illustrator 16.0.0, SVG Export Plug-In . SVG Version: 6.00 Build 0)  -->
<!DOCTYPE svg PUBLIC "-//W3C//DTD SVG 1.1//EN" "http://www.w3.org/Graphics/SVG/1.1/DTD/svg11.dtd">
<svg version="1.1" id="Capa_1" xmlns="http://www.w3.org/2000/svg" xmlns:xlink="http://www.w3.org/1999/xlink" x="0px" y="0px"
	 width="143.955px" height="140.387px" viewBox="0 0 143.955 140.387" enable-background="new 0 0 143.955 140.387"
	 xml:space="preserve">
<path fill="#FFFFFF" d="M146.078,73.042c0,37.923-32.552,68.668-72.706,68.668c-40.155,0-72.706-30.745-72.706-68.668
	c0-37.924,32.551-68.668,72.706-68.668C113.526,4.374,146.078,35.118,146.078,73.042"/>
<path fill="#FFFFFF" d="M136.446,73.042c0,32.901-28.239,59.572-63.074,59.572c-34.836,0-63.076-26.671-63.076-59.572
	c0-32.903,28.24-59.575,63.076-59.575C108.207,13.468,136.446,40.14,136.446,73.042"/>
<path fill="#1E71B8" d="M77.017,105.818c-1.65,2.704-5.784,2.704-7.438,0L56.01,83.619l-13.571-22.2
	c-1.653-2.705,0.414-6.085,3.721-6.085h27.137h27.142c3.306,0,5.375,3.38,3.72,6.085l-13.57,22.2L77.017,105.818z"/>
</svg>
