<?xml version="1.0" encoding="utf-8"?>
<!-- Generator: Adobe Illustrator 16.0.0, SVG Export Plug-In . SVG Version: 6.00 Build 0)  -->
<!DOCTYPE svg PUBLIC "-//W3C//DTD SVG 1.1//EN" "http://www.w3.org/Graphics/SVG/1.1/DTD/svg11.dtd">
<svg version="1.1" id="Capa_1" xmlns="http://www.w3.org/2000/svg" xmlns:xlink="http://www.w3.org/1999/xlink" x="0px" y="0px"
	 width="152.139px" height="147.854px" viewBox="0 0 152.139 147.854" enable-background="new 0 0 152.139 147.854"
	 xml:space="preserve">
<path fill="#40B2E7" d="M58.465,147.204h-8.628c-6.373,0-11.556-4.893-11.556-10.907V79.226c0-6.014,5.184-10.906,11.556-10.906
	h8.628c6.372,0,11.554,4.892,11.554,10.906v57.071C70.019,142.312,64.837,147.204,58.465,147.204 M49.837,73.743
	c-2.741,0-5.057,2.51-5.057,5.483v57.071c0,2.972,2.316,5.484,5.057,5.484h8.628c2.739,0,5.056-2.513,5.056-5.484V79.226
	c0-3.024-2.269-5.483-5.056-5.483H49.837z"/>
<path fill="#40B2E7" d="M20.609,147.205H13.24c-6.718,0-12.184-5.171-12.184-11.527V99.145c0-6.356,5.466-11.527,12.184-11.527
	h7.369c6.718,0,12.183,5.171,12.183,11.527v36.533C32.792,142.034,27.328,147.205,20.609,147.205 M13.24,93.041
	c-3.135,0-5.686,2.739-5.686,6.104v36.533c0,3.366,2.551,6.104,5.686,6.104h7.369c3.134,0,5.685-2.737,5.685-6.104V99.145
	c0-3.364-2.551-6.104-5.685-6.104H13.24z"/>
<path fill="#40B2E7" d="M95.059,147.204H86.43c-6.37,0-11.552-4.893-11.552-10.907V57.436c0-6.014,5.182-10.906,11.552-10.906h8.629
	c6.373,0,11.556,4.893,11.556,10.906v78.861C106.615,142.312,101.432,147.204,95.059,147.204 M86.43,51.953
	c-2.737,0-5.054,2.512-5.054,5.483v78.861c0,2.972,2.316,5.484,5.054,5.484h8.629c2.742,0,5.058-2.513,5.058-5.484V57.436
	c0-2.971-2.315-5.483-5.058-5.483H86.43z"/>
<path fill="#40B2E7" d="M132.575,147.204h-7.717c-5.962,0-10.633-4.688-10.633-10.672V36.787l-0.637-0.003
	c-3.679,0-6.741-1.754-7.979-4.574c-1.043-2.367-0.649-5.136,1.073-7.594l14.385-20.491C122.905,1.504,125.691,0,128.716,0
	c3.018,0,5.805,1.504,7.647,4.125l14.378,20.492c1.723,2.453,2.11,5.222,1.063,7.599c-1.239,2.817-4.309,4.568-8.01,4.568
	l-0.649-0.009v99.757C143.145,142.516,138.502,147.204,132.575,147.204 M128.716,5.423c-0.625,0-1.426,0.566-2.039,1.44
	l-14.384,20.492c-0.732,1.04-0.948,2.157-0.585,2.986c0.3,0.678,0.935,1.021,1.892,1.021l7.123,0.022v105.148
	c0,2.895,1.856,5.249,4.135,5.249h7.717c2.245,0,4.072-2.354,4.072-5.249V31.255l7.207,0.106c0.912,0,1.554-0.342,1.85-1.018
	c0.374-0.851,0.168-1.936-0.567-2.984l-0.002-0.001L130.755,6.867C130.141,5.989,129.338,5.423,128.716,5.423"/>
</svg>
