<?xml version="1.0" encoding="utf-8"?>
<!-- Generator: Adobe Illustrator 16.0.0, SVG Export Plug-In . SVG Version: 6.00 Build 0)  -->
<!DOCTYPE svg PUBLIC "-//W3C//DTD SVG 1.1//EN" "http://www.w3.org/Graphics/SVG/1.1/DTD/svg11.dtd">
<svg version="1.1" id="Capa_1" xmlns="http://www.w3.org/2000/svg" xmlns:xlink="http://www.w3.org/1999/xlink" x="0px" y="0px"
	 width="88.374px" height="128.214px" viewBox="0 0 88.374 128.214" enable-background="new 0 0 88.374 128.214"
	 xml:space="preserve">
<path fill="#FFFFFF" d="M44.186,13.454c-16.945,0-30.731,13.786-30.731,30.732c0,10.227,5.022,19.302,12.729,24.892
	c2.424,1.758,5.112,3.171,7.994,4.166c3.139,1.084,6.506,1.675,10.008,1.675c3.503,0,6.87-0.591,10.009-1.675
	c2.882-0.995,5.57-2.408,7.994-4.166c7.707-5.59,12.729-14.665,12.729-24.892C74.918,27.24,61.132,13.454,44.186,13.454
	 M54.937,69.078c-3.298,1.43-6.934,2.225-10.751,2.225s-7.452-0.795-10.75-2.225c-9.619-4.171-16.365-13.758-16.365-24.892
	c0-14.952,12.164-27.116,27.115-27.116c14.952,0,27.115,12.164,27.115,27.116C71.301,55.32,64.556,64.907,54.937,69.078"/>
<path fill="#FFFFFF" d="M44.187,0C19.822,0,0,19.822,0,44.186C0,61.884,10.459,77.182,25.52,84.23v43.984l18.667-18.701
	l18.666,18.701V84.23c15.062-7.049,25.521-22.346,25.521-40.044C88.374,19.822,68.551,0,44.187,0 M58.686,118.143l-14.499-14.526
	l-14.5,14.526V85.928c4.544,1.582,9.423,2.445,14.5,2.445c5.076,0,9.955-0.863,14.499-2.445V118.143z M62.853,79.577
	c-1.346,0.713-2.736,1.353-4.167,1.91c-4.498,1.755-9.388,2.72-14.499,2.72c-5.112,0-10.002-0.965-14.5-2.72
	c-1.431-0.558-2.821-1.197-4.167-1.91C12.832,72.858,4.166,59.516,4.166,44.186c0-22.067,17.954-40.02,40.021-40.02
	c22.065,0,40.021,17.953,40.021,40.02C84.208,59.516,75.542,72.858,62.853,79.577"/>
</svg>
