<?xml version="1.0" encoding="utf-8"?>
<!-- Generator: Adobe Illustrator 16.0.0, SVG Export Plug-In . SVG Version: 6.00 Build 0)  -->
<!DOCTYPE svg PUBLIC "-//W3C//DTD SVG 1.1//EN" "http://www.w3.org/Graphics/SVG/1.1/DTD/svg11.dtd">
<svg version="1.1" id="Capa_1" xmlns="http://www.w3.org/2000/svg" xmlns:xlink="http://www.w3.org/1999/xlink" x="0px" y="0px"
	 width="143.955px" height="140.387px" viewBox="0 0 143.955 140.387" enable-background="new 0 0 143.955 140.387"
	 xml:space="preserve">
<rect x="-0.256" y="10.987" transform="matrix(0.7071 -0.7071 0.7071 0.7071 -7.5876 18.3181)" fill="#FFFFFF" width="37.149" height="14.663"/>
<rect x="107.061" y="10.986" transform="matrix(-0.7071 -0.7071 0.7071 -0.7071 201.5217 120.1082)" fill="#FFFFFF" width="37.149" height="14.663"/>
<path fill="#FFFFFF" d="M71.959,140.387c-38.704,0-70.192-31.488-70.192-70.193C1.768,31.488,33.255,0,71.959,0
	c38.705,0,70.194,31.488,70.194,70.194C142.154,108.898,110.665,140.387,71.959,140.387 M71.959,5.007
	c-35.943,0-65.187,29.242-65.187,65.187c0,35.943,29.244,65.186,65.187,65.186c35.944,0,65.188-29.243,65.188-65.186
	C137.148,34.249,107.904,5.007,71.959,5.007"/>
<rect x="69.456" y="16.712" fill="#FFFFFF" width="5.007" height="53.481"/>
<rect x="69.457" y="67.689" fill="#FFFFFF" width="53.488" height="5.007"/>
<rect x="13.949" y="116.773" transform="matrix(0.7069 0.7073 -0.7073 0.7069 95.0038 25.7321)" fill="#FFFFFF" width="5.006" height="21.456"/>
<rect x="116.773" y="124.997" transform="matrix(0.7071 0.7071 -0.7071 0.7071 127.5011 -52.813)" fill="#FFFFFF" width="21.456" height="5.008"/>
</svg>
