<?xml version="1.0" encoding="utf-8"?>
<!-- Generator: Adobe Illustrator 16.0.0, SVG Export Plug-In . SVG Version: 6.00 Build 0)  -->
<!DOCTYPE svg PUBLIC "-//W3C//DTD SVG 1.1//EN" "http://www.w3.org/Graphics/SVG/1.1/DTD/svg11.dtd">
<svg version="1.1" id="Capa_1" xmlns="http://www.w3.org/2000/svg" xmlns:xlink="http://www.w3.org/1999/xlink" x="0px" y="0px"
	 width="669.817px" height="119px" viewBox="0 0 669.817 119" enable-background="new 0 0 669.817 119" xml:space="preserve">
<polyline fill="none" stroke="#EC652A" stroke-width="0.25" stroke-miterlimit="10" points="48.69,33.305 156.014,78.805 
	260.803,65.805 363.9,87.805 461.93,63.805 575.169,79.805 668.127,51.805 "/>
<path fill="#43B0E5" d="M160,52c0,1.104-0.896,2-2,2s-2-0.896-2-2s0.896-2,2-2S160,50.896,160,52"/>
<path fill="#43B0E5" d="M366,62c0,1.104-0.896,2-2,2s-2-0.896-2-2c0-1.104,0.896-2,2-2S366,60.896,366,62"/>
<path fill="#43B0E5" d="M466,2c0,1.104-0.896,2-2,2s-2-0.896-2-2s0.896-2,2-2S466,0.896,466,2"/>
<path fill="#43B0E5" d="M570.573,32.764c0.682,0.869,0.53,2.126-0.338,2.809c-0.868,0.682-2.126,0.531-2.809-0.337
	c-0.682-0.869-0.531-2.126,0.337-2.809C568.633,31.746,569.89,31.896,570.573,32.764"/>
<path fill="#7EBA28" d="M361,107c0-1.104,0.896-2,2-2s2,0.896,2,2"/>
<path fill="#7EBA28" d="M466,27c0,1.104-0.896,2-2,2s-2-0.896-2-2s0.896-2,2-2S466,25.896,466,27"/>
<path fill="#7EBA28" d="M571,15c0,1.104-0.896,2-2,2s-2-0.896-2-2s0.896-2,2-2S571,13.896,571,15"/>
<path fill="#7EBA28" d="M626,65c0,1.104-0.896,2-2,2s-2-0.896-2-2c0-1.104,0.896-2,2-2S626,63.896,626,65"/>
<path fill="#EC652A" d="M464,64c0,1.104-0.896,2-2,2s-2-0.896-2-2c0-1.104,0.896-2,2-2S464,62.896,464,64"/>
<path fill="#EC652A" d="M577,80c0,1.104-0.896,2-2,2s-2-0.896-2-2c0-1.104,0.896-2,2-2S577,78.896,577,80"/>
<path fill="#EC652A" d="M669,54c-1.104,0-2-0.896-2-2s0.896-2,2-2"/>
<path fill="#EC652A" d="M157.94,78.515c0.268,1.071-0.384,2.157-1.456,2.425c-1.071,0.269-2.157-0.383-2.425-1.455
	c-0.267-1.071,0.384-2.156,1.456-2.426C156.586,76.792,157.672,77.444,157.94,78.515"/>
<path fill="#EC652A" d="M262.94,65.515c0.268,1.071-0.384,2.157-1.456,2.425c-1.071,0.269-2.157-0.383-2.425-1.455
	c-0.267-1.071,0.384-2.156,1.456-2.426C261.586,63.792,262.672,64.444,262.94,65.515"/>
<path fill="#EC652A" d="M365.94,87.515c0.268,1.071-0.384,2.157-1.456,2.425c-1.071,0.269-2.157-0.383-2.425-1.455
	c-0.268-1.071,0.384-2.156,1.456-2.426C364.586,85.792,365.673,86.444,365.94,87.515"/>
<path fill="#7EBA28" d="M159,99c0,1.104-0.896,2-2,2s-2-0.896-2-2c0-1.104,0.896-2,2-2S159,97.896,159,99"/>
<path fill="#7EBA28" d="M262,89c0,1.104-0.896,2-2,2s-2-0.896-2-2c0-1.104,0.896-2,2-2S262,87.896,262,89"/>
<polyline fill="none" stroke="#43B0E5" stroke-width="0.25" stroke-miterlimit="10" points="304,119 363.901,61.805 463.619,1.805 
	568.408,33.805 669.817,33.805 "/>
<polyline fill="none" stroke="#43B0E5" stroke-width="0.25" stroke-miterlimit="10" points="0,93 157.704,51.805 304,119 "/>
<polyline fill="none" stroke="#7EBA28" stroke-width="0.25" stroke-miterlimit="10" points="363.056,107.305 464.465,27.305 
	569.253,14.305 668.972,107.305 "/>
<polyline fill="none" stroke="#7EBA28" stroke-width="0.25" stroke-miterlimit="10" points="41.93,46.305 156.859,99.305 
	259.958,88.305 363.056,107.305 "/>
</svg>
