<?xml version="1.0" encoding="utf-8"?>
<!-- Generator: Adobe Illustrator 16.0.0, SVG Export Plug-In . SVG Version: 6.00 Build 0)  -->
<!DOCTYPE svg PUBLIC "-//W3C//DTD SVG 1.1//EN" "http://www.w3.org/Graphics/SVG/1.1/DTD/svg11.dtd">
<svg version="1.1" id="Capa_1" xmlns="http://www.w3.org/2000/svg" xmlns:xlink="http://www.w3.org/1999/xlink" x="0px" y="0px"
	 width="300px" height="300px" viewBox="0 0 300 300" enable-background="new 0 0 300 300" xml:space="preserve">
<path fill="none" d="M-253,1128"/>
<path fill="none" d="M-253,1128"/>
<path fill="none" d="M-253,1128"/>
<path fill="none" d="M-253,1128"/>
<path fill="none" d="M-253,1128"/>
<path fill="none" d="M-253,1128"/>
<path fill="none" d="M-253,1128"/>
<path fill="none" d="M-253,1128"/>
<path fill="none" d="M-253,1128"/>
<path fill="none" d="M-253,1128"/>
<path fill="none" d="M-253,1128"/>
<path fill="none" d="M-253,1128"/>
<path fill="none" d="M-253,1128"/>
<path fill="none" d="M-253,1128"/>
<path fill="none" d="M-253,1128"/>
<path fill="none" d="M-253,1128"/>
<path fill="none" d="M-253,1128"/>
<path fill="none" d="M-253,1128"/>
<path fill="none" d="M-253,1128"/>
<path fill="none" d="M-253,1128"/>
<path fill="none" d="M-253,1128"/>
<path fill="none" d="M-253,1128"/>
<path fill="none" d="M-253,1128"/>
<path fill="none" d="M-253,1128"/>
<path fill="none" d="M-253,1149"/>
<path fill="none" d="M-253,1149"/>
<path fill="none" d="M-253,1149"/>
<path fill="none" d="M-253,1149"/>
<path fill="none" d="M-253,1149"/>
<path fill="none" d="M-253,1149"/>
<path fill="none" d="M-253,1149"/>
<path fill="none" d="M-253,1149"/>
<path fill="#EBEBEB" d="M192.461,144.11l-84.867,31.763l-1.355-3.416c-6.035-15.697-3.383-33.351,6.92-46.07l1.481-1.828
	l2.206,0.859c6.5,2.532,13.594,2.611,19.976,0.223s11.638-7.09,14.801-13.238l1.072-2.087l2.338,0.398
	c16.26,2.777,30.109,14.254,36.146,29.951L192.461,144.11z M111.364,167.686l72.771-27.238c-5.35-11.643-15.76-20.222-27.98-23.044
	c-3.955,6.514-9.933,11.496-17.054,14.161c-7.122,2.666-14.946,2.85-22.284,0.563C109.566,142.237,107.543,155.471,111.364,167.686"
	/>
<path fill="#EBEBEB" d="M134.808,120.405c-6.096,2.28-12.711,1.875-18.628-1.142c-5.354-2.73-9.503-7.353-11.679-13.014
	c-4.726-12.291,1.182-25.939,13.169-30.427c11.986-4.486,25.582,1.863,30.308,14.155c2.176,5.66,2.178,11.833,0.005,17.381
	C145.583,113.49,140.904,118.123,134.808,120.405 M119.948,81.748c-8.675,3.247-12.911,13.23-9.441,22.255
	c1.613,4.198,4.676,7.618,8.623,9.632c4.274,2.18,9.034,2.48,13.401,0.845c4.367-1.634,7.728-4.974,9.462-9.402
	c1.602-4.09,1.595-8.654-0.02-12.852C138.503,83.201,128.624,78.5,119.948,81.748"/>
<path fill="#EBEBEB" d="M193.887,274.08c-3.533,1.322-7.363,1.09-10.783-0.656c-3.078-1.568-5.461-4.219-6.707-7.467
	c-2.719-7.07,0.705-14.932,7.631-17.523c6.926-2.594,14.771,1.051,17.49,8.121c1.248,3.246,1.248,6.789,0,9.979
	C200.129,270.078,197.42,272.756,193.887,274.08 M186.305,254.357c-3.615,1.354-5.365,5.549-3.904,9.354
	c0.686,1.783,1.982,3.232,3.65,4.084c1.779,0.908,3.754,1.035,5.559,0.359c1.805-0.674,3.195-2.063,3.918-3.904
	c0.676-1.729,0.672-3.664-0.014-5.447C194.051,254.998,189.92,253.004,186.305,254.357"/>
<path fill="#EBEBEB" d="M167.117,204.449c-42.405,15.871-90.551-6.717-107.327-50.352c-16.775-43.636,4.077-92.048,46.483-107.919
	c42.405-15.872,90.552,6.715,107.328,50.351C230.375,140.165,209.523,188.576,167.117,204.449 M109.69,55.065
	c-37.439,14.013-55.784,56.926-40.893,95.661c14.891,38.735,57.464,58.848,94.904,44.836c37.439-14.014,55.783-56.927,40.893-95.662
	C189.703,61.166,147.129,41.052,109.69,55.065"/>
<polygon fill="#EBEBEB" points="184.652,243.359 180.148,245.045 166.979,210.783 171.48,209.098 "/>
<path fill="#EBEBEB" d="M80.663,270.686c-3.322,1.244-6.877,1.152-10.093-0.275l0,0c-3.445-1.529-5.987-4.365-7.156-7.986
	c-1.051-3.256-0.835-6.793,0.608-9.959c1.511-3.314,4.194-5.877,7.557-7.221c3.402-1.363,7.105-1.309,10.398,0.154
	c3.293,1.461,5.783,4.152,7.013,7.576c1.21,3.373,1.045,7.057-0.466,10.369c-1.443,3.166-3.982,5.67-7.15,7.053
	C81.138,270.5,80.901,270.598,80.663,270.686 M73.205,264.631c1.761,0.781,3.732,0.771,5.569-0.027
	c1.718-0.75,3.101-2.121,3.894-3.859c0.829-1.818,0.924-3.826,0.269-5.654c-0.639-1.779-1.915-3.17-3.594-3.914
	c-1.681-0.746-3.586-0.758-5.353-0.059c-1.822,0.729-3.282,2.131-4.111,3.947c-0.793,1.74-0.916,3.67-0.346,5.436
	C70.14,262.383,71.445,263.852,73.205,264.631L73.205,264.631z"/>
<polygon fill="#EBEBEB" points="86.054,242.244 81.663,240.295 96.902,206.879 101.294,208.828 "/>
<polyline fill="#EBEBEB" points="15.426,168.223 50.15,155.225 51.858,159.67 17.134,172.666 "/>
<path fill="#EBEBEB" d="M279.201,86.215c-7.166,2.682-15.135-0.696-17.762-7.53s1.066-14.575,8.232-17.258
	c3.291-1.23,6.881-1.23,10.111,0.001c3.592,1.369,6.309,4.043,7.648,7.529c1.34,3.485,1.105,7.265-0.664,10.641
	C285.178,82.633,282.49,84.984,279.201,86.215 M271.949,67.352c-3.855,1.442-5.875,5.52-4.504,9.085
	c1.369,3.568,5.623,5.296,9.479,3.854c1.807-0.677,3.277-1.956,4.141-3.603c0.918-1.755,1.047-3.702,0.363-5.483
	c-0.686-1.781-2.09-3.153-3.959-3.865C275.717,66.67,273.758,66.676,271.949,67.352"/>
<polygon fill="#EBEBEB" points="258.008,82.511 223.283,95.507 221.574,91.064 256.299,78.068 "/>
<path fill="#EBEBEB" d="M276.346,197.447c-0.238,0.088-0.48,0.172-0.727,0.248c-3.299,1.037-6.885,0.824-10.094-0.6
	c-3.357-1.492-5.955-4.139-7.318-7.457c-1.381-3.367-1.326-7.01,0.156-10.26s4.209-5.719,7.678-6.918
	c3.422-1.195,7.154-1.033,10.51,0.457c3.209,1.426,5.748,3.932,7.15,7.057c1.559,3.475,1.563,7.262,0.012,10.66v0.002
	C282.266,193.807,279.666,196.203,276.346,197.447 M268.031,178.488c-1.729,0.648-3.078,1.883-3.811,3.49
	c-0.758,1.656-0.779,3.533-0.061,5.281c0.738,1.799,2.16,3.24,4,4.057c1.764,0.783,3.721,0.904,5.51,0.342
	c1.908-0.605,3.395-1.887,4.188-3.623c0.791-1.738,0.781-3.688-0.029-5.496c-0.76-1.693-2.148-3.059-3.912-3.842
	c-1.842-0.818-3.877-0.912-5.73-0.264C268.135,178.451,268.082,178.471,268.031,178.488"/>
<polygon fill="#EBEBEB" points="253.193,179.689 219.326,164.652 221.303,160.318 255.17,175.355 "/>
<line fill="none" x1="-46.802" y1="422.066" x2="427.197" y2="422.066"/>
<text transform="matrix(1.0135 0 0 1 152.3672 79.0981)" fill="#434343" font-family="'Roboto-Light'" font-size="13.2302"> </text>
<path fill="#EBEBEB" d="M3.698,191.691c-3.322,1.244-6.876,1.152-10.092-0.275l0,0c-3.445-1.529-5.987-4.365-7.156-7.986
	c-1.051-3.256-0.835-6.793,0.608-9.959c1.511-3.314,4.194-5.877,7.557-7.221c3.402-1.363,7.105-1.309,10.398,0.154
	c3.293,1.461,5.783,4.152,7.014,7.576c1.209,3.373,1.045,7.057-0.467,10.369c-1.443,3.166-3.982,5.67-7.15,7.053
	C4.174,191.506,3.936,191.604,3.698,191.691 M-3.76,185.637c1.761,0.781,3.732,0.771,5.569-0.027
	c1.719-0.75,3.102-2.121,3.895-3.859c0.828-1.818,0.924-3.826,0.268-5.654c-0.639-1.779-1.914-3.17-3.594-3.914
	c-1.68-0.746-3.585-0.758-5.352-0.059c-1.822,0.729-3.282,2.131-4.111,3.947c-0.793,1.74-0.916,3.67-0.346,5.436
	C-6.824,183.389-5.52,184.857-3.76,185.637L-3.76,185.637z"/>
</svg>
