<?xml version="1.0" encoding="utf-8"?>
<!-- Generator: Adobe Illustrator 16.0.0, SVG Export Plug-In . SVG Version: 6.00 Build 0)  -->
<!DOCTYPE svg PUBLIC "-//W3C//DTD SVG 1.1//EN" "http://www.w3.org/Graphics/SVG/1.1/DTD/svg11.dtd">
<svg version="1.1" id="Capa_1" xmlns="http://www.w3.org/2000/svg" xmlns:xlink="http://www.w3.org/1999/xlink" x="0px" y="0px"
	 width="529.932px" height="100px" viewBox="0 0 529.932 100" enable-background="new 0 0 529.932 100" xml:space="preserve">
<path fill="#93BC21" d="M86.708,61.733c0.18-2.315-0.624-4.625-2.204-6.338L84.5,55.389c-1.589-1.711-3.834-2.691-6.157-2.691
	l-19.868,0.01l23.289,27.121C84.521,74.57,86.18,68.52,86.708,61.733"/>
<path fill="#93BC21" d="M44.844,27.441c7.901,0,15.321,3.063,22.049,9.104c3.285,2.953,8.325,2.813,11.471-0.322
	c1.661-1.66,2.528-3.868,2.441-6.214c-0.078-2.339-1.142-4.561-2.917-6.093c-9.905-8.581-21.106-12.932-33.296-12.932
	c-6.748,0-13.007,1.29-18.685,3.797l11.687,13.61C39.949,27.759,42.371,27.441,44.844,27.441"/>
<path fill="#43A335" d="M5.788,33.145C1.949,40.01,0,47.555,0,55.568c0,10.748,3.402,20.354,10.109,28.555
	c8.745,10.672,20.715,16.084,35.581,16.084c12.46,0,22.551-3.987,29.991-11.854c2.415-2.552,4.442-5.4,6.082-8.525L58.475,52.707
	l-1.839,0.002c-0.389-0.029-3.845-0.217-6.51,2.291c-1.168,1.099-2.56,3.086-2.568,6.33c-0.009,2.037,0.785,4.01,2.186,5.42
	c1.023,1.027,2.85,2.25,5.741,2.25h13.254c-1.336,3.859-3.647,7.123-6.878,9.705c-4.39,3.522-9.765,5.309-15.974,5.309
	c-5.405,0-10.432-1.311-14.962-3.898c-4.773-2.699-8.548-6.604-11.221-11.613c-1.549-2.885-2.543-5.975-2.967-9.186
	c-0.823-6.271,0.34-12.245,3.454-17.757c2.435-4.318,5.979-7.79,10.546-10.333c2.209-1.257,4.499-2.203,6.856-2.835l-11.687-13.61
	c-1.413,0.623-2.8,1.302-4.138,2.079C15.026,20.765,9.651,26.245,5.788,33.145"/>
<path fill="#595957" d="M213.65,24.974h-10.836V8.657c0-4.555-3.67-8.281-8.155-8.281h-0.441c-4.485,0-8.155,3.727-8.155,8.281
	v16.317h-0.035c0.014,0.232,0.035,0.463,0.035,0.698v16.31V54.77v37.323c0,4.554,3.67,8.28,8.155,8.28h0.441
	c4.485,0,8.155-3.727,8.155-8.28V41.982h10.836c4.486,0,8.156-3.726,8.156-8.28v-0.447C221.806,28.701,218.136,24.974,213.65,24.974
	"/>
<path fill="#E4671C" d="M321.643,61.785c0.181-2.314-0.626-4.626-2.209-6.34v-0.002c-1.587-1.713-3.827-2.693-6.156-2.693
	l-21.693,0.014c-0.05-0.004-0.16-0.01-0.309-0.014l24.563,28.604C319.095,75.758,321.064,69.225,321.643,61.785"/>
<path fill="#E4671C" d="M279.778,27.492c7.902,0,15.322,3.064,22.05,9.105c3.279,2.946,8.315,2.81,11.465-0.32
	c1.659-1.656,2.528-3.863,2.447-6.217c-0.078-2.34-1.143-4.561-2.914-6.092c-9.905-8.581-21.11-12.933-33.303-12.933
	c-7.356,0-14.141,1.509-20.216,4.486l11.534,13.433C273.723,27.985,276.712,27.492,279.778,27.492"/>
<path fill="#DF332A" d="M240.723,33.196c-3.839,6.867-5.788,14.412-5.788,22.425c0,10.746,3.402,20.354,10.109,28.554
	c8.742,10.673,20.712,16.085,35.579,16.085c12.46,0,22.548-3.988,29.99-11.854c2.024-2.139,3.745-4.508,5.227-7.053L291.275,52.75
	c-0.979-0.021-3.883,0.111-6.214,2.303c-1.168,1.098-2.56,3.084-2.568,6.33c-0.009,2.039,0.785,4.016,2.181,5.414
	c1.023,1.027,2.847,2.256,5.747,2.256h13.254c-1.336,3.859-3.647,7.122-6.881,9.707c-4.388,3.52-9.764,5.305-15.972,5.305
	c-5.404,0-10.435-1.309-14.965-3.898c-4.773-2.697-8.548-6.605-11.221-11.611c-1.546-2.885-2.543-5.977-2.967-9.186
	c-0.821-6.275,0.34-12.25,3.451-17.756c2.441-4.319,5.982-7.792,10.549-10.335c1.679-0.955,3.405-1.728,5.173-2.323l-11.535-13.432
	c-0.883,0.433-1.751,0.895-2.604,1.39C249.961,20.817,244.585,26.295,240.723,33.196"/>
<path fill="#93BC21" d="M86.64,61.834c0.18-2.314-0.626-4.627-2.209-6.34v-0.002c-1.587-1.713-3.828-2.693-6.157-2.693
	c0,0-21.853-0.102-22.002-0.104l24.563,28.707C84.092,75.807,86.06,69.273,86.64,61.834"/>
<path fill="#93BC21" d="M44.775,27.541c7.902,0,15.322,3.063,22.049,9.105c3.28,2.946,8.316,2.81,11.465-0.32
	c1.659-1.656,2.528-3.863,2.447-6.217c-0.078-2.34-1.142-4.561-2.914-6.092c-9.905-8.582-21.109-12.933-33.302-12.933
	c-7.357,0-14.142,1.509-20.216,4.486l11.534,13.433C38.72,28.033,41.709,27.541,44.775,27.541"/>
<path fill="#43A335" d="M5.72,33.245C1.881,40.111-0.068,47.656-0.068,55.67c0,10.746,3.402,20.354,10.109,28.554
	c8.742,10.673,20.712,16.085,35.578,16.085c12.46,0,22.548-3.988,29.991-11.854c2.024-2.139,3.745-4.508,5.226-7.053L56.271,52.799
	c-0.98-0.021-3.883,0.111-6.214,2.303c-1.168,1.098-2.56,3.084-2.568,6.329c-0.009,2.04,0.785,4.017,2.18,5.415
	c1.024,1.027,2.847,2.254,5.747,2.254h13.254c-1.337,3.861-3.647,7.124-6.881,9.709c-4.387,3.518-9.763,5.305-15.971,5.305
	c-5.405,0-10.435-1.309-14.965-3.898c-4.773-2.699-8.548-6.605-11.221-11.611c-1.546-2.886-2.543-5.977-2.967-9.186
	c-0.821-6.275,0.34-12.25,3.451-17.756c2.441-4.32,5.982-7.792,10.549-10.335c1.679-0.955,3.406-1.728,5.173-2.323L24.304,15.571
	c-0.883,0.434-1.751,0.896-2.604,1.391C14.958,20.865,9.582,26.344,5.72,33.245"/>
<path fill="#6EAFDE" d="M486.956,33.207c0-4.514-3.768-8.188-8.396-8.188c-4.625,0-8.39,3.674-8.39,8.188v8.535l16.786,19.277
	V33.207z"/>
<path fill="#1C72B2" d="M478.561,100.259c4.628,0,8.395-3.672,8.395-8.187V60.936l-16.786-19.46v50.597
	C470.169,96.587,473.935,100.259,478.561,100.259"/>
<path fill="#6EAFDE" d="M478.562,0.375c-2.403,0-4.565,1.016-6.096,2.636c-1.42,1.503-2.297,3.526-2.297,5.757
	c0,4.635,3.758,8.393,8.393,8.393c1.774,0,3.417-0.554,4.772-1.494c2.187-1.514,3.621-4.038,3.621-6.899
	C486.956,4.133,483.198,0.375,478.562,0.375"/>
<path fill="#595957" d="M449.003,24.944h-10.836V8.646c0-4.549-3.67-8.27-8.155-8.27h-0.44c-4.485,0-8.155,3.721-8.155,8.27v16.298
	h-0.035c0.014,0.232,0.035,0.462,0.035,0.697v16.29v12.772V91.98c0,4.549,3.67,8.271,8.155,8.271h0.44
	c4.485,0,8.155-3.722,8.155-8.271V41.931h10.836c4.485,0,8.155-3.722,8.155-8.271v-0.447
	C457.159,28.666,453.489,24.944,449.003,24.944"/>
<path fill="#595957" d="M521.777,25.044h-10.836V8.767c0-4.544-3.67-8.261-8.155-8.261h-0.44c-4.485,0-8.155,3.717-8.155,8.261
	v16.277h-0.035c0.014,0.232,0.035,0.461,0.035,0.697v16.27v12.757v37.231c0,4.543,3.67,8.261,8.155,8.261h0.44
	c4.485,0,8.155-3.718,8.155-8.261V42.01h10.836c4.485,0,8.155-3.716,8.155-8.26v-0.446
	C529.932,28.761,526.262,25.044,521.777,25.044"/>
<path fill="#595957" d="M170.04,27.608c-8.402-10.936-19.778-16.479-33.813-16.479c-13.664,0-24.733,5.423-32.896,16.118
	c-6.392,8.35-9.633,17.995-9.633,28.667c0,12.636,4.118,23.297,12.241,31.689c8.127,8.398,18.508,12.66,30.856,12.66
	c6.013,0,11.502-0.975,16.312-2.889c8.323-3.281,15.199-9.189,20.432-17.559c1.167-1.865,1.519-4.168,0.962-6.316
	c-0.554-2.141-1.965-3.957-3.871-4.983c-3.485-1.87-7.778-0.747-9.987,2.608c-2.01,3.043-3.898,5.361-5.625,6.898
	c-5.228,4.68-11.454,6.955-19.038,6.955c-7.741,0-13.917-2.721-18.873-8.314c-3.662-4.156-5.73-9.248-6.895-14.998
	c-0.6-2.961,0.883-4.252,2.379-4.252h58.76c2.184,0,4.707-0.748,6.108-2.559c1.707-2.203,1.306-4.727,1.073-6.966
	C177.601,38.998,174.958,34.008,170.04,27.608 M158.58,41.83h-43.752c-0.97,0-2.035-1.824-1.2-3.737
	c2.66-6.091,8.509-13.587,23.103-13.368c13.009,0.196,19.184,6.568,22.954,13.421C160.924,40.398,159.546,41.83,158.58,41.83"/>
<path fill="#595957" d="M405.52,27.679c-8.402-10.934-19.778-16.478-33.813-16.478c-13.664,0-24.733,5.423-32.896,16.117
	c-6.392,8.35-9.633,17.996-9.633,28.668c0,12.637,4.118,23.297,12.242,31.689c8.126,8.4,18.507,12.66,30.855,12.66
	c6.013,0,11.502-0.973,16.312-2.889c8.323-3.281,15.199-9.189,20.433-17.559c1.167-1.865,1.519-4.168,0.962-6.314
	c-0.554-2.143-1.965-3.959-3.871-4.984c-3.485-1.871-7.778-0.748-9.987,2.607c-2.01,3.043-3.898,5.362-5.625,6.898
	c-5.228,4.681-11.454,6.955-19.038,6.955c-7.741,0-13.917-2.721-18.873-8.314c-3.662-4.156-5.729-9.248-6.896-14.998
	c-0.599-2.959,0.883-4.252,2.379-4.252h58.761c2.185,0,4.707-0.748,6.108-2.559c1.707-2.205,1.306-4.726,1.072-6.965
	C413.081,39.071,410.439,34.08,405.52,27.679 M394.059,41.902h-43.752c-0.97,0-2.034-1.824-1.199-3.737
	c2.66-6.092,8.509-13.587,23.103-13.368c13.009,0.195,19.185,6.568,22.954,13.42C396.404,40.47,395.026,41.902,394.059,41.902"/>
</svg>
