<?xml version="1.0" encoding="utf-8"?>
<!-- Generator: Adobe Illustrator 16.0.0, SVG Export Plug-In . SVG Version: 6.00 Build 0)  -->
<!DOCTYPE svg PUBLIC "-//W3C//DTD SVG 1.1//EN" "http://www.w3.org/Graphics/SVG/1.1/DTD/svg11.dtd">
<svg version="1.1" id="Capa_1" xmlns="http://www.w3.org/2000/svg" xmlns:xlink="http://www.w3.org/1999/xlink" x="0px" y="0px"
	 width="605.806px" height="400px" viewBox="0 0 605.806 400" enable-background="new 0 0 605.806 400" xml:space="preserve">
<g>
	<defs>
		<rect id="SVGID_1_" width="605.806" height="400"/>
	</defs>
	<clipPath id="SVGID_2_">
		<use xlink:href="#SVGID_1_"  overflow="visible"/>
	</clipPath>
	<path clip-path="url(#SVGID_2_)" fill="#232324" d="M381.291,298.954l-2.494-1.257c0.008-0.335-0.088-0.67-0.292-0.979
		c-0.51-0.776-1.569-1.192-2.626-1.113l-3.433-5.218c-0.038-0.061-0.088-0.114-0.144-0.161c0.52-0.44,0.626-1.076,0.254-1.606
		c-0.39-0.556-1.182-0.835-1.978-0.697l-27.312,4.768c-0.292,0.051-0.568,0.16-0.794,0.314l-20.996,14.371
		c-0.609,0.419-0.783,1.082-0.433,1.651c0.353,0.571,1.127,0.881,1.93,0.773l9.785-1.311l4.566,6.942
		c0.914,1.392,3.453,1.886,7.339,1.43c3.486-0.409,7.71-1.547,11.893-3.203c4.181-1.658,7.847-3.645,10.318-5.597
		c2.757-2.177,3.729-4.062,2.813-5.452l-4.564-6.943l5.75-4.354l3.273,4.978c-0.701,0.616-0.889,1.528-0.379,2.305
		c0.203,0.308,0.495,0.566,0.851,0.757l-0.153,2.304c-0.035,0.515,0.278,0.989,0.834,1.269c0.558,0.279,1.241,0.308,1.832,0.074
		l3.993-1.583c0.592-0.235,0.965-0.681,0.998-1.195C382.159,299.708,381.846,299.233,381.291,298.954 M375.499,297.909
		c-0.179-0.272-0.039-0.607,0.313-0.747c0.353-0.14,0.785-0.031,0.963,0.242c0.089,0.133,0.104,0.284,0.043,0.426
		c-0.06,0.141-0.184,0.255-0.354,0.323c-0.169,0.066-0.362,0.078-0.545,0.033S375.584,298.043,375.499,297.909 M343.729,294.155
		l26.786-4.676l-7.728,5.852l-0.052,0.021l0.008,0.013l-12.161,9.21l-16.745,2.242l-0.009-0.013l-0.051,0.021l-10.639,1.425
		L343.729,294.155z M367.959,303.296c0.905,1.375-3.331,5.472-12.286,9.021c-8.953,3.547-15.714,3.807-16.619,2.432l-4.292-6.526
		l16.192-2.17c0.181-0.023,0.354-0.068,0.513-0.131c0.16-0.063,0.308-0.146,0.438-0.245l11.763-8.906L367.959,303.296z
		 M376.416,301.59l0.11-1.669h0.001l0.015-0.222c0.553-0.067,1.094-0.282,1.487-0.591l0.242,0.122l1.805,0.908L376.416,301.59z"/>
	<path clip-path="url(#SVGID_2_)" fill="#232324" d="M231.788,276.13l-12.949-3.278c1.698-6.015-3.811-12.271-10.195-13.887
		c-6.347-1.607-15.205,0.918-18.396,6.648l-15.709-3.976c-5.278-1.336-10.972,0.909-12.693,5.007l-10.977,26.122
		c-1.722,4.098,1.171,8.517,6.449,9.853l57.25,14.492c5.276,1.336,10.972-0.909,12.692-5.005l10.978-26.124
		C239.959,281.886,237.066,277.466,231.788,276.13 M207.828,260.901c5.118,1.296,9.709,6.459,8.509,11.317l-23.59-5.973
		C195.45,261.694,202.769,259.621,207.828,260.901 M173.725,263.575l57.249,14.492c3.9,0.988,6.039,4.255,4.766,7.282l-8.602,20.473
		c-14.928-1.776-22.593,3.808-24.975,6.005l-30.473-7.714c-0.256-2.888-2.241-11.008-15.934-16.404l8.586-20.435
		C165.615,264.248,169.824,262.588,173.725,263.575 M153.366,293.399l1.567-3.732c11.069,4.478,13.506,10.798,14.029,13.756
		l-10.83-2.741C154.231,299.694,152.093,296.427,153.366,293.399 M215.381,315.174l-10.49-2.656c2.643-2.129,9.31-6.055,21.42-4.727
		l-1.548,3.684C223.491,314.501,219.281,316.161,215.381,315.174"/>
	<path clip-path="url(#SVGID_2_)" fill="#232324" d="M212.979,34.788l-9.89-2.504c1.298-4.593-2.91-9.372-7.786-10.606
		c-4.847-1.227-11.613,0.702-14.048,5.08l-11.998-3.038c-4.03-1.02-8.379,0.695-9.694,3.824l-8.384,19.95
		c-1.314,3.128,0.895,6.503,4.926,7.524l43.723,11.068c4.03,1.02,8.377-0.695,9.692-3.823l8.384-19.951
		C219.22,39.182,217.009,35.808,212.979,34.788 M194.682,23.158c3.907,0.989,7.414,4.932,6.496,8.641l-18.014-4.56
		C185.228,23.763,190.818,22.179,194.682,23.158 M168.636,25.2l43.721,11.067c2.979,0.754,4.614,3.25,3.641,5.562l-6.569,15.634
		c-11.401-1.356-17.255,2.909-19.075,4.587l-23.271-5.891c-0.197-2.206-1.712-8.406-12.168-12.527l6.556-15.606
		C162.442,25.713,165.657,24.445,168.636,25.2 M153.087,47.976l1.198-2.851c8.454,3.418,10.314,8.246,10.713,10.505l-8.269-2.093
		C153.749,52.784,152.116,50.288,153.087,47.976 M200.45,64.604l-8.011-2.028c2.018-1.626,7.11-4.625,16.358-3.611l-1.182,2.813
		C206.644,64.091,203.428,65.359,200.45,64.604"/>
	<path clip-path="url(#SVGID_2_)" fill="#232324" d="M471.778,391.878l-1.106,0.881l9.571,7.241l66.882-53.261l-9.571-7.241
		l-1.106,0.882c-5.144,4.096-13.622,4.181-18.9,0.188c-5.277-3.992-5.386-10.573-0.243-14.669l1.107-0.882l-9.733-7.362
		l-66.882,53.262l9.733,7.361l1.106-0.881c5.144-4.097,13.622-4.18,18.898-0.188C476.812,381.201,476.923,387.781,471.778,391.878
		 M473.749,375.445c-6.148-4.65-15.803-4.83-22.224-0.607l-5.245-3.968l18.262-14.543l3.001,2.271
		c0.627,0.475,1.632,0.464,2.241-0.022c0.613-0.486,0.599-1.266-0.027-1.74l-3-2.271l41.979-33.43l5.243,3.968
		c-5.274,5.09-4.793,12.577,1.354,17.229c6.146,4.648,15.804,4.829,22.224,0.605l5.083,3.846l-42.137,33.557l-3.003-2.271
		c-0.627-0.475-1.629-0.464-2.24,0.023c-0.611,0.486-0.599,1.266,0.028,1.739l3.002,2.271l-18.104,14.416l-5.084-3.846
		C480.375,387.583,479.894,380.096,473.749,375.445"/>
	<path clip-path="url(#SVGID_2_)" fill="#232324" d="M511.845,413.135c0.61-0.486,0.598-1.266-0.028-1.74l-4.055-3.068
		c-0.63-0.475-1.632-0.464-2.244,0.021c-0.612,0.487-0.598,1.268,0.029,1.743l4.056,3.066
		C510.23,413.631,511.235,413.622,511.845,413.135"/>
	<path clip-path="url(#SVGID_2_)" fill="#232324" d="M503.895,407.06c0.613-0.487,0.599-1.267-0.028-1.741l-4.056-3.068
		c-0.626-0.474-1.631-0.464-2.242,0.023c-0.612,0.487-0.598,1.266,0.028,1.74l4.056,3.067
		C502.279,407.556,503.284,407.546,503.895,407.06"/>
	<path clip-path="url(#SVGID_2_)" fill="#232324" d="M136.277,125.695l1.474-1.175l-12.753-9.648l-89.117,70.969l12.753,9.647
		l1.474-1.174c6.854-5.458,18.152-5.571,25.184-0.25c7.033,5.319,7.177,14.088,0.323,19.546l-1.475,1.175l12.97,9.812l89.118-70.968
		l-12.97-9.813l-1.474,1.175c-6.854,5.458-18.151,5.571-25.184,0.25C129.568,139.922,129.423,131.153,136.277,125.695
		 M133.651,147.591c8.191,6.196,21.057,6.436,29.612,0.809l6.99,5.287l-24.334,19.378l-3.999-3.025
		c-0.836-0.632-2.174-0.619-2.988,0.03c-0.814,0.648-0.797,1.687,0.039,2.319l3.999,3.025l-55.936,44.543l-6.989-5.286
		c7.027-6.783,6.387-16.76-1.804-22.956c-8.19-6.197-21.057-6.437-29.612-0.81l-6.773-5.125l56.146-44.712l4,3.025
		c0.835,0.633,2.173,0.62,2.988-0.029c0.814-0.649,0.797-1.687-0.039-2.319l-3.998-3.025l24.123-19.21l6.773,5.124
		C124.821,131.417,125.46,141.394,133.651,147.591"/>
	<path clip-path="url(#SVGID_2_)" fill="#232324" d="M107.152,145.784c-0.814,0.649-0.797,1.687,0.039,2.319l5.402,4.088
		c0.837,0.632,2.175,0.618,2.99-0.03c0.813-0.648,0.795-1.687-0.039-2.318l-5.404-4.088
		C109.304,145.121,107.966,145.135,107.152,145.784"/>
	<path clip-path="url(#SVGID_2_)" fill="#232324" d="M117.745,153.879c-0.813,0.648-0.797,1.687,0.04,2.319l5.403,4.088
		c0.835,0.632,2.173,0.618,2.988-0.03c0.814-0.648,0.797-1.687-0.039-2.318l-5.404-4.089
		C119.897,153.217,118.56,153.23,117.745,153.879"/>
	<path clip-path="url(#SVGID_2_)" fill="#232324" d="M128.339,161.975c-0.814,0.648-0.797,1.687,0.038,2.319l5.403,4.088
		c0.836,0.631,2.174,0.618,2.989-0.03s0.797-1.687-0.039-2.318l-5.404-4.089C130.491,161.312,129.153,161.326,128.339,161.975"/>
	<path clip-path="url(#SVGID_2_)" fill="#232324" d="M504.291,208.546l-64.554-21.538c-0.946-0.316-1.506-1.019-1.39-1.75
		c0.112-0.731,0.864-1.266,1.868-1.33l39.652-2.546c0.785-0.05,1.577,0.214,2.07,0.691l24.902,24.085
		c0.632,0.61,0.648,1.401,0.043,1.968C506.278,208.693,505.235,208.862,504.291,208.546 M441.047,185.606l63.651,21.238
		l-24.554-23.748L441.047,185.606z M480.043,182.236L480.043,182.236L480.043,182.236z"/>
	<path clip-path="url(#SVGID_2_)" fill="#232324" d="M473.717,194.218c-2.719-0.907-4.062-3.219-2.991-5.152
		c1.071-1.933,4.154-2.768,6.874-1.86c2.722,0.908,4.063,3.218,2.992,5.151C479.52,194.292,476.436,195.126,473.717,194.218
		 M476.741,188.759c-1.516-0.505-3.234-0.041-3.831,1.037c-0.595,1.078,0.151,2.365,1.667,2.871c1.516,0.506,3.235,0.041,3.83-1.036
		C479.002,190.553,478.257,189.265,476.741,188.759"/>
	<path clip-path="url(#SVGID_2_)" fill="#232324" d="M487.666,239.402l-65.747-21.937c-2.093-0.698-3.126-2.478-2.303-3.967
		l1.153-2.079c0.823-1.488,3.197-2.131,5.292-1.433l65.747,21.938c2.093,0.698,3.126,2.479,2.302,3.967l-1.15,2.079
		C492.134,239.459,489.758,240.102,487.666,239.402 M425.202,211.54c-0.891-0.296-1.899-0.023-2.25,0.609l-1.149,2.079
		c-0.351,0.631,0.088,1.389,0.977,1.684l65.747,21.938c0.89,0.297,1.898,0.024,2.248-0.609l1.152-2.079
		c0.35-0.632-0.09-1.388-0.979-1.686L425.202,211.54z"/>
	<path clip-path="url(#SVGID_2_)" fill="#232324" d="M429.765,207.873l6.44,2.147l8.79-15.873c-0.053-0.331,0.128-0.648,0.479-0.841
		l1.169-0.64l-7.836-2.615l0.206,1.098c0.062,0.332-0.108,0.65-0.457,0.849L429.765,207.873z M435.292,211.862l-6.62-2.209
		c-1.355-0.452-2.023-1.602-1.489-2.566l8.837-15.956c0.056-0.099,0.121-0.192,0.197-0.281l-0.175-0.938
		c-0.12-0.636,0.202-1.232,0.867-1.608c0.722-0.409,1.736-0.452,2.614-0.158l8.412,2.806c0.877,0.293,1.537,0.893,1.651,1.582
		c0.105,0.634-0.23,1.226-0.906,1.596l-0.999,0.546c-0.029,0.104-0.073,0.207-0.128,0.305l-8.837,15.955
		C438.184,211.9,436.65,212.315,435.292,211.862"/>
	<path clip-path="url(#SVGID_2_)" fill="#232324" d="M448.246,214.039l6.438,2.147l8.792-15.873
		c-0.055-0.331,0.127-0.649,0.479-0.841l1.168-0.64l-7.837-2.614l0.208,1.098c0.063,0.33-0.11,0.65-0.456,0.848h-0.001
		L448.246,214.039z M453.771,218.029l-6.62-2.21c-1.356-0.452-2.023-1.602-1.489-2.566l8.837-15.955
		c0.056-0.099,0.121-0.192,0.197-0.282l-0.177-0.938c-0.118-0.635,0.204-1.231,0.868-1.607c0.723-0.41,1.737-0.452,2.616-0.159
		l8.41,2.806c0.879,0.293,1.537,0.895,1.653,1.583c0.104,0.633-0.23,1.226-0.909,1.596l-0.998,0.545
		c-0.03,0.105-0.071,0.208-0.127,0.306l-8.837,15.955C456.661,218.065,455.128,218.481,453.771,218.029"/>
	<path clip-path="url(#SVGID_2_)" fill="#232324" d="M466.725,220.204l6.438,2.148l8.792-15.873
		c-0.053-0.331,0.128-0.647,0.479-0.841l1.169-0.64l-7.837-2.614l0.207,1.099c0.063,0.33-0.11,0.65-0.457,0.848v0.001
		L466.725,220.204z M472.25,224.194l-6.62-2.209c-1.355-0.453-2.024-1.602-1.49-2.566l8.837-15.955
		c0.057-0.1,0.122-0.193,0.198-0.282l-0.177-0.938c-0.119-0.635,0.204-1.232,0.869-1.608c0.722-0.409,1.736-0.452,2.614-0.158
		l8.411,2.806c0.878,0.294,1.538,0.895,1.652,1.582c0.104,0.634-0.23,1.226-0.907,1.596l-0.998,0.547
		c-0.031,0.104-0.073,0.206-0.128,0.305l-8.837,15.956C475.141,224.232,473.609,224.646,472.25,224.194"/>
	<path clip-path="url(#SVGID_2_)" fill="#232324" d="M485.205,226.371l6.438,2.147l8.792-15.873
		c-0.056-0.331,0.126-0.648,0.479-0.841l1.168-0.64l-7.837-2.614l0.208,1.099c0.062,0.33-0.111,0.65-0.456,0.849h-0.002
		L485.205,226.371z M490.73,230.36l-6.62-2.209c-1.357-0.453-2.023-1.602-1.489-2.566l8.837-15.955
		c0.055-0.099,0.121-0.192,0.197-0.282l-0.177-0.938c-0.12-0.636,0.203-1.231,0.867-1.607c0.723-0.41,1.737-0.452,2.617-0.159
		l8.411,2.806c0.878,0.294,1.536,0.895,1.651,1.583c0.104,0.633-0.23,1.226-0.908,1.596l-0.998,0.545
		c-0.03,0.105-0.072,0.208-0.127,0.306l-8.837,15.955C493.62,230.397,492.087,230.813,490.73,230.36"/>
	<path clip-path="url(#SVGID_2_)" fill-rule="evenodd" clip-rule="evenodd" fill="#232324" d="M115.122,357.417
		c0.247,0.134,0.543,0.18,0.82,0.141c0.276-0.036,0.535-0.154,0.711-0.346c0.35-0.384,0.233-0.911-0.264-1.181
		c-1.286-0.703-1.593-2.084-0.683-3.079c0.78-0.854,1.085-1.888,0.857-2.916c-0.228-1.027-0.961-1.925-2.065-2.524
		c-0.496-0.271-1.179-0.18-1.529,0.203c-0.352,0.384-0.234,0.912,0.262,1.182c0.624,0.341,1.04,0.848,1.169,1.429
		c0.129,0.582-0.043,1.167-0.485,1.65C112.305,353.735,112.846,356.176,115.122,357.417 M138.93,354.23
		c0.247,0.135,0.542,0.18,0.819,0.143c0.278-0.037,0.537-0.156,0.711-0.348c0.351-0.383,0.232-0.911-0.263-1.182
		c-1.287-0.701-1.594-2.082-0.685-3.077c0.781-0.853,1.086-1.889,0.857-2.917c-0.228-1.027-0.96-1.923-2.065-2.524
		c-0.495-0.27-1.179-0.178-1.53,0.205c-0.35,0.384-0.232,0.911,0.263,1.182c0.624,0.339,1.039,0.847,1.168,1.429
		c0.129,0.581-0.043,1.166-0.485,1.648C136.112,350.549,136.654,352.991,138.93,354.23 M125.912,350.81
		c0.248,0.136,0.542,0.181,0.819,0.144c0.278-0.037,0.536-0.157,0.71-0.348c0.351-0.384,0.234-0.912-0.262-1.182
		c-1.287-0.702-1.593-2.082-0.684-3.078c0.781-0.853,1.085-1.889,0.856-2.916c-0.228-1.027-0.961-1.924-2.065-2.525
		c-0.496-0.27-1.18-0.178-1.53,0.205c-0.351,0.384-0.233,0.911,0.262,1.182c0.625,0.339,1.041,0.848,1.169,1.429
		c0.129,0.581-0.042,1.168-0.485,1.649C123.095,347.128,123.637,349.57,125.912,350.81 M129.979,360.844
		c-0.102-0.462-0.669-0.772-1.269-0.692l-0.015,0.003c-1.777,0.236-3.514,0.626-5.16,1.152c-0.56,0.179-0.827,0.674-0.596,1.107
		c0.201,0.373,0.706,0.577,1.2,0.511c0.079-0.011,0.157-0.028,0.234-0.053c1.497-0.478,3.076-0.831,4.694-1.048l0.013-0.001
		C129.68,361.744,130.082,361.306,129.979,360.844 M117.508,364.145c-5.059,3.33-8.124,8.539-8.197,13.935
		c-0.007,0.47,0.479,0.851,1.086,0.854c0.068,0.002,0.135-0.003,0.199-0.01c0.512-0.069,0.906-0.412,0.911-0.829
		c0.067-4.91,2.843-9.645,7.424-12.659c0.461-0.304,0.519-0.84,0.126-1.196C118.664,363.884,117.97,363.842,117.508,364.145
		 M159.71,371.166c-3.934-8.627-14.48-14.491-26.288-14.673c-0.011-0.137-0.013-0.275-0.043-0.408
		c-0.511-2.304-3.355-3.853-6.339-3.454c-2.984,0.399-4.995,2.599-4.482,4.901c0.029,0.133,0.085,0.266,0.135,0.395
		c-11.047,3.242-18.455,11.507-18.441,20.66c-2.041,1.291-4.192,3.076-3.831,4.708c0.943,4.249,18.364,4.855,34.042,2.759
		c15.678-2.098,31.832-7.196,30.888-11.446C164.989,372.977,162.192,371.853,159.71,371.166 M127.412,354.304
		c1.79-0.24,3.498,0.69,3.804,2.071c0.01,0.048,0.02,0.096,0.026,0.146c-0.053,0.002-0.104,0.007-0.154,0.009
		c-0.379,0.02-0.759,0.047-1.14,0.077c-0.141,0.011-0.281,0.019-0.419,0.03c-0.519,0.048-1.038,0.104-1.558,0.173
		c-0.521,0.071-1.035,0.152-1.542,0.243c-0.137,0.023-0.272,0.053-0.409,0.078c-0.373,0.071-0.742,0.145-1.108,0.227
		c-0.05,0.011-0.101,0.018-0.151,0.029c-0.015-0.048-0.027-0.096-0.038-0.143C124.415,355.862,125.623,354.542,127.412,354.304
		 M106.533,380.226c-0.009-0.094-0.015-0.188-0.022-0.281c-0.024-0.275-0.045-0.55-0.054-0.824
		c-0.322-8.942,7.055-17.069,18.036-19.893c0.567-0.145,1.14-0.271,1.719-0.387c0.119-0.023,0.237-0.046,0.355-0.068
		c1.175-0.221,2.369-0.381,3.569-0.478c0.122-0.01,0.245-0.02,0.365-0.027c0.595-0.042,1.19-0.072,1.786-0.083
		c11.565-0.191,22.022,5.548,25.579,14.058c0.109,0.261,0.208,0.525,0.304,0.79c0.032,0.09,0.068,0.181,0.101,0.271
		c0.125,0.364,0.238,0.729,0.335,1.098c-16.325,5.317-34.239,7.716-51.916,6.946C106.625,380.976,106.572,380.602,106.533,380.226
		 M134.092,384.382c-18.5,2.476-31.091,0.487-31.506-1.377c-0.071-0.319,0.285-1.092,1.802-2.244
		c0.006,0.049,0.019,0.096,0.025,0.144c0.064,0.463,0.141,0.928,0.246,1.394l0.145,0.658l0.865,0.044
		c9.299,0.459,18.672,0.059,27.858-1.171c9.186-1.229,18.19-3.285,26.754-6.135l0.795-0.266l-0.146-0.659
		c-0.104-0.466-0.233-0.923-0.37-1.377c-0.016-0.048-0.023-0.095-0.039-0.142c1.925,0.69,2.594,1.327,2.666,1.646
		C163.601,376.763,152.593,381.907,134.092,384.382"/>
	<path clip-path="url(#SVGID_2_)" fill-rule="evenodd" clip-rule="evenodd" fill="#232324" d="M388.271,29.591
		c0.208,0.069,0.434,0.067,0.631,0.008c0.195-0.06,0.363-0.178,0.454-0.339c0.183-0.324-0.007-0.698-0.425-0.838
		c-1.083-0.364-1.58-1.343-1.106-2.183c0.408-0.719,0.429-1.518,0.061-2.246c-0.37-0.729-1.085-1.301-2.013-1.613
		c-0.418-0.14-0.902,0.008-1.087,0.331c-0.181,0.324,0.008,0.698,0.426,0.838c0.524,0.176,0.93,0.5,1.14,0.913
		c0.206,0.412,0.196,0.863-0.035,1.27C385.478,27.217,386.356,28.947,388.271,29.591 M405.152,24.439
		c0.208,0.07,0.435,0.068,0.632,0.007c0.195-0.06,0.362-0.177,0.454-0.338c0.183-0.324-0.007-0.698-0.425-0.838
		c-1.083-0.364-1.579-1.343-1.105-2.183c0.407-0.719,0.429-1.516,0.059-2.245c-0.37-0.729-1.084-1.302-2.014-1.613
		c-0.416-0.14-0.903,0.008-1.083,0.331c-0.185,0.323,0.006,0.698,0.422,0.838c0.526,0.176,0.931,0.5,1.14,0.912
		c0.21,0.413,0.198,0.863-0.032,1.271C402.359,22.064,403.236,23.796,405.152,24.439 M394.911,23.459
		c0.209,0.07,0.434,0.069,0.63,0.009c0.196-0.061,0.365-0.179,0.455-0.34c0.184-0.322-0.007-0.697-0.424-0.837
		c-1.085-0.365-1.58-1.343-1.106-2.183c0.408-0.719,0.429-1.517,0.059-2.245c-0.368-0.729-1.082-1.302-2.013-1.612
		c-0.418-0.141-0.901,0.008-1.085,0.331c-0.183,0.323,0.008,0.697,0.426,0.837c0.523,0.176,0.928,0.5,1.138,0.912
		c0.209,0.414,0.198,0.864-0.033,1.271C392.12,21.086,392.996,22.817,394.911,23.459 M399.867,30.358
		c-0.166-0.328-0.643-0.489-1.066-0.36l-0.012,0.003c-1.26,0.385-2.461,0.875-3.568,1.457c-0.378,0.198-0.477,0.594-0.222,0.885
		c0.221,0.251,0.631,0.341,0.982,0.234c0.056-0.017,0.11-0.039,0.162-0.066c1.007-0.529,2.099-0.975,3.248-1.324l0.008-0.003
		C399.823,31.055,400.033,30.685,399.867,30.358 M391.344,34.257c-3.068,3.045-4.302,7.237-3.297,11.213
		c0.087,0.345,0.518,0.57,0.965,0.501c0.05-0.007,0.099-0.019,0.145-0.032c0.362-0.111,0.584-0.409,0.508-0.716
		c-0.915-3.619,0.2-7.427,2.979-10.186c0.28-0.277,0.218-0.677-0.143-0.893C392.143,33.929,391.625,33.979,391.344,34.257
		 M423.75,34.44c-4.583-5.88-13.486-8.947-22.204-7.688c-0.034-0.098-0.063-0.201-0.11-0.294c-0.828-1.633-3.222-2.437-5.338-1.791
		c-2.114,0.646-3.163,2.5-2.335,4.133c0.047,0.094,0.115,0.184,0.177,0.274c-7.489,3.686-11.315,10.638-9.512,17.367
		c-1.248,1.19-2.481,2.757-1.896,3.914c1.525,3.013,14.453,1.403,25.571-1.99c11.117-3.393,21.995-9.048,20.47-12.061
		C427.986,35.146,425.709,34.651,423.75,34.44 M396.699,25.852c1.27-0.388,2.707,0.095,3.202,1.075
		c0.018,0.034,0.033,0.068,0.047,0.104c-0.037,0.008-0.075,0.017-0.111,0.026c-0.275,0.058-0.549,0.123-0.823,0.19
		c-0.101,0.025-0.202,0.047-0.302,0.073c-0.373,0.096-0.742,0.198-1.112,0.311c-0.368,0.113-0.73,0.234-1.087,0.36
		c-0.096,0.034-0.188,0.071-0.284,0.107c-0.26,0.095-0.517,0.193-0.769,0.296c-0.036,0.014-0.072,0.026-0.106,0.04
		c-0.021-0.033-0.04-0.067-0.057-0.101C394.799,27.352,395.429,26.239,396.699,25.852 M386.424,47.376
		c-0.025-0.068-0.047-0.136-0.071-0.205c-0.072-0.199-0.141-0.398-0.201-0.599c-1.988-6.537,1.844-13.383,9.365-16.756
		c0.389-0.172,0.785-0.333,1.188-0.486c0.082-0.032,0.165-0.062,0.249-0.093c0.82-0.301,1.665-0.559,2.529-0.773
		c0.088-0.021,0.177-0.042,0.263-0.063c0.432-0.101,0.861-0.192,1.299-0.271c8.468-1.506,17.279,1.48,21.561,7.318
		c0.131,0.179,0.257,0.361,0.379,0.544c0.041,0.063,0.086,0.125,0.127,0.188c0.164,0.253,0.317,0.509,0.462,0.768
		c-10.963,5.836-23.665,9.713-36.813,11.235C386.64,47.917,386.527,47.648,386.424,47.376 M407.502,47.18
		c-13.117,4.003-22.766,4.028-23.436,2.706c-0.115-0.227-0.004-0.838,0.886-1.862c0.014,0.034,0.031,0.066,0.046,0.102
		c0.139,0.332,0.285,0.666,0.452,0.996l0.236,0.467l0.646-0.07c6.929-0.76,13.74-2.161,20.254-4.148
		c6.514-1.987,12.731-4.563,18.47-7.669l0.533-0.29l-0.235-0.467c-0.169-0.331-0.353-0.651-0.542-0.969
		c-0.021-0.033-0.037-0.066-0.058-0.099c1.551,0.28,2.169,0.67,2.283,0.896C427.708,38.094,420.622,43.177,407.502,47.18"/>
	<path clip-path="url(#SVGID_2_)" fill="#232324" d="M593.25,293.247c-0.822-5.136-5.127-9.176-11.241-10.56l-0.084-0.02
		c-0.207-0.046-0.419-0.089-0.629-0.13c-7.81-1.509-15.925,1.143-20.546,6.243c-0.359-6.229-5.367-11.852-12.996-13.838
		c-0.206-0.054-0.414-0.104-0.618-0.153c-0.031-0.006-0.059-0.012-0.086-0.019c-6.114-1.386-12.542,0.225-16.795,4.209
		c-4.583,4.297-5.458,10.207-2.229,15.058l6.98,10.487l12.673,19.033l23.87-10.759l13.151-5.928
		C590.783,304.131,594.139,298.781,593.25,293.247 M570.426,311.302l-21.842,9.844l-11.594-17.416l-4.772-7.169l14.665,3.32
		c0.174,0.04,0.364,0.009,0.502-0.082c0.308-0.2,0.78-0.083,0.879,0.221l0.452,1.38c0.116,0.359,0.731,0.437,0.988,0.123
		l3.295-4.018c0.298-0.361,1.018-0.192,1.004,0.236l-0.341,12.377c-0.013,0.421,0.688,0.596,0.994,0.249l7.673-8.667
		c0.285-0.321,0.932-0.198,0.991,0.19l0.239,1.563c0.025,0.169,0.177,0.307,0.384,0.354l15.235,3.548L570.426,311.302z
		 M583.579,305.373l-1.973,0.889c-0.064-0.106-0.177-0.192-0.333-0.228l-15.284-3.559c-0.208-0.048-0.358-0.188-0.385-0.355
		l-0.767-5.003c-0.06-0.388-0.707-0.511-0.991-0.189l-6.797,7.678c-0.307,0.346-1.006,0.173-0.993-0.249l0.353-12.772
		c0.011-0.427-0.708-0.597-1.005-0.236l-4.807,5.859c-0.258,0.313-0.87,0.235-0.988-0.123l-0.055-0.17
		c-0.099-0.303-0.571-0.421-0.879-0.221l-1.813,1.183c-0.14,0.09-0.327,0.122-0.502,0.082l-15.377-3.482
		c-0.055-0.012-0.107-0.011-0.161-0.011l-0.814-1.223c-2.816-4.231-2.044-9.396,1.967-13.157c3.729-3.493,9.123-4.856,14.444-3.65
		c0.026,0.006,0.053,0.011,0.078,0.018c0.183,0.042,0.363,0.088,0.546,0.133c8.09,2.107,12.835,8.865,11.163,15.636
		c-0.116,0.472,0.259,0.931,0.856,1.048c0.587,0.15,1.222-0.08,1.448-0.525c3.282-6.406,11.964-10.123,20.244-8.523
		c0.187,0.036,0.372,0.075,0.554,0.116c0.028,0.004,0.053,0.011,0.077,0.017c5.322,1.204,8.926,4.605,9.648,9.108
		C591.813,298.306,588.886,302.98,583.579,305.373"/>
	<path clip-path="url(#SVGID_2_)" fill="#232324" d="M514.973,66.507l-4.585,7.867l-0.004-0.004l-12.152,20.854
		c-2.832,4.859-0.456,10.533,5.281,13.23l-10.825,18.578l-8.879-3.117c-0.814-0.285-1.771-0.005-2.139,0.625
		c-0.367,0.631-0.006,1.374,0.808,1.66l20.7,7.267c0.813,0.286,1.77,0.005,2.137-0.625c0.369-0.631,0.006-1.375-0.805-1.66
		l-8.878-3.117l10.827-18.577c6.343,1.551,13.332-0.761,16.209-5.538l0.01,0.011l16.813-28.846L514.973,66.507z M525.557,92.934
		l-0.002-0.004l-5.752,9.868c-2.298,3.944-8.264,5.725-13.363,4.015c-5.251-1.76-7.547-6.638-5.189-10.683l6.255-10.733l0.004,0.004
		l9.076-15.575l18.628,6.541L525.557,92.934z"/>
	<path clip-path="url(#SVGID_2_)" fill="#232324" d="M542.512,107.406l0.015-0.006c-0.019,5.272,5.036,9.676,11.624,10.371
		l-0.404,20.388l-9.743-0.117c-0.892-0.01-1.625,0.542-1.642,1.234c-0.012,0.693,0.698,1.263,1.593,1.274l22.717,0.271
		c0.892,0.01,1.628-0.542,1.641-1.235c0.014-0.693-0.698-1.263-1.592-1.273l-9.742-0.116l0.404-20.389
		c6.671-0.541,11.938-4.888,12.043-10.22l0.455-22.885l-0.004,0.002l0.171-8.633l-26.904-0.322L542.512,107.406z M545.751,107.304
		l0.216-10.829l-0.005,0.002l0.36-18.182l20.443,0.244l-0.34,17.092l0.005-0.002l-0.234,11.778
		c-0.088,4.439-4.843,8.093-10.561,7.949C550.084,115.216,545.667,111.633,545.751,107.304"/>
	<path clip-path="url(#SVGID_2_)" fill="#232324" d="M540.789,72.063l1.804-6.254c0.061-0.207,0.323-0.335,0.589-0.291l1.786,0.311
		c0.266,0.046,0.434,0.251,0.373,0.458l-1.803,6.253c-0.059,0.207-0.322,0.336-0.589,0.29l-1.786-0.31
		C540.898,72.473,540.73,72.268,540.789,72.063"/>
	<path clip-path="url(#SVGID_2_)" fill="#232324" d="M536.871,72.672l-2.468-6.115c-0.08-0.202,0.063-0.417,0.323-0.48l1.747-0.424
		c0.26-0.063,0.536,0.049,0.617,0.251l2.468,6.115c0.082,0.203-0.063,0.417-0.323,0.48l-1.746,0.425
		C537.228,72.986,536.953,72.874,536.871,72.672"/>
	<path clip-path="url(#SVGID_2_)" fill="#232324" d="M546.857,74.406l5.59-4.715c0.184-0.156,0.171-0.398-0.028-0.541l-1.349-0.962
		c-0.2-0.143-0.512-0.133-0.696,0.022l-5.591,4.717c-0.184,0.155-0.172,0.397,0.03,0.54l1.346,0.962
		C546.36,74.572,546.672,74.562,546.857,74.406"/>
	<path clip-path="url(#SVGID_2_)" fill="#232324" d="M59.478,265.923c-13.389-7.669-28.045,2.112-26.62,13.634
		c0.831-0.33,1.663-0.659,2.494-0.99c-7.179-4.895-18.716-6.227-25.75-0.313c-7.431,6.249-4.112,16.677,5.411,20.351
		c5.255,2.027,11.225,3.161,16.766,4.668c6.957,1.895,13.916,3.786,20.873,5.681c0.728,0.197,1.61-0.152,1.829-0.727
		c2.321-6.081,4.641-12.16,6.961-18.24c3.204-8.395,8.123-16.818-1.675-23.875c-1.358-0.98-3.516,0.533-2.142,1.523
		c8.995,6.479,3.659,14.824,0.747,22.457c-2.217,5.813-4.437,11.628-6.655,17.441c0.609-0.241,1.219-0.484,1.828-0.727
		c-8.212-2.233-16.425-4.469-24.638-6.703c-6.677-1.816-15.431-3.068-18.914-8.391C1.963,279.444,22.15,272.55,33.209,280.09
		c1.109,0.756,2.635,0.152,2.494-0.988c-1.213-9.808,10.969-17.719,22.21-11.279C59.417,268.685,60.978,266.783,59.478,265.923"/>
	<path clip-path="url(#SVGID_2_)" fill="#232324" d="M78.618,324.55c-2.439,0.968-5.34,1.777-9.917,1.857l-0.932,0.016l-0.313-0.681
		c-1.803-3.918-3.604-7.846-5.397-11.766c-0.67-1.466-0.664-3.076,0.017-4.539l5.623-12.088c0.321-0.691,0.875-1.286,1.597-1.725
		c1.888-1.141,3.832-1.014,5.207,0.341c0.93,0.914,1.233,2.163,0.811,3.34c-0.375,1.047-1.069,2.313-1.739,3.538
		c-0.702,1.285-1.838,3.363-1.849,4.155c0.35-0.036,1.157-0.201,2.75-0.868c3.037-1.271,3.189-5.228,3.094-8.837
		c-0.058-2.301-1.499-4.44-3.023-6.706c-0.566-0.84-1.149-1.706-1.657-2.585c-0.501-0.863-0.584-1.839-0.233-2.745
		c1.003-2.609,2.968-3.113,4.439-3.077c1.896,0.047,3.583,1.025,4.292,2.495l6.416,13.233c0.271,0.555,0.373,1.124,0.306,1.689
		c-0.269,2.32-0.92,4.86-1.549,7.317c-1.076,4.2-2.188,8.542-1.326,11.588c0.488,1.73-0.537,3.453-2.55,4.29
		c-0.599,0.247-1.173,0.504-1.749,0.761C80.184,323.89,79.426,324.229,78.618,324.55 M69.568,324.375
		c4.822-0.209,7.381-1.351,10.079-2.557c0.598-0.268,1.197-0.536,1.819-0.793c0.982-0.407,1.483-1.248,1.244-2.092
		c-0.979-3.454,0.188-8.006,1.316-12.408c0.616-2.405,1.253-4.892,1.512-7.107c0.03-0.264-0.021-0.533-0.151-0.803l-6.417-13.234
		c-0.336-0.695-1.123-1.177-1.958-1.198c-0.337-0.007-1.237-0.03-1.883,1.65c-0.172,0.447-0.132,0.925,0.113,1.347
		c0.477,0.825,1.044,1.667,1.591,2.48c1.596,2.37,3.246,4.821,3.318,7.594c0.085,3.247,0.227,8.682-4.451,10.641
		c-2.087,0.866-4.409,1.637-5.789,0.662c-1.635-1.155-0.346-3.514,1.285-6.495c0.639-1.166,1.298-2.372,1.628-3.293
		c0.202-0.563,0.071-1.147-0.35-1.562c-0.34-0.334-0.611-0.601-1.592-0.001c-0.34,0.205-0.602,0.49-0.759,0.825l-5.622,12.087
		c-0.479,1.028-0.482,2.16-0.014,3.188C66.177,316.993,67.872,320.688,69.568,324.375"/>
	<path clip-path="url(#SVGID_2_)" fill="#232324" d="M57.202,333.053c-0.807,0.32-1.604,0.598-2.394,0.875
		c-0.605,0.211-1.209,0.422-1.819,0.654c-2.052,0.778-4.452,0.416-5.974-0.905c-2.677-2.325-7.864-4.165-12.882-5.946
		c-2.935-1.042-5.97-2.119-8.554-3.308c-0.629-0.289-1.162-0.685-1.584-1.181l-10.072-11.781c-1.118-1.307-1.155-2.941-0.093-4.162
		c0.821-0.948,2.499-1.889,5.813-0.993c1.153,0.312,2.122,0.934,2.731,1.753c0.619,0.834,1.185,1.711,1.732,2.558
		c1.473,2.284,2.867,4.443,5.234,5.826c3.716,2.171,7.939,4.391,11.042,3.224c1.633-0.617,2.275-1.023,2.518-1.223
		c-0.833-0.458-3.67-0.959-5.425-1.268c-1.67-0.295-3.399-0.601-4.711-0.976c-1.477-0.425-2.605-1.346-3.017-2.465
		c-0.61-1.66,0.4-2.956,2.692-3.479c0.879-0.199,1.825-0.198,2.735,0.004l15.921,3.535c1.926,0.428,3.614,1.368,4.752,2.646
		c3.044,3.423,6.095,6.855,9.132,10.282l0.529,0.597l-0.562,0.577C62.186,330.73,59.644,332.083,57.202,333.053 M16.442,308.077
		c-0.266,0.105-0.395,0.255-0.471,0.342c-0.468,0.538-0.426,1.313,0.104,1.933l10.073,11.783c0.204,0.24,0.457,0.43,0.75,0.565
		c2.466,1.134,5.437,2.188,8.311,3.208c5.259,1.865,10.696,3.797,13.732,6.433c0.743,0.644,1.915,0.821,2.915,0.44
		c0.633-0.239,1.263-0.461,1.892-0.681c2.84-0.992,5.53-1.933,8.57-4.846c-2.86-3.228-5.729-6.455-8.593-9.674
		c-0.798-0.898-1.984-1.558-3.337-1.859l-15.919-3.535c-0.439-0.097-0.891-0.099-1.304-0.005c-1.206,0.267-1.082,0.594-0.932,1.004
		c0.187,0.507,0.722,0.931,1.428,1.135c1.154,0.33,2.799,0.62,4.389,0.901c4.073,0.718,7.29,1.286,7.541,2.991
		c0.211,1.439-1.954,2.45-4.081,3.257c-4.78,1.798-10.378-1.472-13.72-3.426c-2.852-1.668-4.448-4.14-5.991-6.531
		c-0.53-0.82-1.078-1.67-1.661-2.454c-0.298-0.402-0.775-0.708-1.341-0.86C17.526,307.856,16.834,307.922,16.442,308.077"/>
	<path clip-path="url(#SVGID_2_)" fill="#232324" d="M104.235,60.925c-4.919-1.181-11.07-1.853-15.608-3.753
		c-7.024-2.939-7.961-10.932-12.2-15.677c-6.748-7.551-21.704-7.589-32.035-5.165c-0.126,0.029-0.234,0.068-0.34,0.108
		c-0.112,0.029-0.224,0.06-0.341,0.108c-9.563,3.908-20.17,12.067-18.145,21.132c1.285,5.751,7.742,11.824,5.49,17.813
		c-1.437,3.82-5.299,7.671-7.724,11.177c-1.291,1.865,2.626,3.12,3.906,1.269c5.775-8.346,10.792-12.925,6.255-22.48
		c-2.506-5.282-6.543-10.826-1.775-16.24c3.214-3.65,8.597-7.585,13.598-9.629c0.117-0.047,0.216-0.104,0.312-0.16
		c0.122-0.013,0.242-0.027,0.369-0.056c5.433-1.274,12.76-1.395,18.369-0.553c8.301,1.247,10.456,7.408,13.448,12.536
		c5.396,9.25,13.146,9.81,24.786,12.603C105.184,64.577,106.841,61.551,104.235,60.925"/>
	<path clip-path="url(#SVGID_2_)" fill="#232324" d="M95.635,68.631c-4.171-1.055-8.964-1.773-12.914-3.265
		c-4.677-1.766-6.626-4.731-9.104-8.044c-1.446-1.936-4.997,0.214-3.56,2.137c3.194,4.276,6.108,7.692,12.302,9.477
		c6.984,2.013,14.521,3.127,21.365,5.403c6.507,2.163,8.053,7.072,0.727,9.077c-3.86,1.056-8.655,1.009-12.73,1.277
		c-7.156,0.472-14.315,0.924-21.473,1.385c-0.295-0.028-0.604,0.001-0.914,0.095c-0.439,0.096-0.769,0.282-1.006,0.519
		c-5.324,3.395-10.65,6.786-15.973,10.183c-3.152,2.01-6.326,3.979-9.656,5.812c-2.606,1.435-5.998,3.474-9.164,0.981
		c-2.318-1.824-1.262-4.925-0.246-6.873c2.74-5.251,7.013-10.091,10.145-15.21c2.914-4.761,2.067-8.812,0.415-13.787
		c-0.715-2.147-5.189-1.751-4.469,0.418c1.212,3.645,2.568,6.746,0.898,10.53c-1.436,3.252-4.319,6.474-6.351,9.521
		c-3.292,4.935-9.084,11.059-4.688,16.615c6.445,8.148,17.569-0.014,23.659-3.838c6.055-3.802,12.04-7.67,18.057-11.509
		c7.572-0.485,15.155-0.921,22.722-1.467c7.813-0.564,23.48-0.944,20.244-10.384C111.807,71.506,102.386,70.339,95.635,68.631"/>
	<path clip-path="url(#SVGID_2_)" fill="#232324" d="M40.469,31.976c-7.877,2.507-16.913-0.429-20.142-6.543
		C17.099,19.32,20.878,12.306,28.756,9.8c7.877-2.507,16.914,0.428,20.143,6.542C52.128,22.456,48.347,29.469,40.469,31.976
		 M30.095,12.334c-6.076,1.934-8.993,7.343-6.503,12.06c2.493,4.717,9.463,6.98,15.539,5.047c6.077-1.933,8.995-7.344,6.503-12.061
		C43.142,12.665,36.17,10.4,30.095,12.334"/>
	<path clip-path="url(#SVGID_2_)" fill="#232324" d="M295.864,137.772c-0.017,0.004-0.031,0.009-0.046,0.015
		c-0.392,0.118-0.813,0.114-1.186-0.014l-11.411-3.898c-0.375-0.129-0.664-0.369-0.815-0.676c-0.115-0.236-0.469-0.955,1.073-3.576
		l0.046-0.083c1.062-1.887,1.736-2.657,2.567-2.918l0.023-0.007c0.402-0.122,0.834-0.117,1.216,0.014l11.408,3.898
		c1.492,0.51,0.873,2.006,0.641,2.569c-0.281,0.683-0.674,1.375-0.842,1.67C297.112,137.292,296.208,137.664,295.864,137.772
		 M284.976,132.267l10.012,3.42c0.33-0.39,0.795-1.07,1.162-1.719c0.541-0.954,0.778-1.51,0.878-1.82l-10.066-3.44
		c-0.213,0.262-0.548,0.748-1.049,1.64l-0.058,0.101C285.474,131.098,285.131,131.816,284.976,132.267 M284.271,132.025l0.003,0.001
		L284.271,132.025z"/>
	<path clip-path="url(#SVGID_2_)" fill="#232324" d="M287.608,150.474c-0.936,0.296-2.018,0.309-3.015-0.032l-6.956-2.377
		c-0.947-0.323-1.673-0.913-2.048-1.661c-0.374-0.747-0.351-1.563,0.066-2.296l4.723-8.326c-0.208-0.457-0.189-0.96,0.069-1.417
		s0.726-0.807,1.299-0.998l0.496-0.872l14.035,4.796l-0.494,0.873c0.205,0.457,0.187,0.96-0.07,1.416v0.001
		c-0.258,0.455-0.725,0.805-1.298,0.996l-4.722,8.326C289.271,149.646,288.508,150.19,287.608,150.474 M282.947,135.219l0.386,0.367
		l-5.294,9.336c-0.137,0.24-0.144,0.507-0.022,0.752c0.122,0.245,0.359,0.437,0.67,0.543l6.957,2.377
		c0.638,0.218,1.387-0.008,1.667-0.503l5.295-9.335l0.608-0.028l-0.384-0.367l0.019-0.033l-9.272-3.168l-0.018,0.032
		L282.947,135.219z"/>
	<path clip-path="url(#SVGID_2_)" fill="#232324" d="M301.383,124.159L292.136,121l3.566-6.263c0.215-0.412,0.709-0.874,1.47-0.966
		c0.392-0.047,1.157-0.024,1.872,0.663l0.02,0.021l4.969,5.03L301.383,124.159z M295.571,119.965l4.478,1.531l0.983-1.731
		l-3.393-3.434L295.571,119.965z"/>
	<path clip-path="url(#SVGID_2_)" fill="#232324" d="M297.774,131.755l-10.746-3.493l5.381-9.041l10.747,3.494L297.774,131.755z
		 M290.23,127.294l6.346,2.062l3.378-5.673l-6.346-2.063L290.23,127.294z"/>
	<path clip-path="url(#SVGID_2_)" fill="#232324" d="M313.256,116.378c0.019-0.006,0.039-0.013,0.057-0.019
		c9.554-3.333,15.586-8.142,18.441-14.698c0.303-0.695-0.179-1.449-1.071-1.683c-0.894-0.235-1.864,0.137-2.167,0.831
		c-2.531,5.813-7.954,10.105-16.577,13.119l-1.706,0.538c-0.876,0.276-1.295,1.05-0.94,1.729c0.355,0.68,1.353,1.007,2.229,0.731
		L313.256,116.378z"/>
	<path clip-path="url(#SVGID_2_)" fill="#232324" d="M342.884,84.733c-0.014-0.021-0.026-0.041-0.042-0.061
		c-0.016-0.02-0.025-0.041-0.041-0.062c-0.017-0.02-0.033-0.036-0.049-0.055c-0.006-0.007-0.013-0.014-0.019-0.021
		c-0.244-0.268-0.548-0.413-0.869-0.49c-0.021-0.006-0.043-0.011-0.063-0.016c-0.019-0.004-0.038-0.007-0.058-0.01
		c-0.021-0.004-0.043-0.007-0.063-0.011c-0.355-0.058-0.721-0.047-1.031-0.038c-3.751,0.117-8.617-1.603-13.321-3.266
		c-6.66-2.354-13.545-4.788-19.242-2.991c-6.666,2.104-10.837,5.627-12.371,7.101c-2.422-0.226-8.577-0.493-15.244,1.611
		c-5.695,1.796-8.443,7.269-11.098,12.561c-1.876,3.739-3.816,7.606-6.609,9.554c-0.23,0.161-0.5,0.35-0.704,0.584
		c-0.012,0.015-0.026,0.031-0.037,0.045c-0.011,0.012-0.021,0.024-0.03,0.037c-0.01,0.015-0.022,0.03-0.032,0.046
		c-0.161,0.229-0.249,0.498-0.182,0.821c0.002,0.008,0.004,0.016,0.006,0.024c0.005,0.022,0.007,0.044,0.014,0.067
		c0.006,0.022,0.017,0.044,0.025,0.066c0.007,0.022,0.016,0.044,0.025,0.066c0.016,0.038,0.035,0.073,0.056,0.109
		c0.012,0.021,0.023,0.042,0.036,0.063c0.023,0.035,0.048,0.069,0.075,0.103c0.016,0.019,0.031,0.04,0.047,0.059
		c0.031,0.033,0.064,0.065,0.1,0.098c0.017,0.016,0.031,0.032,0.049,0.046c0.054,0.046,0.11,0.087,0.171,0.126
		c0.015,0.009,0.032,0.018,0.046,0.026c0.049,0.03,0.1,0.058,0.151,0.083c0.005,0.002,0.011,0.005,0.016,0.008
		c0.223,0.102,0.467,0.2,0.726,0.289c2.467,0.849,4.995,2.388,7.923,4.171c4.847,2.951,10.686,6.499,18.599,8.055l1.461-2.454
		c-7.526-1.345-13.077-4.722-17.952-7.69c-1.819-1.107-3.577-2.177-5.319-3.066l19.047-3.859c0.011,0.002,0.02,0.002,0.031,0.004
		c0.096,0.012,0.197,0.026,0.3,0.043c0.019,0.003,0.038,0.006,0.057,0.009c0.107,0.018,0.218,0.039,0.333,0.061
		c0.015,0.004,0.029,0.007,0.043,0.01c0.116,0.023,0.236,0.049,0.358,0.077c0.009,0.001,0.017,0.003,0.026,0.005
		c0.125,0.028,0.255,0.059,0.388,0.09c0.022,0.006,0.043,0.011,0.064,0.016c0.128,0.032,0.259,0.065,0.393,0.1
		c0.028,0.006,0.057,0.014,0.085,0.021c0.13,0.034,0.264,0.069,0.399,0.105c0.035,0.009,0.069,0.019,0.104,0.028
		c0.133,0.035,0.268,0.071,0.404,0.108c0.054,0.015,0.107,0.03,0.161,0.043c0.086,0.024,0.173,0.048,0.261,0.072
		c0.042,0.012,0.084,0.023,0.127,0.035c1.03,0.281,2.18,0.595,3.423,0.881c0.178,0.041,0.356,0.082,0.539,0.121
		c4.463,0.974,9.066,0.712,13.133-0.57c4.068-1.283,7.6-3.589,9.923-6.702c0.096-0.127,0.188-0.253,0.277-0.378
		c0.633-0.877,1.176-1.725,1.66-2.485c0.02-0.03,0.039-0.059,0.058-0.088c0.045-0.07,0.089-0.14,0.133-0.208
		c0.023-0.035,0.045-0.07,0.066-0.105c0.067-0.104,0.133-0.205,0.198-0.305c0.015-0.023,0.03-0.045,0.044-0.067
		c0.065-0.102,0.131-0.201,0.195-0.298c0.013-0.019,0.027-0.038,0.038-0.057c0.066-0.098,0.13-0.194,0.194-0.286
		c0.012-0.015,0.021-0.029,0.031-0.043c0.066-0.096,0.133-0.189,0.197-0.278c0.004-0.006,0.007-0.011,0.011-0.015
		c0.064-0.087,0.127-0.17,0.189-0.251c0.008-0.01,0.016-0.019,0.023-0.028c0.062-0.079,0.123-0.153,0.184-0.225
		c0.011-0.012,0.021-0.025,0.031-0.037c0.059-0.069,0.118-0.133,0.177-0.194c0.006-0.006,0.012-0.012,0.019-0.018l17.115-7.548
		c-0.45,1.58-0.746,3.298-1.055,5.076c-1.459,8.43-3.275,18.92-22.764,25.689l-1.905,0.602c-4.807,1.367-9.071,2.024-12.905,2.171
		l3.31,1.075l-0.855,1.437c3.55-0.3,7.416-0.992,11.656-2.2c0.018-0.004,0.035-0.01,0.053-0.016l1.964-0.619
		c0.018-0.006,0.035-0.012,0.054-0.018c21.248-7.373,23.289-19.16,24.779-27.767c0.497-2.862,0.924-5.334,1.929-7.279
		c0.104-0.203,0.193-0.404,0.26-0.599c0.002-0.004,0.002-0.009,0.004-0.015c0.016-0.046,0.025-0.093,0.035-0.14
		c0.002-0.015,0.007-0.03,0.009-0.044c0.009-0.061,0.013-0.122,0.011-0.182c-0.002-0.021-0.006-0.042-0.008-0.062
		c-0.004-0.041-0.008-0.083-0.016-0.123c-0.006-0.023-0.014-0.045-0.02-0.068c-0.012-0.037-0.022-0.076-0.039-0.113
		c-0.008-0.022-0.02-0.042-0.029-0.064C342.925,84.805,342.906,84.769,342.884,84.733 M317.404,95.604
		c-0.068,0.099-0.133,0.196-0.2,0.295c-0.01,0.02-0.023,0.039-0.036,0.058c-0.138,0.206-0.273,0.419-0.415,0.637
		c-0.011,0.02-0.024,0.038-0.035,0.056c-0.068,0.107-0.138,0.214-0.207,0.323c-0.532,0.832-1.134,1.775-1.834,2.712
		c-3.866,5.18-11.753,7.668-19.179,6.049c-1.344-0.292-2.623-0.642-3.751-0.951c-0.006-0.001-0.013-0.003-0.02-0.005
		c-0.137-0.037-0.273-0.074-0.408-0.111c-0.03-0.007-0.06-0.016-0.09-0.025c-0.293-0.079-0.58-0.156-0.86-0.229
		c-0.03-0.008-0.06-0.016-0.091-0.023c-0.126-0.034-0.252-0.065-0.376-0.097c-0.011-0.001-0.021-0.004-0.03-0.007
		c1.096-1.057,2.572-2.306,4.067-3.126c0.007-0.003,0.014-0.007,0.02-0.012c0.122-0.066,0.242-0.128,0.364-0.189
		c0.119-0.059,0.238-0.115,0.356-0.167c0.02-0.008,0.039-0.017,0.059-0.025c0.093-0.041,0.186-0.078,0.279-0.114
		c0.029-0.012,0.059-0.023,0.088-0.034c0.112-0.042,0.224-0.082,0.334-0.117c0.437-0.138,0.99-0.244,1.64-0.316
		c0.126-0.014,0.256-0.027,0.389-0.039c0.334-0.029,0.668-0.066,1-0.107c0.877-0.11,1.747-0.261,2.604-0.458
		c0.034-0.008,0.067-0.017,0.099-0.023c0.204-0.048,0.407-0.095,0.608-0.149c0.086-0.021,0.172-0.046,0.259-0.07
		c0.38-0.102,0.759-0.211,1.134-0.33c1.837-0.585,3.595-1.371,5.22-2.34c0.596-0.356,1.142-0.613,1.623-0.765
		c0.109-0.035,0.224-0.066,0.341-0.097c0.033-0.008,0.066-0.017,0.101-0.024c0.092-0.023,0.188-0.044,0.283-0.065
		c0.031-0.006,0.06-0.013,0.09-0.018c0.123-0.025,0.249-0.048,0.377-0.069l0.082-0.011c0.105-0.017,0.214-0.033,0.323-0.046
		c0.039-0.004,0.076-0.01,0.116-0.015c0.118-0.014,0.238-0.027,0.359-0.039c0.019-0.001,0.035-0.003,0.054-0.005
		c0.14-0.013,0.28-0.023,0.423-0.032c0.039-0.003,0.076-0.005,0.113-0.008c0.113-0.006,0.226-0.013,0.339-0.018
		c0.038-0.001,0.073-0.004,0.112-0.006c0.146-0.005,0.291-0.009,0.438-0.013c0.017,0,0.032,0,0.049,0
		c0.134-0.002,0.265-0.004,0.396-0.004h0.125c0.122,0,0.242,0.001,0.365,0.003c0.027,0,0.057,0.001,0.086,0.001
		c0.147,0.002,0.295,0.006,0.44,0.01c0.035,0.001,0.07,0.003,0.103,0.004c0.118,0.004,0.234,0.009,0.35,0.015
		c0.04,0.001,0.079,0.003,0.119,0.004c0.289,0.015,0.577,0.031,0.858,0.051c0.037,0.003,0.075,0.005,0.112,0.008
		c0.109,0.008,0.219,0.018,0.325,0.026c0.032,0.002,0.065,0.004,0.098,0.008c0.134,0.011,0.266,0.022,0.394,0.035
		c0.007,0,0.013,0.001,0.02,0.001C317.405,95.602,317.404,95.604,317.404,95.604 M319.942,93.22
		c-0.038-0.005-0.079-0.012-0.12-0.017c-0.02-0.002-0.037-0.005-0.058-0.008c-0.074-0.011-0.152-0.021-0.234-0.032
		c-0.02-0.003-0.039-0.006-0.06-0.008c-0.063-0.009-0.127-0.017-0.196-0.025c-0.032-0.005-0.069-0.009-0.102-0.013
		c-0.061-0.008-0.121-0.015-0.183-0.023c-0.038-0.005-0.076-0.009-0.113-0.014c-0.064-0.007-0.129-0.015-0.196-0.022
		c-0.04-0.004-0.079-0.009-0.118-0.014c-0.074-0.009-0.152-0.016-0.228-0.025c-0.035-0.003-0.068-0.007-0.104-0.01
		c-0.112-0.011-0.227-0.024-0.345-0.035c-0.026-0.002-0.056-0.004-0.084-0.007c-0.092-0.009-0.184-0.017-0.277-0.026
		c-0.045-0.004-0.091-0.008-0.136-0.011c-0.082-0.007-0.164-0.014-0.249-0.021c-0.048-0.004-0.097-0.008-0.146-0.011
		c-0.083-0.006-0.167-0.013-0.251-0.02c-0.052-0.003-0.104-0.006-0.152-0.01c-0.095-0.006-0.19-0.012-0.285-0.018
		c-0.042-0.003-0.084-0.005-0.126-0.008c-0.137-0.008-0.276-0.015-0.417-0.021c-0.026-0.002-0.054-0.002-0.079-0.003
		c-0.116-0.005-0.231-0.011-0.349-0.015c-0.051-0.001-0.1-0.003-0.149-0.004c-0.097-0.003-0.191-0.005-0.289-0.007
		c-0.056-0.001-0.111-0.002-0.166-0.003c-0.095-0.002-0.188-0.003-0.285-0.004c-0.055,0-0.11,0-0.164-0.001
		c-0.104,0-0.21,0-0.313,0.001h-0.138c-0.15,0.001-0.3,0.004-0.45,0.008c-0.021,0-0.041,0-0.063,0.001
		c-0.13,0.003-0.259,0.007-0.389,0.012l-0.15,0.007c-0.103,0.005-0.201,0.011-0.302,0.016c-0.059,0.003-0.114,0.007-0.17,0.011
		c-0.097,0.006-0.192,0.013-0.289,0.021c-0.056,0.005-0.113,0.009-0.168,0.013c-0.102,0.009-0.206,0.02-0.306,0.03
		c-0.048,0.004-0.096,0.008-0.143,0.014c-0.146,0.016-0.294,0.033-0.439,0.053c-0.011,0.001-0.021,0.003-0.033,0.004
		c-0.135,0.019-0.269,0.038-0.401,0.06c-0.046,0.006-0.093,0.014-0.139,0.023c-0.097,0.016-0.192,0.033-0.287,0.051
		c-0.054,0.01-0.105,0.021-0.157,0.031c-0.091,0.018-0.18,0.036-0.269,0.056c-0.051,0.011-0.103,0.023-0.152,0.035
		c-0.094,0.022-0.185,0.045-0.275,0.068c-0.043,0.011-0.087,0.022-0.13,0.033c-0.132,0.037-0.263,0.075-0.391,0.114
		c-0.764,0.242-1.577,0.618-2.417,1.12c-0.689,0.412-1.405,0.783-2.143,1.114c-2.213,0.994-4.62,1.619-7.077,1.831
		c-0.709,0.061-1.361,0.154-1.951,0.279c-0.037,0.007-0.071,0.016-0.107,0.024c-0.128,0.029-0.252,0.058-0.375,0.089
		c-0.174,0.045-0.345,0.092-0.506,0.143c-0.128,0.041-0.255,0.084-0.382,0.13c-0.041,0.015-0.082,0.03-0.124,0.046
		c-0.086,0.032-0.172,0.065-0.259,0.1c-0.046,0.019-0.093,0.039-0.141,0.058c-0.08,0.034-0.161,0.068-0.242,0.104
		c-0.046,0.021-0.094,0.041-0.14,0.063c-0.084,0.038-0.168,0.078-0.252,0.119c-0.04,0.02-0.08,0.039-0.121,0.06
		c-0.113,0.057-0.227,0.114-0.339,0.174c-0.01,0.005-0.018,0.01-0.028,0.015c-0.122,0.065-0.243,0.132-0.362,0.2
		c-0.039,0.022-0.076,0.045-0.114,0.066c-0.082,0.048-0.165,0.096-0.248,0.146c-0.044,0.026-0.087,0.053-0.131,0.081
		c-0.075,0.047-0.151,0.093-0.226,0.141c-0.044,0.028-0.087,0.056-0.131,0.085c-0.077,0.05-0.154,0.101-0.23,0.151
		c-0.038,0.026-0.077,0.052-0.115,0.077c-0.097,0.066-0.194,0.133-0.291,0.201c-0.015,0.011-0.03,0.021-0.046,0.033
		c-0.111,0.079-0.221,0.159-0.329,0.238c-0.034,0.025-0.065,0.05-0.099,0.074c-0.075,0.056-0.15,0.112-0.224,0.169
		c-0.04,0.03-0.079,0.061-0.118,0.091c-0.067,0.052-0.133,0.104-0.199,0.157c-0.04,0.031-0.079,0.063-0.118,0.093
		c-0.067,0.054-0.134,0.108-0.199,0.161c-0.034,0.029-0.069,0.057-0.103,0.085c-0.081,0.066-0.16,0.133-0.238,0.199
		c-0.018,0.015-0.036,0.03-0.054,0.045c-0.094,0.081-0.188,0.162-0.279,0.242c-0.028,0.025-0.056,0.049-0.083,0.073
		c-0.063,0.056-0.126,0.111-0.189,0.167c-0.033,0.03-0.066,0.06-0.098,0.09c-0.056,0.05-0.11,0.1-0.165,0.149
		c-0.032,0.029-0.064,0.059-0.095,0.089c-0.055,0.05-0.106,0.1-0.159,0.149c-0.029,0.027-0.058,0.055-0.086,0.081
		c-0.061,0.058-0.12,0.114-0.177,0.169c-0.018,0.017-0.036,0.034-0.054,0.051c-0.074,0.072-0.145,0.142-0.215,0.211
		c-0.022,0.022-0.043,0.042-0.064,0.064c-0.048,0.048-0.096,0.095-0.141,0.141c-0.025,0.026-0.049,0.05-0.073,0.074
		c-0.042,0.042-0.081,0.083-0.12,0.123c-0.023,0.024-0.046,0.047-0.068,0.071c-0.038,0.039-0.074,0.077-0.11,0.115
		c-0.021,0.021-0.042,0.043-0.062,0.064c-0.041,0.044-0.08,0.085-0.118,0.125c-0.012,0.012-0.024,0.025-0.036,0.037
		c-0.049,0.052-0.095,0.103-0.138,0.149c-0.013,0.014-0.022,0.025-0.035,0.038c-0.024,0.026-0.048,0.053-0.071,0.078l-17.817,3.61
		c1.755-2.225,3.123-4.95,4.459-7.614c2.394-4.77,4.868-9.701,9.201-11.067c7.427-2.343,14.31-1.352,14.375-1.341
		c0.668,0.102,1.349-0.113,1.737-0.548c0.038-0.045,4.03-4.465,11.503-6.822c4.332-1.368,10.538,0.826,16.539,2.947
		c3.354,1.186,6.782,2.397,10.04,3.041L319.942,93.22z"/>
</g>
</svg>
