<?xml version="1.0" encoding="utf-8"?>
<!-- Generator: Adobe Illustrator 16.0.0, SVG Export Plug-In . SVG Version: 6.00 Build 0)  -->
<!DOCTYPE svg PUBLIC "-//W3C//DTD SVG 1.1//EN" "http://www.w3.org/Graphics/SVG/1.1/DTD/svg11.dtd">
<svg version="1.1" id="Capa_1" xmlns="http://www.w3.org/2000/svg" xmlns:xlink="http://www.w3.org/1999/xlink" x="0px" y="0px"
	 width="100px" height="100px" viewBox="0 0 100 100" enable-background="new 0 0 100 100" xml:space="preserve">
<path fill="#595A5C" d="M69.184,29.266l-0.49,1.076c-0.521,1.138-1.556,1.874-2.765,1.961c-1.327,0.104-2.573-0.608-3.412-1.94
	c-0.556-0.892-0.623-2.071-0.167-3.067l0.631-1.371l-8.966-4.826l-6.521,14.262l-2.102-5.17l-9.159,4.38l0.445,1.099
	c0.473,1.163,0.33,2.496-0.38,3.558c-0.785,1.176-2.082,1.75-3.56,1.597c-0.989-0.105-1.858-0.805-2.275-1.826l-0.568-1.396
	l-9.158,4.38l15.806,38.911l9.161-4.387l-0.445-1.098c-0.239-0.586-0.324-1.225-0.246-1.861c0.153-1.289,0.949-2.424,2.07-2.961
	c1.121-0.533,2.427-0.408,3.41,0.342c0.483,0.365,0.862,0.871,1.102,1.453l0.445,1.094l5.882-2.813l2.809,1.523l17.418-38.096
	L69.184,29.266z M54.837,23.754l5.718,3.074c-0.56,1.542-0.395,3.284,0.457,4.643c1.189,1.904,3.071,2.954,5.037,2.808
	c1.59-0.117,3.03-1.014,3.912-2.387l5.745,3.091l-15.021,32.85L48.45,37.717L54.837,23.754z M55.793,69.521l-2.865,1.371
	c-0.356-0.617-0.829-1.16-1.39-1.583c-1.497-1.144-3.488-1.347-5.188-0.533c-1.705,0.814-2.907,2.548-3.145,4.517
	c-0.091,0.736-0.04,1.479,0.145,2.182l-5.872,2.809L23.142,42.995l5.837-2.795c0.737,1.455,2.074,2.434,3.579,2.592
	c2.116,0.234,4.063-0.671,5.217-2.401c0.935-1.399,1.225-3.174,0.813-4.787l5.87-2.804l1.979,4.867l0.957,2.358l11.4,28.062
	l-0.828,0.398L55.793,69.521z"/>
</svg>
