<?xml version="1.0" encoding="utf-8"?>
<!-- Generator: Adobe Illustrator 16.0.0, SVG Export Plug-In . SVG Version: 6.00 Build 0)  -->
<!DOCTYPE svg PUBLIC "-//W3C//DTD SVG 1.1//EN" "http://www.w3.org/Graphics/SVG/1.1/DTD/svg11.dtd">
<svg version="1.1" id="Capa_1" xmlns="http://www.w3.org/2000/svg" xmlns:xlink="http://www.w3.org/1999/xlink" x="0px" y="0px"
	 width="100px" height="100px" viewBox="0 0 100 100" enable-background="new 0 0 100 100" xml:space="preserve">
<path fill="#595A5C" d="M59.433,38.851c0.99-0.492,1.927-1.021,2.715-1.631c2.438-1.88,3.66-4.428,3.353-6.979
	c-0.263-2.209-1.653-4.08-3.626-4.889c-2.378-0.97-5.068-0.266-7.374,1.935c-1.943,1.862-3.533,4.342-4.988,6.987
	c-1.282-2.137-2.715-4.259-4.55-6.247c-2.242-2.433-5.03-3.337-7.457-2.421c-2.026,0.767-3.438,2.655-3.679,4.925
	c-0.29,2.737,1.146,5.41,3.95,7.334c0.545,0.375,1.104,0.684,1.659,0.985h-10.96v38.835h42.384V38.851H59.433z M56.515,30.073
	c1.422-1.334,2.974-1.804,4.26-1.288c0.907,0.362,1.545,1.192,1.666,2.159c0.158,1.277-0.601,2.649-2.079,3.771
	c-2.024,1.53-5.238,2.783-8.809,3.183c-0.062-0.11-0.128-0.22-0.188-0.33C52.94,34.611,54.538,31.927,56.515,30.073 M36.405,30.945
	c0.12-0.967,0.763-1.797,1.672-2.159c1.282-0.517,2.835-0.047,4.257,1.288c1.979,1.854,3.577,4.538,5.153,7.496
	c-0.061,0.11-0.127,0.22-0.196,0.33c-3.563-0.399-6.777-1.653-8.799-3.183C37.014,33.594,36.251,32.222,36.405,30.945 M68.719,75.07
	H30.618V41.467H45.77c-1.797,3.353-3.766,6.453-6.275,8.219l1.66,2.775c3.509-2.466,5.909-6.689,8.126-10.995h0.782
	c2,3.426,4.308,6.917,8.008,10.36l1.985-2.511c-2.761-2.567-4.693-5.212-6.336-7.849h14.999V75.07z"/>
</svg>
