<?xml version="1.0" encoding="utf-8"?>
<!-- Generator: Adobe Illustrator 16.0.0, SVG Export Plug-In . SVG Version: 6.00 Build 0)  -->
<!DOCTYPE svg PUBLIC "-//W3C//DTD SVG 1.1//EN" "http://www.w3.org/Graphics/SVG/1.1/DTD/svg11.dtd">
<svg version="1.1" id="Capa_1" xmlns="http://www.w3.org/2000/svg" xmlns:xlink="http://www.w3.org/1999/xlink" x="0px" y="0px"
	 width="100px" height="100px" viewBox="0 0 100 100" enable-background="new 0 0 100 100" xml:space="preserve">
<path fill="#595A5C" d="M59.046,50.3H40.433l-0.012-0.83c0-3.788,1.813-7.296,4.724-9.172l0.42-0.266l0.36,0.358
	c1.059,1.046,2.416,1.621,3.814,1.621c1.4,0,2.753-0.575,3.813-1.621l0.361-0.358l0.418,0.266c2.915,1.876,4.723,5.384,4.723,9.172
	L59.046,50.3z M41.758,48.866h15.961c-0.165-2.875-1.529-5.504-3.663-7.063c-1.241,1.059-2.755,1.638-4.316,1.638
	c-1.564,0-3.078-0.58-4.313-1.638C43.29,43.362,41.927,45.991,41.758,48.866"/>
<path fill="#595A5C" d="M49.739,40.746c-1.337,0-2.577-0.604-3.488-1.708c-0.825-1-1.278-2.305-1.278-3.668
	c0-2.966,2.135-5.373,4.767-5.373c2.631,0,4.771,2.407,4.771,5.373c0,1.363-0.457,2.668-1.282,3.668
	C52.315,40.142,51.076,40.746,49.739,40.746 M49.739,31.425c-1.901,0-3.453,1.771-3.453,3.945c0,1.014,0.338,1.976,0.946,2.714
	c0.66,0.795,1.55,1.237,2.507,1.237c0.96,0,1.847-0.441,2.507-1.237c0.611-0.738,0.945-1.701,0.945-2.714
	C53.191,33.196,51.645,31.425,49.739,31.425"/>
<path fill="#595A5C" d="M49.739,77.816c-0.776,0-1.491-0.35-2.021-0.992c-0.473-0.568-0.733-1.318-0.733-2.107
	c0-1.701,1.232-3.088,2.754-3.088s2.756,1.387,2.756,3.088c0,0.789-0.264,1.539-0.736,2.107
	C51.234,77.467,50.515,77.816,49.739,77.816 M49.739,73.057c-0.792,0-1.44,0.748-1.44,1.66c0,0.436,0.146,0.846,0.399,1.156
	c0.275,0.33,0.645,0.512,1.041,0.512c0.396,0,0.765-0.182,1.04-0.512c0.257-0.311,0.399-0.721,0.399-1.156
	C51.179,73.805,50.534,73.057,49.739,73.057"/>
<path fill="#595A5C" d="M49.739,61.02c-9.302,0-16.872-8.561-16.872-19.09c0-10.521,7.57-19.088,16.872-19.088
	c9.3,0,16.872,8.567,16.872,19.088C66.611,52.459,59.039,61.02,49.739,61.02 M49.739,24.988c-8.212,0-14.894,7.602-14.894,16.942
	c0,9.348,6.682,16.946,14.894,16.946s14.896-7.599,14.896-16.946C64.635,32.589,57.951,24.988,49.739,24.988"/>
<rect x="49.246" y="62.343" fill="#595A5C" width="0.986" height="8.264"/>
<path fill="#595A5C" d="M28.277,68.162c-0.73,0-1.403-0.298-1.913-0.855c-0.55-0.59-0.831-1.391-0.788-2.246
	c0.037-0.77,0.342-1.502,0.854-2.055c0.532-0.578,1.236-0.907,1.98-0.924c0.753-0.021,1.461,0.289,1.981,0.85
	c0.527,0.57,0.804,1.336,0.788,2.154c-0.016,0.801-0.319,1.57-0.854,2.151c-0.51,0.546-1.182,0.88-1.892,0.921
	C28.38,68.162,28.329,68.162,28.277,68.162 M27.292,66.299c0.281,0.305,0.662,0.451,1.072,0.434c0.386-0.023,0.748-0.203,1.03-0.512
	c0.294-0.313,0.459-0.725,0.468-1.168c0.009-0.419-0.135-0.818-0.399-1.103c-0.27-0.293-0.633-0.448-1.021-0.44
	c-0.402,0.009-0.788,0.192-1.08,0.51c-0.279,0.305-0.448,0.699-0.469,1.119C26.87,65.582,27.013,65.992,27.292,66.299"/>
<polygon fill="#595A5C" points="31.407,62.591 30.709,61.834 36.097,55.99 36.792,56.748 "/>
<path fill="#595A5C" d="M19.528,44.936c-0.722,0-1.408-0.287-1.938-0.801c-0.587-0.569-0.91-1.348-0.91-2.191
	c0-0.838,0.323-1.621,0.91-2.187c0.53-0.517,1.217-0.8,1.938-0.8c1.571,0,2.851,1.34,2.851,2.986
	C22.379,43.594,21.1,44.936,19.528,44.936 M19.528,40.385c-0.396,0-0.771,0.155-1.06,0.434c-0.304,0.295-0.473,0.696-0.473,1.125
	c0,0.434,0.169,0.83,0.473,1.129c0.289,0.279,0.664,0.434,1.06,0.434c0.846,0,1.534-0.7,1.534-1.563
	C21.063,41.086,20.374,40.385,19.528,40.385"/>
<rect x="23.322" y="41.409" fill="#595A5C" width="7.615" height="1.07"/>
<path fill="#595A5C" d="M79.951,44.936c-1.576,0-2.852-1.341-2.852-2.992c0-1.646,1.275-2.986,2.852-2.986
	c0.721,0,1.411,0.283,1.937,0.8c0.592,0.565,0.914,1.348,0.914,2.187c0,0.843-0.322,1.622-0.914,2.191
	C81.362,44.648,80.672,44.936,79.951,44.936 M79.951,40.385c-0.848,0-1.534,0.701-1.534,1.559c0,0.863,0.687,1.563,1.534,1.563
	c0.395,0,0.773-0.155,1.058-0.434c0.305-0.299,0.473-0.696,0.473-1.129c0-0.429-0.168-0.83-0.473-1.125
	C80.725,40.54,80.346,40.385,79.951,40.385"/>
<rect x="68.542" y="41.409" fill="#595A5C" width="7.614" height="1.07"/>
<path fill="#595A5C" d="M71.197,68.162c-0.046,0-0.102,0-0.158-0.004c-0.704-0.041-1.376-0.375-1.885-0.921
	c-0.536-0.581-0.837-1.351-0.852-2.151c-0.023-0.818,0.259-1.584,0.778-2.154c0.525-0.561,1.232-0.87,1.985-0.85
	c0.746,0.017,1.447,0.346,1.98,0.924c0.514,0.553,0.813,1.285,0.851,2.055c0.046,0.855-0.231,1.656-0.78,2.246
	C72.608,67.864,71.933,68.162,71.197,68.162 M71.003,63.51c-0.38,0-0.728,0.155-0.983,0.432c-0.27,0.293-0.413,0.692-0.405,1.111
	c0.013,0.443,0.178,0.854,0.465,1.168c0.286,0.309,0.654,0.488,1.036,0.512c0.413,0.018,0.792-0.129,1.069-0.434
	c0.28-0.307,0.424-0.717,0.4-1.16c-0.022-0.42-0.187-0.814-0.464-1.119c-0.294-0.317-0.68-0.501-1.082-0.51H71.003z"/>
<polygon fill="#595A5C" points="68.069,62.591 62.684,56.748 63.385,55.99 68.769,61.834 "/>
</svg>
