<?xml version="1.0" encoding="utf-8"?>
<!-- Generator: Adobe Illustrator 16.0.0, SVG Export Plug-In . SVG Version: 6.00 Build 0)  -->
<!DOCTYPE svg PUBLIC "-//W3C//DTD SVG 1.1//EN" "http://www.w3.org/Graphics/SVG/1.1/DTD/svg11.dtd">
<svg version="1.1" id="Capa_1" xmlns="http://www.w3.org/2000/svg" xmlns:xlink="http://www.w3.org/1999/xlink" x="0px" y="0px"
	 width="100px" height="100px" viewBox="0 0 100 100" enable-background="new 0 0 100 100" xml:space="preserve">
<path fill="#595959" d="M49.495,24.661c-13.431,0-24.317,11.816-24.317,26.384c0,14.574,10.887,26.383,24.317,26.383
	c13.433,0,24.317-11.809,24.317-26.383C73.813,36.477,62.928,24.661,49.495,24.661 M49.495,73.475
	c-11.414,0-20.669-10.045-20.669-22.43c0-12.387,9.255-22.429,20.669-22.429c11.419,0,20.671,10.042,20.671,22.429
	C70.166,63.43,60.914,73.475,49.495,73.475"/>
<path fill="#595959" d="M56.913,48.725h-5.277v-5.722c0-0.683-0.513-1.236-1.139-1.236h-2.005c-0.626,0-1.137,0.554-1.137,1.236
	v5.722h-5.276c-0.627,0-1.133,0.554-1.133,1.237v2.172c0,0.676,0.506,1.229,1.133,1.229h5.276v5.73c0,0.676,0.511,1.229,1.137,1.229
	h2.005c0.626,0,1.139-0.553,1.139-1.229v-5.73h5.277c0.621,0,1.136-0.553,1.136-1.229v-2.172
	C58.049,49.279,57.534,48.725,56.913,48.725"/>
</svg>
