<?xml version="1.0" encoding="utf-8"?>
<!-- Generator: Adobe Illustrator 16.0.0, SVG Export Plug-In . SVG Version: 6.00 Build 0)  -->
<!DOCTYPE svg PUBLIC "-//W3C//DTD SVG 1.1//EN" "http://www.w3.org/Graphics/SVG/1.1/DTD/svg11.dtd">
<svg version="1.1" id="Capa_1" xmlns="http://www.w3.org/2000/svg" xmlns:xlink="http://www.w3.org/1999/xlink" x="0px" y="0px"
	 width="100px" height="100px" viewBox="0 0 100 100" enable-background="new 0 0 100 100" xml:space="preserve">
<path fill="#595A5C" d="M62.712,74.803c-0.301-0.08-0.616-0.049-0.879,0.123c-0.435,0.268-0.884,0.521-1.342,0.764l-0.323,0.172
	c-2.045,1.033-4.099,1.734-6.199,2.141c-0.571,0.105-1.076,0.178-1.576,0.244c-11.469,1.398-22.378-6.096-26.194-17.799l-0.15-0.488
	c-0.835-2.719-1.261-5.566-1.261-8.463c0-2.897,0.426-5.763,1.264-8.497l0.212-0.643c2.933-8.578,9.402-14.853,17.376-16.993
	l0.252-0.064c1.933-0.48,3.755-0.709,5.58-0.717l1.114-0.009l0.02,2.751l4.373-4.02l-4.429-3.979l0.021,2.742l-1.125,0.008
	c-7.187,0.041-13.938,3.101-19.023,8.618c-0.5,0.546-0.977,1.107-1.431,1.685c-4.098,5.209-6.318,11.499-6.497,18.255l-0.019,0.837
	c0,0.375,0.007,0.75,0.021,1.115c0.239,6.268,2.18,12.053,5.628,16.879c0.364,0.52,0.727,0.992,1.087,1.441
	c0.438,0.527,0.814,0.967,1.21,1.391c4.01,4.354,9.062,7.186,14.597,8.203c5.747,1.025,11.08,0.18,16.026-2.328l0.335-0.178
	c0.614-0.318,1.11-0.594,1.582-0.895c0.274-0.164,0.465-0.432,0.552-0.758c0.078-0.318,0.042-0.66-0.108-0.945
	C63.255,75.104,63.003,74.893,62.712,74.803"/>
<path fill="#595A5C" d="M69.739,36.822c0.507,0.822,1.608,1.066,2.371,0.506c0.788-0.57,0.992-1.726,0.466-2.581
	c-0.309-0.504-0.64-1-0.977-1.48c-0.574-0.822-1.654-0.969-2.407-0.35c-0.364,0.301-0.593,0.739-0.657,1.229
	c-0.061,0.488,0.064,0.977,0.342,1.375C69.172,35.943,69.466,36.383,69.739,36.822"/>
<path fill="#595A5C" d="M72.688,43.438c0.148,0.513,0.284,1.025,0.407,1.546c0.229,0.97,1.166,1.596,2.083,1.345
	c0.441-0.122,0.813-0.424,1.049-0.854c0.233-0.424,0.301-0.92,0.188-1.409c-0.14-0.586-0.294-1.179-0.466-1.758
	c-0.144-0.472-0.442-0.854-0.848-1.082c-0.405-0.228-0.866-0.27-1.304-0.113C72.901,41.42,72.402,42.471,72.688,43.438"/>
<path fill="#595A5C" d="M70.339,68.537c-0.306-0.293-0.705-0.455-1.11-0.455c-0.044,0-0.085,0.008-0.127,0.008
	c-0.458,0.031-0.869,0.26-1.17,0.635c-0.322,0.406-0.659,0.805-0.998,1.18c-0.322,0.359-0.494,0.822-0.487,1.326
	c0,0.488,0.188,0.951,0.511,1.303c0.659,0.699,1.784,0.674,2.422-0.033c0.392-0.432,0.773-0.887,1.141-1.342
	c0.614-0.773,0.54-1.953-0.172-2.621H70.339z"/>
<path fill="#595A5C" d="M75.606,50.502c-0.021,0-0.035,0-0.053,0c-0.437,0-0.848,0.18-1.17,0.503
	c-0.332,0.344-0.525,0.799-0.538,1.295c-0.015,0.537-0.044,1.076-0.085,1.604c-0.046,0.498,0.09,0.977,0.386,1.359
	c0.293,0.383,0.7,0.617,1.159,0.658c0.06,0.01,0.108,0.01,0.157,0.01c0.877,0,1.619-0.742,1.703-1.693
	c0.052-0.602,0.083-1.221,0.098-1.822c0.015-0.496-0.15-0.969-0.466-1.326C76.49,50.722,76.063,50.519,75.606,50.502"/>
<path fill="#595A5C" d="M74.412,60.018c-0.202-0.092-0.416-0.131-0.623-0.131c-0.681,0-1.335,0.445-1.598,1.178
	c-0.179,0.498-0.375,0.994-0.581,1.475c-0.394,0.936-0.021,2.035,0.837,2.465c0.84,0.432,1.891,0,2.273-0.902
	c0.231-0.555,0.458-1.115,0.659-1.686c0.17-0.455,0.157-0.959-0.022-1.416C75.17,60.545,74.84,60.195,74.412,60.018"/>
<path fill="#595A5C" d="M66.079,27.374c-0.449-0.365-0.923-0.716-1.392-1.05c-0.277-0.195-0.6-0.301-0.928-0.301
	c-0.119,0-0.238,0.016-0.354,0.049c-0.451,0.098-0.837,0.382-1.085,0.797c-0.513,0.863-0.288,2.011,0.504,2.572
	c0.412,0.293,0.823,0.594,1.215,0.911c0.735,0.595,1.854,0.415,2.393-0.383c0.277-0.398,0.386-0.886,0.322-1.383
	C66.684,28.098,66.439,27.667,66.079,27.374"/>
<path fill="#595A5C" d="M49.955,36.367l-3.518,7.878c-0.754,1.684-0.862,3.589-0.288,5.371c0.094,0.301,0.228,0.618,0.4,0.976
	L47,51.527l-0.96,0.172c-2.086,0.365-3.881,1.814-4.802,3.857l-3.518,7.879l-2.213-1.164l-0.562,1.252l16.09,8.455l0.558-1.252
	l-2.215-1.164l3.51-7.879c0.758-1.684,0.862-3.588,0.292-5.363c-0.098-0.301-0.225-0.625-0.396-0.975l-0.459-0.936l0.96-0.172
	c0.375-0.064,0.743-0.162,1.097-0.301c1.635-0.611,2.95-1.881,3.702-3.573l3.518-7.871l2.111,1.108l0.559-1.254l-16.09-8.455
	l-0.559,1.253L49.955,36.367z M51.737,61.074l-3.518,7.877l-9.336-4.906l3.518-7.877c1.246-2.785,4.344-3.947,6.905-2.621
	l0.168,0.098c1.179,0.668,2.063,1.781,2.49,3.133C52.424,58.193,52.34,59.723,51.737,61.074 M60.445,41.883l-3.518,7.878
	c-0.604,1.352-1.657,2.37-2.967,2.866c-0.556,0.203-1.125,0.309-1.702,0.309c-0.773,0-1.523-0.186-2.229-0.545l-0.191-0.113
	c-1.163-0.658-2.043-1.775-2.478-3.126c-0.459-1.424-0.375-2.944,0.231-4.296l3.518-7.878L60.445,41.883z"/>
<path fill="#595A5C" d="M47.985,33.274l-0.929,2.084l2.333,1.22l-3.335,7.464c-0.802,1.798-0.914,3.825-0.308,5.72
	c0.104,0.326,0.248,0.668,0.428,1.042l0.177,0.375l-0.38,0.064c-2.228,0.398-4.132,1.93-5.108,4.119l-3.338,7.461l-2.215-1.162
	l-0.932,2.076l16.851,8.861l0.928-2.084l-2.221-1.162l3.335-7.465c0.802-1.797,0.914-3.832,0.312-5.719
	c-0.109-0.334-0.245-0.668-0.424-1.033l-0.182-0.377l0.384-0.064c0.39-0.072,0.779-0.178,1.158-0.316
	c1.736-0.66,3.144-2.012,3.946-3.808l3.329-7.463l2.108,1.106l0.931-2.076 M48.182,33.893l16.09,8.455l-0.563,1.254l-2.106-1.108
	l-3.518,7.871c-0.752,1.692-2.067,2.961-3.699,3.573c-0.353,0.139-0.725,0.236-1.096,0.301l-0.96,0.172l0.455,0.936
	c0.172,0.35,0.302,0.674,0.396,0.975c0.566,1.775,0.466,3.68-0.292,5.363l-3.52,7.879l2.221,1.164l-0.554,1.252l-16.092-8.455
	l0.56-1.252l2.221,1.164l3.518-7.879c0.913-2.043,2.708-3.492,4.798-3.857L47,51.527l-0.454-0.936
	c-0.169-0.357-0.299-0.675-0.4-0.983c-0.567-1.774-0.466-3.68,0.292-5.363l3.518-7.878l-2.332-1.221L48.182,33.893z"/>
</svg>
