<?xml version="1.0" encoding="utf-8"?>
<!-- Generator: Adobe Illustrator 16.0.0, SVG Export Plug-In . SVG Version: 6.00 Build 0)  -->
<!DOCTYPE svg PUBLIC "-//W3C//DTD SVG 1.1//EN" "http://www.w3.org/Graphics/SVG/1.1/DTD/svg11.dtd">
<svg version="1.1" id="Capa_1" xmlns="http://www.w3.org/2000/svg" xmlns:xlink="http://www.w3.org/1999/xlink" x="0px" y="0px"
	 width="100px" height="100px" viewBox="0 0 100 100" enable-background="new 0 0 100 100" xml:space="preserve">
<path fill="#595959" d="M66.396,28.046v-3.398H54.432v3.398H44.287v-3.398h-11.96v3.398h-5.048v47.918h44.166V28.046H66.396z
	 M69.831,74.215h-40.94V29.8h40.94V74.215z"/>
<path fill="#595959" d="M37.502,71.879h1.613v-7.012h9.442v7.012h1.606v-7.012h9.444v7.012h1.612v-7.012h6.459v-1.742h-6.459V52.88
	h6.459v-1.749h-6.459V40.884h6.459v-1.745h-6.459v-7.011h-1.612v7.011h-9.444v-7.011h-1.606v7.011h-9.442v-7.011h-1.613v7.011
	h-6.457v1.745h6.457v10.247h-6.457v1.749h6.457v10.245h-6.457v1.742h6.457V71.879z M59.608,63.125h-9.437V52.88h9.437V63.125z
	 M59.608,51.131h-9.437V40.884h9.437V51.131z M39.115,40.884h9.436v10.247h-9.436V40.884z M39.115,52.88h9.436v10.245h-9.436V52.88z
	"/>
</svg>
