<?xml version="1.0" encoding="utf-8"?>
<!-- Generator: Adobe Illustrator 16.0.0, SVG Export Plug-In . SVG Version: 6.00 Build 0)  -->
<!DOCTYPE svg PUBLIC "-//W3C//DTD SVG 1.1//EN" "http://www.w3.org/Graphics/SVG/1.1/DTD/svg11.dtd">
<svg version="1.1" id="Capa_1" xmlns="http://www.w3.org/2000/svg" xmlns:xlink="http://www.w3.org/1999/xlink" x="0px" y="0px"
	 width="100px" height="100px" viewBox="0 0 100 100" enable-background="new 0 0 100 100" xml:space="preserve">
<path fill="none" stroke="#B9B8B8" stroke-width="0.7" stroke-miterlimit="10" d="M78.418,50.936
	c0,17.261-12.893,31.25-28.803,31.25s-28.805-13.988-28.805-31.25c0-17.262,12.895-31.251,28.805-31.251
	S78.418,33.674,78.418,50.936z"/>
<path fill="#B9B8B8" d="M48.603,43.482h3.976c1.223,0,2.138,1.281,1.879,2.645c-1.023,5.391-3.668,16.667-2.704,17.758
	c0.389,0.443,1.471,0.35,2.266,0.215c0.308-0.053,0.494,0.357,0.28,0.609c-1.878,2.211-7.258,7.805-10.078,3.223
	c-2.819-4.568,1.146-18.444,2.567-22.99C47.062,44.067,47.784,43.482,48.603,43.482"/>
<path fill="#B9B8B8" d="M55.998,37.105c0,2.718-2.032,4.92-4.537,4.92c-2.507,0-4.532-2.202-4.532-4.92s2.025-4.92,4.532-4.92
	C53.966,32.185,55.998,34.387,55.998,37.105"/>
</svg>
