<?xml version="1.0" encoding="utf-8"?>
<!-- Generator: Adobe Illustrator 16.0.0, SVG Export Plug-In . SVG Version: 6.00 Build 0)  -->
<!DOCTYPE svg PUBLIC "-//W3C//DTD SVG 1.1//EN" "http://www.w3.org/Graphics/SVG/1.1/DTD/svg11.dtd">
<svg version="1.1" id="Capa_1" xmlns="http://www.w3.org/2000/svg" xmlns:xlink="http://www.w3.org/1999/xlink" x="0px" y="0px"
	 width="100px" height="100px" viewBox="0 0 100 100" enable-background="new 0 0 100 100" xml:space="preserve">
<path fill="#595959" d="M56.935,26.038c-4.698-3.688-10.855-3.663-15.594,0.049c-4.514,3.54-6.563,9.83-4.709,15.486
	c2.465,7.528,6.686,13.892,11.725,19.654c0.219,0.254,0.545,0.391,1.007,0.717c5.376-5.957,9.808-12.575,12.38-20.443
	C63.593,35.86,61.48,29.602,56.935,26.038 M49.198,46.822c-4.889,0.017-8.765-4.206-8.781-9.563c-0.018-5.403,3.793-9.578,8.73-9.57
	c4.916,0.009,8.826,4.216,8.83,9.515C57.984,42.493,54.044,46.805,49.198,46.822"/>
<path fill="#595959" d="M71.128,52.129H58.979c-0.379,0.699-0.781,1.398-1.197,2.084h13.346c1.639,0,2.967,1.375,2.967,3.066v16.684
	c0,1.686-1.328,3.068-2.967,3.068h-43.37c-1.636,0-2.965-1.383-2.965-3.068V57.279c0-1.691,1.329-3.066,2.965-3.066h13.339
	c-0.415-0.686-0.81-1.385-1.194-2.084H27.758c-2.745,0-4.98,2.311-4.98,5.15v16.684c0,2.84,2.235,5.152,4.98,5.152h43.37
	c2.749,0,4.98-2.313,4.98-5.152V57.279C76.108,54.439,73.877,52.129,71.128,52.129"/>
</svg>
