<?xml version="1.0" encoding="utf-8"?>
<!-- Generator: Adobe Illustrator 16.0.0, SVG Export Plug-In . SVG Version: 6.00 Build 0)  -->
<!DOCTYPE svg PUBLIC "-//W3C//DTD SVG 1.1//EN" "http://www.w3.org/Graphics/SVG/1.1/DTD/svg11.dtd">
<svg version="1.1" id="Capa_1" xmlns="http://www.w3.org/2000/svg" xmlns:xlink="http://www.w3.org/1999/xlink" x="0px" y="0px"
	 width="100px" height="100px" viewBox="0 0 100 100" enable-background="new 0 0 100 100" xml:space="preserve">
<path fill="#595959" d="M75.992,49.349c-6.99-9.594-16.314-14.875-26.244-14.875c-9.931,0-19.25,5.281-26.243,14.875l-0.692,0.944
	l0.692,0.945c6.993,9.596,16.312,14.877,26.243,14.877c9.929,0,19.253-5.281,26.244-14.877 M41.859,58.852
	c-4.346-4.721-4.346-12.394,0-17.111c2.11-2.291,4.909-3.548,7.89-3.548c2.98,0,5.779,1.257,7.889,3.548
	c2.107,2.282,3.267,5.321,3.267,8.553c0,3.232-1.159,6.271-3.267,8.558C53.285,63.572,46.211,63.572,41.859,58.852 M26.413,50.293
	c3.917-5.078,8.549-8.744,13.569-10.808c-0.037,0.033-0.07,0.062-0.104,0.098c-5.445,5.904-5.445,15.516,0,21.42
	c0.034,0.037,0.067,0.064,0.104,0.102C34.962,59.037,30.33,55.377,26.413,50.293 M59.512,61.105
	c0.039-0.037,0.076-0.064,0.105-0.102c2.641-2.861,4.088-6.666,4.088-10.71c0-4.045-1.447-7.85-4.088-10.71
	c-0.029-0.036-0.066-0.064-0.105-0.098c5.023,2.063,9.658,5.729,13.57,10.808C69.17,55.377,64.535,59.037,59.512,61.105"/>
<path fill="#595959" d="M49.75,45.045c-2.672,0-4.834,2.343-4.834,5.245c0,2.897,2.162,5.249,4.834,5.249
	c2.669,0,4.835-2.352,4.835-5.249C54.586,47.388,52.42,45.045,49.75,45.045"/>
</svg>
