<?xml version="1.0" encoding="utf-8"?>
<!-- Generator: Adobe Illustrator 16.0.0, SVG Export Plug-In . SVG Version: 6.00 Build 0)  -->
<!DOCTYPE svg PUBLIC "-//W3C//DTD SVG 1.1//EN" "http://www.w3.org/Graphics/SVG/1.1/DTD/svg11.dtd">
<svg version="1.1" id="Capa_1" xmlns="http://www.w3.org/2000/svg" xmlns:xlink="http://www.w3.org/1999/xlink" x="0px" y="0px"
	 width="183.711px" height="183.711px" viewBox="0 0 183.711 183.711" enable-background="new 0 0 183.711 183.711"
	 xml:space="preserve">
<path fill="#791855" d="M57.654,89.148l-4.248-6.555c-0.451-0.697-0.254-1.61,0.424-2.09c8.255-5.831,14.839-15.386,20.884-25.725
	c0.548-0.938-0.036-2.117-1.108-2.285c-8.738-1.368-18.175-4.312-27.138-9.989c-9.983-6.323-15.116-15.108-14.081-24.104
	c0.857-7.454,5.88-13.649,13.107-16.17c8.651-3.015,18.591-0.041,26.588,7.956c5.902,5.901,10.646,12.171,14.891,18.505
	c0.625,0.934,1.994,0.903,2.58-0.055c4.846-7.915,10.158-15.269,16.537-20.883c8.217-7.23,17.792-9.546,26.271-6.354
	c7.034,2.648,11.988,8.8,12.928,16.052c1.091,8.4-3.262,16.756-11.941,22.925c-7.505,5.336-17.941,9.409-29.152,11.517
	c-1.086,0.204-1.629,1.44-1.011,2.356c5.649,8.349,12.284,16.731,21.55,24.878c0.629,0.554,0.711,1.509,0.166,2.146l-5.084,5.933
	c-0.555,0.646-1.543,0.717-2.183,0.154c-12.576-11.032-20.532-22.206-27.476-33.169c-0.285-0.451-0.776-0.716-1.312-0.705
	c-0.006,0.002-0.012,0.002-0.019,0.002c-0.541,0.01-1.045,0.304-1.309,0.777C79.879,67.944,71.631,81.374,59.808,89.59
	C59.102,90.081,58.121,89.87,57.654,89.148 M52.447,11.936c-1.16,0-2.291,0.186-3.373,0.564c-3.254,1.133-5.51,3.872-5.888,7.145
	c-0.54,4.689,2.777,9.674,9.099,13.677c8.045,5.095,17.093,7.85,26.168,8.876c0.978-1.594,1.133-1.847,2.109-3.44
	c-4.695-7.362-9.654-14.366-16.168-20.881C60.511,13.993,56.311,11.936,52.447,11.936 M96.363,38.438
	c1.045,1.567,1.221,1.828,2.266,3.396c11.518-1.653,21.771-5.587,28.42-10.314c5.296-3.765,8.016-8.382,7.461-12.668
	c-0.423-3.258-2.714-6.046-5.98-7.275c-4.596-1.73-10.156-0.148-15.258,4.34C106.83,21.585,101.517,29.557,96.363,38.438
	 M182.298,183.711H1.316c-0.876,0-1.585-0.631-1.585-1.41V47.142c0-0.779,0.709-1.411,1.585-1.411h180.982
	c0.876,0,1.585,0.631,1.585,1.411v135.159C183.883,183.08,183.174,183.711,182.298,183.711 M8.311,177.724h166.994
	c0.875,0,1.586-0.632,1.586-1.409V53.239c0-0.779-2.19-1.41-3.066-1.41H6.829c-0.875,0-0.104,0.631-0.104,1.41v123.076
	C6.725,177.092,7.434,177.724,8.311,177.724"/>
</svg>
