<?xml version="1.0" encoding="utf-8"?>
<!-- Generator: Adobe Illustrator 16.0.0, SVG Export Plug-In . SVG Version: 6.00 Build 0)  -->
<!DOCTYPE svg PUBLIC "-//W3C//DTD SVG 1.1//EN" "http://www.w3.org/Graphics/SVG/1.1/DTD/svg11.dtd">
<svg version="1.1" id="Capa_1" xmlns="http://www.w3.org/2000/svg" xmlns:xlink="http://www.w3.org/1999/xlink" x="0px" y="0px"
	 width="191.647px" height="42.082px" viewBox="0 0 191.647 42.082" enable-background="new 0 0 191.647 42.082"
	 xml:space="preserve">
<path fill="#81BB27" d="M191.337,41.244c-3.484-0.566-8.423-2.175-8.494-6.717c0.748-1.58,1.181-3.336,1.181-5.192V12.219
	c0-6.72-5.5-12.219-12.219-12.219H12.219C5.498,0,0,5.499,0,12.219v17.116c0,6.722,5.498,12.219,12.219,12.219h159.586
	c2.079,0,4.041-0.528,5.761-1.455c1.581,0.569,3.328,1.067,5.271,1.455c3.105,0.622,6.214,0.593,8.47,0.424
	C191.743,41.944,191.77,41.314,191.337,41.244"/>
</svg>
