<?xml version="1.0" encoding="utf-8"?>
<!-- Generator: Adobe Illustrator 16.0.0, SVG Export Plug-In . SVG Version: 6.00 Build 0)  -->
<!DOCTYPE svg PUBLIC "-//W3C//DTD SVG 1.1//EN" "http://www.w3.org/Graphics/SVG/1.1/DTD/svg11.dtd">
<svg version="1.1" id="Capa_1" xmlns="http://www.w3.org/2000/svg" xmlns:xlink="http://www.w3.org/1999/xlink" x="0px" y="0px"
	 width="104.545px" height="95.868px" viewBox="0 0 104.545 95.868" enable-background="new 0 0 104.545 95.868"
	 xml:space="preserve">
<path fill-rule="evenodd" clip-rule="evenodd" fill="#676767" d="M35.073,32.054c0.311,0.316,0.722,0.478,1.135,0.481
	c0.413,0.005,0.827-0.148,1.145-0.458c0.637-0.621,0.647-1.634,0.023-2.269c-1.621-1.646-1.594-4.297,0.06-5.91
	c1.417-1.382,2.21-3.229,2.23-5.202c0.019-1.973-0.734-3.835-2.125-5.246c-0.624-0.633-1.643-0.644-2.28-0.023
	c-0.637,0.621-0.647,1.635-0.023,2.269c0.785,0.797,1.213,1.851,1.202,2.967c-0.011,1.117-0.459,2.161-1.262,2.943
	C32.254,24.457,32.207,29.145,35.073,32.054 M70.553,32.413c0.312,0.316,0.723,0.478,1.136,0.481
	c0.412,0.004,0.827-0.149,1.144-0.459c0.639-0.62,0.648-1.635,0.023-2.269c-1.62-1.646-1.594-4.297,0.06-5.91
	c1.417-1.381,2.21-3.227,2.23-5.201c0.02-1.974-0.734-3.836-2.124-5.246c-0.624-0.633-1.644-0.644-2.28-0.022
	s-0.647,1.635-0.023,2.269c0.785,0.797,1.214,1.851,1.202,2.968c-0.012,1.116-0.459,2.161-1.262,2.942
	C67.734,24.817,67.687,29.504,70.553,32.413 M52.91,22.608c0.312,0.316,0.722,0.477,1.135,0.481
	c0.413,0.005,0.827-0.148,1.146-0.458c0.637-0.621,0.646-1.635,0.022-2.268c-1.62-1.647-1.594-4.297,0.061-5.911
	c1.417-1.381,2.21-3.229,2.229-5.202c0.021-1.972-0.733-3.835-2.124-5.245c-0.625-0.634-1.644-0.643-2.28-0.023
	c-0.638,0.621-0.647,1.634-0.023,2.268c0.786,0.798,1.214,1.852,1.203,2.968c-0.012,1.116-0.459,2.161-1.263,2.942
	C50.092,15.011,50.044,19.698,52.91,22.608 M55.371,42.358c0.009-0.887-0.705-1.614-1.596-1.622h-0.023
	c-2.649-0.028-5.289,0.236-7.846,0.782c-0.872,0.186-1.425,1.038-1.239,1.904c0.163,0.748,0.823,1.26,1.56,1.268
	c0.118,0.001,0.237-0.011,0.357-0.035c2.324-0.497,4.726-0.736,7.138-0.711l0.021,0.001C54.633,43.953,55.362,43.243,55.371,42.358
	 M36.231,45.209c-8.442,4.861-14.642,13.748-16.585,23.773c-0.17,0.87,0.402,1.711,1.278,1.879c0.098,0.02,0.194,0.028,0.29,0.029
	c0.764,0.008,1.448-0.527,1.598-1.3c1.768-9.124,7.389-17.201,15.035-21.603c0.77-0.444,1.034-1.427,0.588-2.193
	C37.988,45.029,37.002,44.767,36.231,45.209 M94.813,69.426c-2.75-17.101-15.99-30.801-32.987-34.258
	c0.03-0.257,0.075-0.514,0.077-0.769c0.045-4.423-3.536-8.059-7.982-8.104s-8.1,3.518-8.145,7.941
	c-0.002,0.254,0.035,0.513,0.062,0.77C28.774,38.119,15.26,51.548,12.164,68.59c-3.389,1.863-7.104,4.619-7.136,7.753
	C4.946,84.5,29.907,90.232,53.272,90.469c23.364,0.236,48.436-4.988,48.519-13.146C101.823,74.189,98.164,71.357,94.813,69.426
	 M53.889,29.506c2.668,0.026,4.815,2.208,4.789,4.861c0,0.092-0.005,0.183-0.013,0.275c-0.075-0.009-0.15-0.013-0.225-0.021
	c-0.554-0.066-1.112-0.115-1.673-0.159c-0.206-0.016-0.411-0.04-0.617-0.053c-0.764-0.049-1.533-0.081-2.31-0.088
	c-0.774-0.008-1.545,0.007-2.31,0.042c-0.206,0.008-0.412,0.028-0.618,0.04c-0.562,0.033-1.12,0.072-1.675,0.126
	c-0.078,0.007-0.154,0.007-0.229,0.016c-0.006-0.093-0.008-0.185-0.008-0.275C49.028,31.616,51.222,29.479,53.889,29.506
	 M14.902,72.243c0.018-0.177,0.042-0.354,0.063-0.531c0.059-0.517,0.124-1.034,0.203-1.547c2.579-16.73,16.001-29.908,32.827-32.263
	c0.868-0.121,1.74-0.205,2.614-0.266c0.179-0.013,0.358-0.023,0.538-0.035c1.771-0.101,3.551-0.082,5.319,0.056
	c0.18,0.014,0.358,0.028,0.537,0.044c0.873,0.081,1.743,0.182,2.608,0.318c16.774,2.697,29.928,16.143,32.17,32.923
	c0.068,0.515,0.123,1.032,0.171,1.549c0.016,0.179,0.038,0.355,0.053,0.533c0.056,0.711,0.096,1.424,0.11,2.134
	c-25.395,5.585-52.091,5.314-77.368-0.783C14.779,73.664,14.832,72.954,14.902,72.243 M53.305,87.26
	C25.733,86.98,8.218,79.954,8.254,76.375c0.006-0.614,0.784-1.961,3.366-3.701c-0.007,0.092-0.005,0.182-0.012,0.273
	c-0.064,0.878-0.112,1.764-0.121,2.658l-0.013,1.265l1.234,0.309c13.28,3.312,26.955,5.042,40.646,5.181
	c13.689,0.138,27.397-1.313,40.742-4.357l1.238-0.284l0.014-1.264c0.009-0.896-0.021-1.779-0.066-2.661
	c-0.006-0.092-0.002-0.182-0.007-0.271c2.546,1.791,3.297,3.152,3.291,3.768C98.529,80.868,80.875,87.539,53.305,87.26"/>
</svg>
