<?xml version="1.0" encoding="utf-8"?>
<!-- Generator: Adobe Illustrator 16.0.0, SVG Export Plug-In . SVG Version: 6.00 Build 0)  -->
<!DOCTYPE svg PUBLIC "-//W3C//DTD SVG 1.1//EN" "http://www.w3.org/Graphics/SVG/1.1/DTD/svg11.dtd">
<svg version="1.1" id="Capa_1" xmlns="http://www.w3.org/2000/svg" xmlns:xlink="http://www.w3.org/1999/xlink" x="0px" y="0px"
	 width="100px" height="100px" viewBox="0 0 100 100" enable-background="new 0 0 100 100" xml:space="preserve">
<path fill="#939394" d="M65.056,13.009c-14.729-8.596-33.77-3.422-42.127,11.444c-5.895,10.488-4.926,23.038,1.49,32.375
	c0.078,0.113,0.084,0.262,0.016,0.381L9.741,82.658c-0.159,0.275,0.095,0.605,0.402,0.523l16.5-4.438
	c0.191-0.051,0.387,0.063,0.438,0.253l4.407,16.509c0.083,0.307,0.496,0.361,0.655,0.086l14.693-25.45
	c0.069-0.119,0.2-0.188,0.338-0.177c11.404,0.897,22.871-4.655,28.962-15.207C84.552,40.181,79.578,21.486,65.056,13.009
	 M32.478,88.019l-3.354-12.56c-0.051-0.191-0.247-0.305-0.438-0.253l-13.387,3.599l10.912-18.899c0.121-0.21,0.413-0.241,0.574-0.06
	c2.113,2.369,4.632,4.447,7.528,6.121c2.896,1.67,5.955,2.813,9.064,3.459c0.238,0.047,0.357,0.316,0.235,0.526l-10.48,18.152
	C32.973,88.381,32.56,88.326,32.478,88.019 M48.561,67.154c-1.054-0.038-2.11-0.137-3.162-0.297
	c-3.307-0.506-6.575-1.621-9.643-3.391c-3.067-1.772-5.667-4.045-7.758-6.656c-0.666-0.831-1.278-1.695-1.839-2.59
	c-5.783-9.219-5.931-21.527,1.102-31.175c7.258-9.96,22.563-13.973,33.779-8.868c15.104,6.875,20.694,25.112,12.596,39.138
	C68.324,62.514,58.503,67.519,48.561,67.154"/>
<path fill="#939394" d="M34.38,13.059C19.759,21.5,14.732,40.262,23.173,54.882c6.132,10.62,17.708,16.176,29.187,15.188
	l15.238,26.392l4.723-17.687L90,83.529L74.762,57.136c6.596-9.447,7.572-22.251,1.441-32.87C67.762,9.646,49,4.618,34.38,13.059
	 M84.012,78.929l-13.734-3.692l-3.668,13.739L55.448,69.645c3.274-0.625,6.502-1.797,9.548-3.556
	c3.047-1.76,5.675-3.968,7.854-6.492L84.012,78.929z M73.15,54.344c-0.562,0.895-1.174,1.76-1.838,2.59
	c-2.092,2.61-4.692,4.885-7.76,6.655c-3.068,1.771-6.336,2.886-9.643,3.392c-1.053,0.16-2.107,0.26-3.162,0.297
	c-9.942,0.364-19.764-4.64-25.075-13.838c-7.645-13.242-3.092-30.235,10.15-37.88c13.242-7.646,30.233-3.093,37.88,10.149
	C79.014,34.908,78.436,45.916,73.15,54.344"/>
<path fill="#939394" d="M42.033,53.236c-0.658,0-1.317-0.205-1.894-0.619c-1.167-0.836-1.639-2.26-1.203-3.628l1.988-6.237
	c0.068-0.214-0.008-0.446-0.189-0.578l-5.282-3.849c-1.157-0.842-1.619-2.267-1.178-3.627c0.441-1.363,1.651-2.245,3.082-2.248
	l6.479-0.02c0.227,0,0.425-0.146,0.494-0.361l1.973-6.19c0.437-1.37,1.648-2.259,3.086-2.262h0.01c1.434,0,2.646,0.879,3.089,2.245
	l2.01,6.176c0.07,0.216,0.273,0.36,0.496,0.36l6.479-0.019c1.421,0,2.645,0.871,3.094,2.23c0.45,1.358-0.004,2.785-1.156,3.634
	l-5.258,3.88c-0.182,0.133-0.256,0.366-0.187,0.579l2.024,6.225c0.443,1.365-0.02,2.792-1.182,3.635
	c-1.161,0.843-2.662,0.843-3.822-0.003l-5.217-3.802c-0.184-0.135-0.431-0.134-0.615,0.002l-5.194,3.832
	C43.376,53.021,42.705,53.236,42.033,53.236 M49.399,26.346h-0.002c-0.141,0-0.394,0.048-0.494,0.362l-1.973,6.189
	c-0.429,1.348-1.67,2.258-3.086,2.261l-6.479,0.02c-0.328,0.001-0.45,0.226-0.493,0.359c-0.044,0.134-0.077,0.388,0.188,0.581
	l5.282,3.849c1.133,0.825,1.609,2.277,1.183,3.613l-1.988,6.237c-0.1,0.313,0.077,0.498,0.192,0.58
	c0.115,0.083,0.347,0.192,0.612-0.004l5.194-3.831c1.147-0.847,2.691-0.851,3.843-0.011l5.216,3.801
	c0.266,0.193,0.498,0.084,0.611,0c0.115-0.083,0.291-0.269,0.189-0.581l-2.025-6.226c-0.434-1.333,0.033-2.788,1.162-3.62
	l5.26-3.879c0.264-0.195,0.229-0.448,0.185-0.582c-0.044-0.134-0.167-0.356-0.493-0.356H61.48l-6.479,0.018h-0.008
	c-1.414,0-2.655-0.901-3.092-2.244l-2.01-6.178C49.792,26.393,49.541,26.346,49.399,26.346"/>
</svg>
