<?xml version="1.0" encoding="utf-8"?>
<!-- Generator: Adobe Illustrator 16.0.0, SVG Export Plug-In . SVG Version: 6.00 Build 0)  -->
<!DOCTYPE svg PUBLIC "-//W3C//DTD SVG 1.1//EN" "http://www.w3.org/Graphics/SVG/1.1/DTD/svg11.dtd">
<svg version="1.1" id="Capa_1" xmlns="http://www.w3.org/2000/svg" xmlns:xlink="http://www.w3.org/1999/xlink" x="0px" y="0px"
	 width="104.545px" height="95.868px" viewBox="0 0 104.545 95.868" enable-background="new 0 0 104.545 95.868"
	 xml:space="preserve">
<path fill="#959594" d="M82.227,59.757c-4.453,0-8.449,1.622-11.291,4.221L37.722,49.843c0.12-0.667,0.191-1.335,0.191-2.026
	c0-0.678-0.071-1.334-0.184-1.98l33.156-13.985c2.847,2.619,6.869,4.26,11.341,4.26c8.617,0,15.603-6.071,15.603-13.56
	c0-7.494-6.985-13.571-15.603-13.571c-8.613,0-15.595,6.078-15.595,13.571c0,0.666,0.067,1.327,0.18,1.974l-33.168,13.98
	c-2.843-2.614-6.854-4.258-11.325-4.258c-8.621,0-15.603,6.072-15.603,13.569c0,7.487,6.981,13.561,15.603,13.561
	c4.442,0,8.445-1.628,11.288-4.22l33.212,14.131c-0.119,0.662-0.187,1.338-0.187,2.029c0,7.498,6.981,13.568,15.595,13.568
	c8.617,0,15.603-6.07,15.603-13.568C97.829,65.831,90.844,59.757,82.227,59.757"/>
</svg>
