<?xml version="1.0" encoding="utf-8"?>
<!-- Generator: Adobe Illustrator 16.0.0, SVG Export Plug-In . SVG Version: 6.00 Build 0)  -->
<!DOCTYPE svg PUBLIC "-//W3C//DTD SVG 1.1//EN" "http://www.w3.org/Graphics/SVG/1.1/DTD/svg11.dtd">
<svg version="1.1" id="Capa_1" xmlns="http://www.w3.org/2000/svg" xmlns:xlink="http://www.w3.org/1999/xlink" x="0px" y="0px"
	 width="106px" height="100.906px" viewBox="0 0 106 100.906" enable-background="new 0 0 106 100.906" xml:space="preserve">
<path fill="#676767" d="M89.584,13.78l-0.903,1.813c-0.954,1.924-2.847,3.164-5.061,3.314c-2.425,0.172-4.711-1.029-6.243-3.283
	c-1.021-1.503-1.137-3.484-0.3-5.171l1.145-2.31L61.804,0l-11.94,24.069l-3.846-8.728l-16.768,7.392l0.814,1.855
	c0.866,1.965,0.606,4.212-0.697,6.01c-1.431,1.977-3.808,2.956-6.519,2.69c-1.81-0.177-3.405-1.357-4.164-3.08l-1.042-2.357
	L0.873,35.243l28.945,65.663l16.768-7.392l-0.814-1.855c-0.433-0.98-0.588-2.066-0.448-3.141c0.282-2.177,1.735-4.091,3.789-4.997
	c2.055-0.903,4.446-0.687,6.245,0.573c0.888,0.622,1.584,1.47,2.018,2.453l0.818,1.85l10.763-4.744l5.152,2.556L106,21.925
	L89.584,13.78z M63.31,4.474l10.47,5.193c-1.021,2.604-0.721,5.543,0.837,7.836c2.185,3.212,5.63,4.985,9.231,4.735
	c2.911-0.199,5.549-1.71,7.154-4.027l10.524,5.221L74.021,78.873L51.616,28.046L63.31,4.474z M65.063,81.722l-5.25,2.314
	c-0.653-1.047-1.517-1.957-2.539-2.675c-2.747-1.926-6.39-2.269-9.506-0.895c-3.117,1.374-5.321,4.295-5.753,7.622
	c-0.161,1.238-0.071,2.49,0.26,3.679l-10.748,4.738L5.273,36.95l10.693-4.714c1.346,2.451,3.796,4.104,6.555,4.375
	c3.871,0.387,7.435-1.136,9.549-4.055c1.711-2.363,2.242-5.357,1.489-8.076l10.75-4.737l3.623,8.22l1.752,3.977l20.877,47.358
	l-1.521,0.671L65.063,81.722z"/>
</svg>
