<?xml version="1.0" encoding="utf-8"?>
<!-- Generator: Adobe Illustrator 16.0.0, SVG Export Plug-In . SVG Version: 6.00 Build 0)  -->
<!DOCTYPE svg PUBLIC "-//W3C//DTD SVG 1.1//EN" "http://www.w3.org/Graphics/SVG/1.1/DTD/svg11.dtd">
<svg version="1.1" id="Capa_1" xmlns="http://www.w3.org/2000/svg" xmlns:xlink="http://www.w3.org/1999/xlink" x="0px" y="0px"
	 width="152.139px" height="147.854px" viewBox="0 0 152.139 147.854" enable-background="new 0 0 152.139 147.854"
	 xml:space="preserve">
<path fill="#7FBA28" d="M49.153,62.892c-26.369,0-47.822,19.002-47.822,42.36c0,23.36,21.453,42.363,47.822,42.363
	c20.85,0,38.616-11.885,45.145-28.401c3.234,0.118,6.184,0.156,8.6,0.156c14.686,0,48.841-1.377,48.841-14.125
	c0-0.04,0-0.077-0.005-0.115c0.005-0.033,0.005-0.066,0.005-0.098V88.764v-0.75c0.088-0.378,0.139-0.767,0.139-1.17
	c0-0.379-0.057-0.743-0.139-1.099V71.742c0.088-0.376,0.139-0.765,0.139-1.167c0-0.379-0.057-0.743-0.139-1.1V53.887
	c0.088-0.377,0.139-0.765,0.139-1.168c0-0.669-0.152-1.297-0.396-1.898c0.157-0.562,0.258-1.141,0.258-1.756
	c0-0.039,0-0.076-0.005-0.113c0.005-0.036,0.005-0.068,0.005-0.099V31.835c0.088-0.379,0.139-0.766,0.139-1.171
	c0-0.377-0.057-0.74-0.139-1.098V13.979c0.088-0.378,0.139-0.768,0.139-1.17c0-0.693-0.159-1.344-0.416-1.967
	c-0.427-1.307-1.349-2.401-2.576-3.088C138.904,0.257,107.116,0,102.897,0c-4.218,0-36.004,0.257-45.983,7.755
	c-1.227,0.687-2.152,1.778-2.575,3.084c-0.262,0.625-0.418,1.277-0.418,1.971c0,0.402,0.05,0.792,0.138,1.17v15.586
	c-0.084,0.355-0.138,0.721-0.138,1.098c0,0.405,0.05,0.792,0.138,1.171v17.019c0,0.038,0.002,0.075,0.002,0.113
	c0,0.035-0.002,0.068-0.002,0.099c0,0.615,0.103,1.194,0.255,1.758c-0.242,0.6-0.393,1.227-0.393,1.896
	c0,0.403,0.05,0.791,0.138,1.168v9.225C52.446,62.967,50.808,62.892,49.153,62.892 M146.162,104.899
	c-0.008,0.107-0.014,0.215-0.01,0.307c0,0.044,0.002,0.091,0.006,0.142c-0.276,4.749-19.576,8.596-43.261,8.596
	c-2.353,0-4.647-0.045-6.905-0.121c0.646-2.77,0.986-5.634,0.986-8.57c0-0.748-0.025-1.492-0.066-2.229
	c2.202,0.057,4.242,0.079,5.985,0.079c11.012,0,32.965-0.776,43.265-6.535V104.899z M146.162,88.63
	c-0.008,0.107-0.014,0.215-0.01,0.309c0,0.041,0.002,0.089,0.006,0.14c-0.276,4.748-19.576,8.594-43.261,8.594
	c-2.291,0-4.527-0.045-6.725-0.113c-0.932-4.491-2.657-8.736-5.06-12.616c4.477,0.234,8.596,0.305,11.784,0.305
	c11.012,0,32.965-0.774,43.265-6.536V88.63z M146.162,48.721c-0.008,0.105-0.014,0.215-0.01,0.308c0,0.042,0.002,0.09,0.006,0.141
	c-0.276,4.748-19.576,8.597-43.261,8.597c-23.688,0-42.992-3.85-43.26-8.6c0.007-0.094,0.01-0.188,0.008-0.268
	c-0.001-0.053-0.004-0.116-0.008-0.182l-0.012-9.919c10.293,5.767,32.259,6.539,43.272,6.539c11.012,0,32.965-0.772,43.265-6.533
	V48.721z M102.897,6.251c24.562,0,39.779,4.038,42.353,6.559c-2.57,2.521-17.791,6.56-42.353,6.56c-24.56,0-39.78-4.039-42.348-6.56
	C63.117,10.289,78.337,6.251,102.897,6.251 M102.897,25.622c3.889,0,31.202-0.221,43.265-6.128v11.372
	c-0.008,0.106-0.014,0.215-0.01,0.308c0,0.042,0.002,0.091,0.006,0.14c-0.276,4.749-19.576,8.597-43.261,8.597
	c-23.688,0-42.992-3.849-43.26-8.601c0.007-0.093,0.01-0.186,0.008-0.266c-0.001-0.052-0.004-0.116-0.008-0.181l-0.012-11.374
	C71.686,25.4,99.007,25.622,102.897,25.622 M102.897,65.529c3.889,0,31.202-0.22,43.265-6.125v11.372
	c-0.008,0.106-0.014,0.215-0.01,0.308c0,0.041,0.002,0.091,0.006,0.14c-0.276,4.749-19.576,8.596-43.261,8.596
	c-5.684,0-11.105-0.228-16.081-0.629c-6.699-7.578-16.239-13.085-27.188-15.264l-0.003-4.529
	C71.686,65.309,99.007,65.529,102.897,65.529 M90.852,105.252c0,20.366-18.706,36.936-41.699,36.936
	c-22.99,0-41.694-16.569-41.694-36.936c0-20.364,18.705-36.935,41.694-36.935C72.146,68.317,90.852,84.888,90.852,105.252"/>
<path fill="#7FBA28" d="M16.933,105.25c0,15.741,14.454,28.547,32.221,28.547c17.768,0,32.224-12.806,32.224-28.547
	c0-15.738-14.456-28.543-32.224-28.543C31.387,76.707,16.933,89.512,16.933,105.25 M77.294,105.25
	c0,13.747-12.625,24.929-28.141,24.929c-15.515,0-28.137-11.182-28.137-24.929c0-13.744,12.623-24.924,28.137-24.924
	C64.67,80.326,77.294,91.506,77.294,105.25"/>
<path fill="#7FBA28" d="M45.214,87.252v3.058c-1.682,0.564-3.149,1.417-4.302,2.506c-1.802,1.693-2.793,3.944-2.791,6.335
	c0,1.27,0.271,2.461,0.805,3.544c0.731,1.484,1.983,2.794,3.719,3.889c1.341,0.845,3.002,1.604,5.223,2.377
	c1.818,0.646,2.581,1.184,2.875,1.446c0.221,0.198,0.298,0.331,0.343,0.422c0.042,0.092,0.088,0.218,0.09,0.448
	c-0.003,0.356-0.116,0.573-0.397,0.784c-0.428,0.315-1.165,0.495-2.022,0.495c-2.031,0.084-3.914-0.674-4.996-1.315l-1.205-0.71
	c-0.524-0.31-1.18-0.387-1.774-0.211c-0.598,0.176-1.069,0.583-1.281,1.106l-1.903,4.707c-0.312,0.762-0.011,1.612,0.733,2.082
	l0.703,0.447c1.123,0.705,2.517,1.276,4.133,1.692c0.564,0.146,1.133,0.268,1.711,0.365v2.682c0,0.999,0.917,1.811,2.042,1.811
	h5.228c1.126,0,2.042-0.812,2.042-1.811v-3.178c1.88-0.628,3.499-1.604,4.743-2.87c1.727-1.752,2.678-4.007,2.676-6.349
	c0-1.244-0.218-2.409-0.642-3.452c-0.64-1.581-1.771-2.969-3.363-4.128c-1.331-0.974-2.963-1.799-5.137-2.594
	c-0.069-0.027-0.139-0.055-0.212-0.076c-2.193-0.805-3.081-1.311-3.45-1.6c-0.139-0.106-0.229-0.196-0.267-0.268
	c-0.01-0.018-0.026-0.087-0.026-0.236c0-0.112,0.03-0.272,0.168-0.396c0.274-0.233,0.856-0.365,1.629-0.368
	c0.973,0,1.858,0.124,2.708,0.377c0.69,0.204,1.209,0.453,1.631,0.664l1.147,0.584c0.521,0.265,1.144,0.312,1.705,0.134
	c0.564-0.179,1.01-0.567,1.224-1.062l1.982-4.638c0.354-0.824-0.018-1.754-0.874-2.2l-0.826-0.429
	c-1.374-0.713-2.891-1.223-4.535-1.523v-2.543c0-0.998-0.913-1.81-2.042-1.81h-5.176C46.126,85.442,45.214,86.254,45.214,87.252
	 M49.299,91.639v-2.577h1.092v2.288c0,0.932,0.797,1.71,1.846,1.801c1.48,0.126,2.834,0.453,4.032,0.968l-0.526,1.229
	c-0.417-0.178-0.883-0.354-1.423-0.512c-1.25-0.376-2.602-0.566-4.018-0.566c-1.896,0.007-3.398,0.476-4.463,1.395
	c-0.909,0.78-1.408,1.843-1.408,2.987c0,0.688,0.134,1.258,0.417,1.781c0.28,0.53,0.684,0.989,1.258,1.436
	c0.912,0.717,2.36,1.418,4.702,2.271l0.004,0.002c1.837,0.665,3.171,1.323,4.199,2.076c1.015,0.741,1.727,1.598,2.114,2.557
	c0.267,0.658,0.403,1.408,0.403,2.233c0.003,1.466-0.59,2.877-1.67,3.969c0,0-0.002,0.002-0.006,0.003
	c-1.018,1.036-2.466,1.783-4.187,2.156c-0.915,0.197-1.557,0.921-1.557,1.755v2.704h-1.143v-2.444c0-0.938-0.806-1.718-1.861-1.802
	c-0.945-0.075-1.884-0.23-2.787-0.467c-0.89-0.227-1.685-0.517-2.337-0.846l0.506-1.26c1.878,0.887,4.134,1.4,6.244,1.4
	c1.896,0.031,3.47-0.456,4.678-1.345c1.194-0.9,1.837-2.115,1.854-3.542c-0.003-0.687-0.137-1.301-0.416-1.875
	c-0.271-0.563-0.661-1.068-1.194-1.548c-0.931-0.836-2.324-1.575-4.271-2.27c-1.916-0.667-3.301-1.29-4.362-1.959
	c-1.142-0.721-1.911-1.505-2.348-2.394c-0.307-0.621-0.461-1.324-0.461-2.096c-0.005-1.463,0.592-2.833,1.681-3.855
	c0.956-0.902,2.287-1.559,3.848-1.896C48.654,93.202,49.299,92.475,49.299,91.639"/>
</svg>
