<?xml version="1.0" encoding="utf-8"?>
<!-- Generator: Adobe Illustrator 16.0.0, SVG Export Plug-In . SVG Version: 6.00 Build 0)  -->
<!DOCTYPE svg PUBLIC "-//W3C//DTD SVG 1.1//EN" "http://www.w3.org/Graphics/SVG/1.1/DTD/svg11.dtd">
<svg version="1.1" id="Capa_1" xmlns="http://www.w3.org/2000/svg" xmlns:xlink="http://www.w3.org/1999/xlink" x="0px" y="0px"
	 width="249.173px" height="203.719px" viewBox="0 0 249.173 203.719" enable-background="new 0 0 249.173 203.719"
	 xml:space="preserve">
<path fill="#FFFFFF" d="M126.375,35.33c-40.509,0-73.348,29.787-73.348,66.531c0,36.743,32.839,66.53,73.348,66.53
	c40.508,0,73.348-29.787,73.348-66.53C199.723,65.116,166.883,35.33,126.375,35.33 M126.375,158.41
	c-34.433,0-62.346-25.318-62.346-56.55c0-31.232,27.913-56.551,62.346-56.551c34.433,0,62.346,25.319,62.346,56.551
	C188.721,133.092,160.808,158.41,126.375,158.41"/>
<path fill="#FFFFFF" d="M125.65,71.883c-3.64,0-6.604,2.688-6.604,5.994c0,3.3,2.964,5.989,6.604,5.989
	c3.639,0,6.585-2.689,6.585-5.989C132.236,74.572,129.29,71.883,125.65,71.883"/>
<path fill="#FFFFFF" d="M132.459,130.135h-12.167c-0.692,0-1.252-0.508-1.252-1.137V91.352c0-0.627,0.56-1.136,1.252-1.136h12.167
	c0.693,0,1.254,0.508,1.254,1.136v37.646C133.713,129.627,133.153,130.135,132.459,130.135"/>
</svg>
