<?xml version="1.0" encoding="utf-8"?>
<!-- Generator: Adobe Illustrator 16.0.0, SVG Export Plug-In . SVG Version: 6.00 Build 0)  -->
<!DOCTYPE svg PUBLIC "-//W3C//DTD SVG 1.1//EN" "http://www.w3.org/Graphics/SVG/1.1/DTD/svg11.dtd">
<svg version="1.1" id="Capa_1" xmlns="http://www.w3.org/2000/svg" xmlns:xlink="http://www.w3.org/1999/xlink" x="0px" y="0px"
	 width="33.176px" height="33.077px" viewBox="0 0 33.176 33.077" enable-background="new 0 0 33.176 33.077" xml:space="preserve">
<path fill="#0E7CB0" d="M0.549,10.992l6.873-0.005l0.015,22.108l-6.872,0.005L0.549,10.992z M3.979,0
	c2.196-0.001,3.982,1.784,3.984,3.984C7.964,6.184,6.18,7.967,3.984,7.968C1.782,7.97,0.001,6.188,0,3.99
	C-0.002,1.79,1.776,0.002,3.979,0"/>
<path fill="#0E7CB0" d="M11.731,10.984l6.592-0.005l0.002,3.025h0.094c0.916-1.741,3.156-3.573,6.5-3.576
	c6.957-0.005,8.246,4.571,8.25,10.522l0.008,12.126l-6.868,0.005l-0.009-10.751c-0.002-2.563-0.047-5.863-3.575-5.86
	c-3.575,0.002-4.118,2.799-4.117,5.682l0.008,10.936l-6.868,0.004L11.731,10.984z"/>
</svg>
