<svg xmlns="http://www.w3.org/2000/svg" viewBox="0 0 30.92 29.52"><defs><style>.cls-1{fill:#c82e78;}</style></defs><title>Asset 36</title><g id="Layer_2" data-name="Layer 2"><g id="Layer_1-2" data-name="Layer 1"><path class="cls-1" d="M21.39,29.52H9.54A9.55,9.55,0,0,1,0,20V9.54A9.55,9.55,0,0,1,9.54,0H21.39a9.55,9.55,0,0,1,9.54,9.54V20A9.55,9.55,0,0,1,21.39,29.52ZM9.54,2.12A7.43,7.43,0,0,0,2.12,9.54V20A7.43,7.43,0,0,0,9.54,27.4H21.39A7.43,7.43,0,0,0,28.8,20V9.54a7.43,7.43,0,0,0-7.42-7.42Z"/><path class="cls-1" d="M15.46,23.25A8.49,8.49,0,1,1,24,14.76,8.5,8.5,0,0,1,15.46,23.25Zm0-14.86a6.37,6.37,0,1,0,6.37,6.37A6.38,6.38,0,0,0,15.46,8.39Z"/><circle class="cls-1" cx="23.82" cy="6.53" r="1.76"/></g></g></svg>