<svg xmlns="http://www.w3.org/2000/svg" viewBox="0 0 202.19 137.15"><defs><style>.cls-1{fill:#fff;}.cls-2{fill:#919191;}</style></defs><title>Asset 15</title><g id="Layer_2" data-name="Layer 2"><g id="Layer_1-2" data-name="Layer 1"><path class="cls-1" d="M183.92,107.06a3.88,3.88,0,0,1-3.88,3.88H22.15a3.88,3.88,0,0,1-3.88-3.88V13.73a3.88,3.88,0,0,1,3.88-3.88H180a3.88,3.88,0,0,1,3.88,3.88Z"/><path class="cls-2" d="M200.09,116.58h-6.32V11.33A11.34,11.34,0,0,0,182.44,0H19.75A11.34,11.34,0,0,0,8.43,11.33V116.58H2.1a2.11,2.11,0,0,0-2.1,2.1v9a9.46,9.46,0,0,0,9.45,9.45h183.3a9.46,9.46,0,0,0,9.45-9.45v-9A2.11,2.11,0,0,0,200.09,116.58ZM12.63,11.33a7.13,7.13,0,0,1,7.12-7.12H182.44a7.13,7.13,0,0,1,7.12,7.12V116.58H12.63ZM92.86,126.26a2.58,2.58,0,0,1-2.58-2.57v-2.9h21.62v2.9a2.58,2.58,0,0,1-2.57,2.57M198,127.71a5.24,5.24,0,0,1-5.24,5.24H9.45a5.24,5.24,0,0,1-5.24-5.24v-6.92H88.26v2.9a4.6,4.6,0,0,0,4.59,4.59h16.48a4.6,4.6,0,0,0,4.59-4.59v-2.9H198Z"/><path class="cls-2" d="M180,9.85H22.15a3.88,3.88,0,0,0-3.88,3.88v93.33a3.88,3.88,0,0,0,3.88,3.88H180a3.88,3.88,0,0,0,3.88-3.88V13.73A3.88,3.88,0,0,0,180,9.85Zm1.86,97.21a1.86,1.86,0,0,1-1.86,1.86H22.15a1.86,1.86,0,0,1-1.86-1.86V13.73a1.86,1.86,0,0,1,1.86-1.86H180a1.86,1.86,0,0,1,1.86,1.86Z"/></g></g></svg>