<?xml version="1.0" encoding="utf-8"?>
<!-- Generator: Adobe Illustrator 16.0.0, SVG Export Plug-In . SVG Version: 6.00 Build 0)  -->
<!DOCTYPE svg PUBLIC "-//W3C//DTD SVG 1.1//EN" "http://www.w3.org/Graphics/SVG/1.1/DTD/svg11.dtd">
<svg version="1.1" id="Capa_1" xmlns="http://www.w3.org/2000/svg" xmlns:xlink="http://www.w3.org/1999/xlink" x="0px" y="0px"
	 width="600px" height="600px" viewBox="0 0 600 600" enable-background="new 0 0 600 600" xml:space="preserve">
<polyline fill="#DF332A" points="0,0 66.031,271.794 0,271.794 "/>
<polyline fill="#7CB928" points="600.175,600.382 285.623,560.078 183.597,516.201 327.072,470.497 600.175,600.382 "/>
<polyline fill="#EC652A" points="261.712,600.299 270.02,550.35 600.175,600.382 "/>
<polyline fill="#1C72B2" points="387.651,600.299 121.425,481.467 185.19,582.016 225.046,600.299 "/>
<polygon fill="#44AFE4" points="19.397,305.96 57.657,505.232 189.974,582.016 "/>
<polyline fill="#009C3D" points="0,496.092 65.628,532.654 0.267,177.987 "/>
<line fill="#7CB928" x1="230.512" y1="600.299" x2="0.267" y2="465.014"/>
<polygon fill="#009C3D" points="327.072,470.497 192.728,513.292 130.287,485.423 83.767,410.135 "/>
<polygon fill="#EC652A" points="83.164,410.166 201.847,439.43 73.599,322.413 25.774,316.93 "/>
<polyline fill="#DF332A" points="9.308,227.042 25.774,316.93 73.599,322.415 9.308,227.042 "/>
<polygon fill="#7CB928" points="0,469.642 0,600.373 253.615,600.373 "/>
</svg>
