<?xml version="1.0" encoding="utf-8"?>
<!-- Generator: Adobe Illustrator 16.0.0, SVG Export Plug-In . SVG Version: 6.00 Build 0)  -->
<!DOCTYPE svg PUBLIC "-//W3C//DTD SVG 1.1//EN" "http://www.w3.org/Graphics/SVG/1.1/DTD/svg11.dtd">
<svg version="1.1" id="Capa_1" xmlns="http://www.w3.org/2000/svg" xmlns:xlink="http://www.w3.org/1999/xlink" x="0px" y="0px"
	 width="183.711px" height="183.711px" viewBox="0 0 183.711 183.711" enable-background="new 0 0 183.711 183.711"
	 xml:space="preserve">
<rect x="59.083" y="31.283" fill="#009C3D" width="103.835" height="6.705"/>
<path fill="#009C3D" d="M39.738,149.357c0,5.24-4.249,9.489-9.489,9.489c-5.241,0-9.49-4.249-9.49-9.489
	c0-5.241,4.249-9.488,9.49-9.488C35.489,139.869,39.738,144.116,39.738,149.357"/>
<path fill="#009C3D" d="M39.738,111.117c0,5.24-4.249,9.489-9.489,9.489c-5.241,0-9.49-4.249-9.49-9.489
	c0-5.241,4.249-9.488,9.49-9.488C35.489,101.629,39.738,105.876,39.738,111.117"/>
<polyline fill="#009C3D" points="12.401,40.494 16.906,35.528 20.106,38.431 43.59,17.126 48.095,22.092 20.106,47.484 
	12.401,40.494 "/>
<rect x="59.083" y="69.523" fill="#009C3D" width="103.835" height="6.706"/>
<polyline fill="#009C3D" points="12.401,78.733 16.907,73.769 20.106,76.671 43.59,55.367 48.095,60.332 20.106,85.726 
	12.401,78.733 "/>
<rect x="59.083" y="107.765" fill="#009C3D" width="103.835" height="6.705"/>
<rect x="59.083" y="146.005" fill="#009C3D" width="103.835" height="6.705"/>
<path fill="none" d="M6.807,12.442"/>
<path fill="#009C3D" d="M0,183.711h183.711V0H0V183.711z M6.705,6.705h170.3v170.3H6.705V6.705z"/>
</svg>
