<?xml version="1.0" encoding="utf-8"?>
<!-- Generator: Adobe Illustrator 16.0.0, SVG Export Plug-In . SVG Version: 6.00 Build 0)  -->
<!DOCTYPE svg PUBLIC "-//W3C//DTD SVG 1.1//EN" "http://www.w3.org/Graphics/SVG/1.1/DTD/svg11.dtd">
<svg version="1.1" id="Capa_1" xmlns="http://www.w3.org/2000/svg" xmlns:xlink="http://www.w3.org/1999/xlink" x="0px" y="0px"
	 width="249.173px" height="203.719px" viewBox="0 0 249.173 203.719" enable-background="new 0 0 249.173 203.719"
	 xml:space="preserve">
<path fill="#FFFFFF" d="M169.213,128.109c-5.859,0-11.187,1.982-15.206,5.201L91.509,105.93c1.43-2.596,2.254-5.492,2.254-8.561
	c0-3.606-1.124-6.979-3.055-9.895l62.242-27.268c4.114,4.904,10.723,8.108,18.186,8.108c12.454,0,22.587-8.88,22.587-19.794
	c0-10.913-10.133-19.791-22.587-19.791c-12.451,0-22.584,8.878-22.584,19.791c0,2.267,0.459,4.438,1.262,6.469l-63.43,27.788
	c-4.019-3.217-9.347-5.2-15.207-5.2c-12.454,0-22.588,8.88-22.588,19.792c0,10.912,10.134,19.791,22.588,19.791
	c6.512,0,12.374-2.443,16.499-6.318l62.007,27.168c-1.932,2.912-3.055,6.285-3.055,9.891c0,10.914,10.132,19.795,22.585,19.795
	c12.456,0,22.588-8.881,22.588-19.795C191.801,136.988,181.669,128.109,169.213,128.109 M171.136,34.624
	c8.745,0,15.859,6.234,15.859,13.896c0,7.663-7.114,13.897-15.859,13.897c-8.742,0-15.858-6.235-15.858-13.897
	C155.278,40.858,162.394,34.624,171.136,34.624 M71.177,111.266c-8.744,0-15.861-6.234-15.861-13.896
	c0-7.663,7.117-13.897,15.861-13.897c8.744,0,15.859,6.234,15.859,13.897C87.036,105.031,79.921,111.266,71.177,111.266
	 M169.213,161.797c-8.741,0-15.858-6.234-15.858-13.896s7.117-13.895,15.858-13.895c8.746,0,15.862,6.232,15.862,13.895
	S177.959,161.797,169.213,161.797"/>
</svg>
