<?xml version="1.0" encoding="utf-8"?>
<!-- Generator: Adobe Illustrator 16.0.0, SVG Export Plug-In . SVG Version: 6.00 Build 0)  -->
<!DOCTYPE svg PUBLIC "-//W3C//DTD SVG 1.1//EN" "http://www.w3.org/Graphics/SVG/1.1/DTD/svg11.dtd">
<svg version="1.1" id="Capa_1" xmlns="http://www.w3.org/2000/svg" xmlns:xlink="http://www.w3.org/1999/xlink" x="0px" y="0px"
	 width="143.955px" height="140.387px" viewBox="0 0 143.955 140.387" enable-background="new 0 0 143.955 140.387"
	 xml:space="preserve">
<path fill="#FFFFFF" d="M100.911,117.736c-0.679-0.189-1.377-0.102-1.973,0.241c-0.982,0.561-2.002,1.097-3.025,1.592l-0.732,0.366
	c-4.605,2.135-9.23,3.597-13.969,4.433c-1.289,0.222-2.42,0.388-3.553,0.515c-25.84,2.916-50.44-12.672-59.037-36.97l-0.345-1.014
	c-1.879-5.647-2.839-11.572-2.839-17.588c0-6.024,0.96-11.963,2.854-17.646l0.473-1.346c6.613-17.813,21.196-30.847,39.165-35.297
	l0.57-0.137c4.349-1,8.463-1.475,12.571-1.494l2.513-0.012l0.046,5.711l9.858-8.347l-9.992-8.269l0.049,5.705l-2.529,0.015
	c-16.192,0.089-31.419,6.445-42.874,17.897c-1.127,1.132-2.204,2.297-3.232,3.496c-9.226,10.826-14.239,23.889-14.638,37.932
	l-0.044,1.738c0,0.771,0.02,1.553,0.049,2.32c0.537,13.01,4.916,25.041,12.685,35.063c0.826,1.085,1.633,2.052,2.45,2.987
	c0.983,1.094,1.84,2.006,2.73,2.893c9.039,9.043,20.419,14.936,32.902,17.043c12.949,2.136,24.97,0.364,36.119-4.831l0.758-0.382
	c1.383-0.656,2.5-1.237,3.566-1.848c0.615-0.347,1.049-0.905,1.236-1.571c0.182-0.67,0.098-1.371-0.247-1.976
	C102.137,118.356,101.581,117.922,100.911,117.736"/>
<path fill="#FFFFFF" d="M116.754,38.827c1.146,1.702,3.631,2.209,5.349,1.048c1.766-1.186,2.239-3.59,1.052-5.355
	c-0.703-1.047-1.445-2.088-2.213-3.09c-1.29-1.692-3.721-2.008-5.417-0.719c-0.817,0.625-1.338,1.532-1.476,2.555
	c-0.14,1.02,0.133,2.031,0.756,2.851C115.481,36.996,116.139,37.907,116.754,38.827"/>
<path fill="#FFFFFF" d="M123.407,52.581c0.334,1.051,0.645,2.128,0.92,3.2c0.506,2.027,2.623,3.32,4.688,2.79
	c0.999-0.253,1.835-0.882,2.362-1.767c0.525-0.886,0.678-1.924,0.424-2.922c-0.311-1.228-0.661-2.455-1.049-3.652
	c-0.315-0.982-0.989-1.782-1.909-2.254c-0.911-0.467-1.949-0.557-2.942-0.244C123.879,48.379,122.757,50.557,123.407,52.581"/>
<path fill="#FFFFFF" d="M118.118,104.71c-0.703-0.61-1.59-0.938-2.515-0.938c-0.093,0-0.187,0.004-0.286,0.011
	c-1.027,0.073-1.963,0.544-2.632,1.323c-0.728,0.836-1.485,1.666-2.258,2.453c-0.724,0.738-1.112,1.711-1.097,2.74
	c0.01,1.031,0.422,1.995,1.16,2.717c1.477,1.443,4.021,1.404,5.451-0.062c0.881-0.905,1.752-1.849,2.573-2.804
	c1.394-1.607,1.216-4.047-0.394-5.44H118.118z"/>
<path fill="#FFFFFF" d="M129.979,67.248c-0.039-0.003-0.078-0.003-0.117-0.003c-0.984,0-1.92,0.369-2.637,1.049
	c-0.754,0.708-1.182,1.663-1.211,2.693c-0.029,1.104-0.103,2.229-0.201,3.331c-0.095,1.025,0.217,2.027,0.875,2.82
	c0.66,0.791,1.584,1.278,2.607,1.371c0.139,0.016,0.251,0.018,0.365,0.018c1.972,0,3.654-1.54,3.833-3.504
	c0.118-1.262,0.19-2.54,0.229-3.808c0.03-1.028-0.339-2.007-1.048-2.758C131.973,67.708,131.012,67.277,129.979,67.248"/>
<path fill="#FFFFFF" d="M127.29,87.005c-0.463-0.18-0.937-0.267-1.402-0.267c-1.54,0-3.002,0.934-3.602,2.455
	c-0.404,1.029-0.843,2.063-1.31,3.066c-0.89,1.93-0.049,4.227,1.879,5.119c1.899,0.889,4.261-0.008,5.127-1.877
	c0.526-1.146,1.029-2.322,1.492-3.496c0.373-0.962,0.353-2.01-0.06-2.954C129,88.107,128.249,87.382,127.29,87.005"/>
<path fill="#FFFFFF" d="M108.502,19.195c-1.013-0.755-2.064-1.482-3.129-2.172c-0.629-0.411-1.352-0.625-2.091-0.625
	c-0.271,0-0.54,0.029-0.806,0.086c-1.014,0.214-1.875,0.807-2.436,1.67c-1.162,1.781-0.654,4.178,1.131,5.339
	c0.931,0.603,1.851,1.242,2.735,1.901c1.663,1.232,4.173,0.857,5.398-0.803c0.614-0.83,0.87-1.849,0.718-2.867
	C109.872,20.707,109.331,19.808,108.502,19.195"/>
<path fill="#FFFFFF" d="M72.163,37.887l-7.927,16.359c-1.7,3.506-1.933,7.462-0.651,11.145c0.22,0.637,0.516,1.307,0.902,2.051
	l1.015,1.938l-2.158,0.355c-4.709,0.765-8.751,3.763-10.815,8.021L44.6,94.115l-4.999-2.422l-1.265,2.603L74.6,111.867l1.26-2.603
	l-5.004-2.426l7.928-16.363c1.699-3.5,1.931-7.458,0.656-11.146c-0.22-0.628-0.515-1.29-0.896-2.021l-1.025-1.938l2.164-0.36
	c0.84-0.138,1.668-0.347,2.463-0.622c3.682-1.277,6.647-3.913,8.344-7.419l7.93-16.36l4.751,2.301l1.261-2.602l-36.26-17.57
	l-1.264,2.604L72.163,37.887z M76.18,89.214l-7.928,16.364l-21.043-10.2l7.927-16.361c2.804-5.776,9.789-8.212,15.571-5.444
	l0.378,0.203c2.646,1.383,4.644,3.696,5.62,6.506C77.727,83.229,77.542,86.4,76.18,89.214 M95.815,49.344l-7.937,16.361
	c-1.36,2.813-3.735,4.927-6.685,5.951c-1.248,0.431-2.537,0.648-3.836,0.648c-1.746,0-3.438-0.387-5.029-1.148l-0.426-0.229
	c-2.623-1.369-4.612-3.676-5.59-6.486c-1.023-2.951-0.836-6.123,0.529-8.935l7.931-16.358L95.815,49.344z"/>
<path fill="#FFFFFF" d="M67.731,31.461l-2.097,4.32l5.255,2.546l-7.513,15.505c-1.81,3.733-2.057,7.95-0.693,11.871
	c0.235,0.678,0.551,1.393,0.959,2.178l0.403,0.771l-0.856,0.141c-5.013,0.814-9.319,4.008-11.518,8.547l-7.513,15.502l-4.999-2.422
	l-2.096,4.317l37.979,18.403l2.092-4.317l-5.004-2.426l7.512-15.506c1.811-3.731,2.057-7.948,0.699-11.872
	c-0.24-0.691-0.557-1.395-0.955-2.155l-0.407-0.772l0.86-0.143c0.887-0.146,1.768-0.365,2.617-0.662
	c3.922-1.361,7.08-4.167,8.891-7.904l7.514-15.502l4.752,2.302l2.092-4.32 M68.171,32.735l36.259,17.571l-1.26,2.603l-4.752-2.303
	l-7.93,16.36c-1.697,3.507-4.663,6.143-8.343,7.42c-0.795,0.275-1.624,0.484-2.464,0.621l-2.163,0.361l1.024,1.938
	c0.383,0.731,0.678,1.395,0.897,2.022c1.274,3.688,1.042,7.646-0.658,11.146l-7.927,16.364l5.004,2.425l-1.26,2.603l-36.264-17.57
	l1.265-2.604l4.999,2.422l7.928-16.359c2.065-4.258,6.107-7.256,10.816-8.021l2.157-0.355l-1.015-1.938
	c-0.385-0.743-0.681-1.413-0.902-2.05c-1.281-3.682-1.049-7.639,0.651-11.145l7.927-16.359l-5.256-2.547L68.171,32.735z"/>
</svg>
