<?xml version="1.0" encoding="utf-8"?>
<!-- Generator: Adobe Illustrator 16.0.0, SVG Export Plug-In . SVG Version: 6.00 Build 0)  -->
<!DOCTYPE svg PUBLIC "-//W3C//DTD SVG 1.1//EN" "http://www.w3.org/Graphics/SVG/1.1/DTD/svg11.dtd">
<svg version="1.1" id="Capa_1" xmlns="http://www.w3.org/2000/svg" xmlns:xlink="http://www.w3.org/1999/xlink" x="0px" y="0px"
	 width="179.733px" height="209.386px" viewBox="0 0 179.733 209.386" enable-background="new 0 0 179.733 209.386"
	 xml:space="preserve">
<path fill="#FFFFFF" d="M41.107,131.887H4.68V37.155h47.64c-4.521,7.821-9.445,15.096-15.784,19.203l4.096,6.321
	c8.81-5.707,14.793-15.552,20.35-25.523h1.334c5.018,7.955,10.757,16.077,20.098,24.082l4.901-5.719
	c-7.003-6.002-11.875-12.199-16.01-18.363h47.251v35.027l0.576-1.162l4.104,2.036V32.567H83.892
	c3.207-1.305,6.137-2.842,8.594-4.589c6.013-4.275,9.029-10.064,8.274-15.885c-0.651-5.025-4.084-9.286-8.958-11.121
	C85.927-1.24,79.292,0.364,73.6,5.374C68.799,9.6,64.867,15.25,61.276,21.275c-3.176-4.861-6.718-9.694-11.239-14.215
	c-5.541-5.541-12.428-7.602-18.421-5.512c-5.009,1.745-8.488,6.038-9.082,11.202c-0.718,6.233,2.838,12.319,9.756,16.701
	c1.925,1.219,3.88,2.238,5.844,3.116H0v103.827h43.094L41.107,131.887z M78.576,11.028c3.534-3.11,7.387-4.206,10.571-3.007
	c2.263,0.852,3.85,2.784,4.143,5.041c0.384,2.969-1.499,6.169-5.169,8.777c-5.019,3.567-13,6.483-21.85,7.414
	c-0.158-0.256-0.315-0.513-0.473-0.769C69.707,21.592,73.67,15.346,78.576,11.028 M36.32,23.087
	c-4.38-2.773-6.678-6.228-6.304-9.476c0.261-2.268,1.823-4.165,4.079-4.951c0.75-0.261,1.533-0.39,2.337-0.39
	c2.678,0,5.587,1.424,8.278,4.116c5.049,5.049,8.747,10.521,12.353,16.291c-0.14,0.253-0.28,0.507-0.42,0.76
	C49.631,28.946,42.542,27.027,36.32,23.087"/>
<line fill="#FFFFFF" x1="46.109" y1="131.887" x2="48.096" y2="136.393"/>
<path fill="#FFFFFF" d="M157.223,89.916l-1.238,2.487c-1.309,2.638-3.902,4.337-6.939,4.545c-3.325,0.234-6.46-1.412-8.561-4.503
	c-1.402-2.06-1.56-4.777-0.412-7.09l1.571-3.167L119.131,71.02l-16.374,33.004l-5.275-11.966l-22.992,10.135l1.117,2.543
	c1.188,2.696,0.831,5.776-0.956,8.241c-1.963,2.709-5.223,4.054-8.939,3.69c-2.481-0.243-4.669-1.86-5.709-4.224l-1.43-3.234
	l-22.994,10.137l39.692,90.039l22.992-10.136l-1.116-2.544c-0.594-1.345-0.807-2.834-0.614-4.307
	c0.388-2.985,2.378-5.61,5.195-6.853c2.818-1.239,6.099-0.942,8.563,0.786c1.217,0.852,2.172,2.016,2.767,3.363l1.123,2.536
	l14.757-6.505l7.066,3.505l43.729-88.148L157.223,89.916z M121.195,77.154l14.355,7.121c-1.399,3.571-0.988,7.602,1.148,10.745
	c2.995,4.405,7.72,6.837,12.658,6.495c3.991-0.273,7.609-2.345,9.811-5.523l14.431,7.158l-37.715,76.025l-30.722-69.697
	L121.195,77.154z M123.599,183.079l-7.197,3.174c-0.897-1.437-2.081-2.684-3.483-3.667c-3.768-2.642-8.762-3.11-13.036-1.228
	c-4.272,1.885-7.297,5.889-7.889,10.451c-0.221,1.699-0.097,3.416,0.357,5.045l-14.738,6.496l-35.999-81.662l14.662-6.465
	c1.846,3.361,5.206,5.627,8.988,5.998c5.309,0.531,10.195-1.557,13.094-5.56c2.346-3.24,3.074-7.346,2.042-11.073l14.74-6.496
	l4.969,11.271l2.404,5.453l28.626,64.938l-2.086,0.922L123.599,183.079z"/>
</svg>
