<?xml version="1.0" encoding="utf-8"?>
<!-- Generator: Adobe Illustrator 16.0.0, SVG Export Plug-In . SVG Version: 6.00 Build 0)  -->
<!DOCTYPE svg PUBLIC "-//W3C//DTD SVG 1.1//EN" "http://www.w3.org/Graphics/SVG/1.1/DTD/svg11.dtd">
<svg version="1.1" id="Capa_1" xmlns="http://www.w3.org/2000/svg" xmlns:xlink="http://www.w3.org/1999/xlink" x="0px" y="0px"
	 width="397px" height="139.333px" viewBox="0 0 397 139.333" enable-background="new 0 0 397 139.333" xml:space="preserve">
<path fill="#595A5C" d="M52.906,14.638H41.902V6.842H18.904v7.796h-11H6.672v39.667h47.464V14.638H52.906z M20.597,8.75h19.614
	v5.738H20.597V8.75z M9.597,16.546h2.393h36.828h2.393h1.238v14.016H36.063H24.75H8.365V16.546H9.597z M26.442,32.471h7.927v2.48
	h-7.927V32.471z M8.365,52.397V32.471H24.75v4.387h11.313v-4.387h16.386v19.927H8.365z"/>
<path fill="#595A5C" d="M98.046,34.3H79.433l-0.012-0.83c0-3.788,1.813-7.296,4.724-9.172l0.42-0.266l0.36,0.358
	c1.059,1.046,2.416,1.621,3.814,1.621c1.4,0,2.753-0.575,3.813-1.621l0.361-0.358l0.418,0.266c2.915,1.876,4.723,5.384,4.723,9.172
	L98.046,34.3z M80.758,32.866h15.961c-0.165-2.875-1.529-5.504-3.663-7.063c-1.241,1.059-2.755,1.638-4.316,1.638
	c-1.564,0-3.078-0.58-4.313-1.638C82.29,27.362,80.927,29.991,80.758,32.866"/>
<path fill="#595A5C" d="M88.739,24.746c-1.337,0-2.577-0.604-3.488-1.708c-0.825-1-1.278-2.305-1.278-3.668
	c0-2.966,2.135-5.373,4.767-5.373c2.631,0,4.771,2.407,4.771,5.373c0,1.363-0.457,2.668-1.282,3.668
	C91.315,24.142,90.076,24.746,88.739,24.746 M88.739,15.425c-1.901,0-3.453,1.771-3.453,3.945c0,1.014,0.338,1.976,0.946,2.714
	c0.66,0.795,1.55,1.237,2.507,1.237c0.96,0,1.847-0.441,2.507-1.237c0.611-0.738,0.945-1.701,0.945-2.714
	C92.191,17.196,90.645,15.425,88.739,15.425"/>
<path fill="#595A5C" d="M88.739,61.817c-0.776,0-1.491-0.35-2.021-0.992c-0.473-0.569-0.733-1.318-0.733-2.108
	c0-1.7,1.232-3.088,2.754-3.088s2.756,1.388,2.756,3.088c0,0.79-0.264,1.539-0.736,2.108C90.234,61.467,89.515,61.817,88.739,61.817
	 M88.739,57.056c-0.792,0-1.44,0.749-1.44,1.66c0,0.437,0.146,0.847,0.399,1.156c0.275,0.33,0.645,0.513,1.041,0.513
	c0.396,0,0.765-0.183,1.04-0.513c0.257-0.31,0.399-0.72,0.399-1.156C90.179,57.805,89.534,57.056,88.739,57.056"/>
<path fill="#595A5C" d="M88.739,45.02c-9.302,0-16.872-8.562-16.872-19.09c0-10.521,7.57-19.088,16.872-19.088
	c9.3,0,16.872,8.567,16.872,19.088C105.611,36.458,98.039,45.02,88.739,45.02 M88.739,8.988c-8.212,0-14.894,7.602-14.894,16.942
	c0,9.347,6.682,16.946,14.894,16.946s14.896-7.599,14.896-16.946C103.635,16.589,96.951,8.988,88.739,8.988"/>
<rect x="88.246" y="46.343" fill="#595A5C" width="0.986" height="8.264"/>
<path fill="#595A5C" d="M67.277,52.162c-0.73,0-1.403-0.297-1.913-0.855c-0.55-0.589-0.831-1.391-0.788-2.246
	c0.037-0.769,0.342-1.501,0.854-2.055c0.532-0.578,1.236-0.907,1.98-0.923c0.753-0.021,1.461,0.289,1.981,0.85
	c0.527,0.57,0.804,1.335,0.788,2.153c-0.016,0.802-0.319,1.571-0.854,2.152c-0.51,0.546-1.182,0.88-1.892,0.92
	C67.38,52.162,67.329,52.162,67.277,52.162 M66.292,50.298c0.281,0.305,0.662,0.451,1.072,0.435c0.386-0.024,0.748-0.203,1.03-0.513
	c0.294-0.313,0.459-0.724,0.468-1.167c0.009-0.419-0.135-0.819-0.399-1.103c-0.27-0.293-0.633-0.448-1.021-0.44
	c-0.402,0.008-0.788,0.192-1.08,0.509c-0.279,0.305-0.448,0.699-0.469,1.119C65.87,49.582,66.013,49.992,66.292,50.298"/>
<polygon fill="#595A5C" points="70.407,46.591 69.709,45.834 75.097,39.99 75.792,40.748 "/>
<path fill="#595A5C" d="M58.528,28.936c-0.722,0-1.408-0.287-1.938-0.801c-0.587-0.569-0.91-1.348-0.91-2.191
	c0-0.838,0.323-1.621,0.91-2.187c0.53-0.517,1.217-0.8,1.938-0.8c1.571,0,2.851,1.34,2.851,2.986
	C61.379,27.594,60.1,28.936,58.528,28.936 M58.528,24.385c-0.396,0-0.771,0.155-1.06,0.434c-0.304,0.295-0.473,0.696-0.473,1.125
	c0,0.434,0.169,0.83,0.473,1.129c0.289,0.279,0.664,0.434,1.06,0.434c0.846,0,1.534-0.7,1.534-1.563
	C60.063,25.086,59.374,24.385,58.528,24.385"/>
<rect x="62.322" y="25.409" fill="#595A5C" width="7.615" height="1.07"/>
<path fill="#595A5C" d="M118.951,28.936c-1.576,0-2.852-1.341-2.852-2.992c0-1.646,1.275-2.986,2.852-2.986
	c0.721,0,1.411,0.283,1.937,0.8c0.592,0.565,0.914,1.348,0.914,2.187c0,0.843-0.322,1.622-0.914,2.191
	C120.362,28.648,119.672,28.936,118.951,28.936 M118.951,24.385c-0.848,0-1.534,0.701-1.534,1.559c0,0.863,0.687,1.563,1.534,1.563
	c0.395,0,0.773-0.155,1.058-0.434c0.305-0.299,0.473-0.696,0.473-1.129c0-0.429-0.168-0.83-0.473-1.125
	C119.725,24.54,119.346,24.385,118.951,24.385"/>
<rect x="107.542" y="25.409" fill="#595A5C" width="7.614" height="1.07"/>
<path fill="#595A5C" d="M110.197,52.162c-0.046,0-0.102,0-0.158-0.004c-0.704-0.041-1.376-0.375-1.885-0.92
	c-0.536-0.581-0.837-1.35-0.852-2.152c-0.023-0.818,0.259-1.583,0.778-2.153c0.525-0.561,1.232-0.871,1.985-0.85
	c0.746,0.016,1.447,0.345,1.98,0.923c0.514,0.553,0.813,1.286,0.851,2.055c0.046,0.855-0.231,1.657-0.78,2.246
	C111.608,51.864,110.933,52.162,110.197,52.162 M110.003,47.51c-0.38,0-0.728,0.155-0.983,0.432
	c-0.27,0.292-0.413,0.692-0.405,1.111c0.013,0.443,0.178,0.854,0.465,1.167c0.286,0.31,0.654,0.489,1.036,0.513
	c0.413,0.017,0.792-0.13,1.069-0.435c0.28-0.306,0.424-0.717,0.4-1.16c-0.022-0.419-0.187-0.813-0.464-1.119
	c-0.294-0.317-0.68-0.501-1.082-0.509H110.003z"/>
<polygon fill="#595A5C" points="107.069,46.591 101.684,40.748 102.385,39.99 107.769,45.834 "/>
<path fill="#595A5C" d="M176.184,14.266l-0.49,1.076c-0.521,1.138-1.556,1.874-2.765,1.961c-1.327,0.104-2.573-0.608-3.412-1.94
	c-0.556-0.892-0.623-2.071-0.167-3.067l0.631-1.371l-8.966-4.826l-6.521,14.262l-2.102-5.17l-9.159,4.38l0.445,1.099
	c0.473,1.163,0.33,2.496-0.38,3.558c-0.785,1.176-2.082,1.75-3.56,1.597c-0.989-0.105-1.858-0.805-2.275-1.826l-0.568-1.396
	l-9.158,4.38l15.806,38.911l9.161-4.387l-0.445-1.099c-0.239-0.586-0.324-1.225-0.246-1.86c0.153-1.289,0.949-2.425,2.07-2.961
	c1.121-0.533,2.427-0.408,3.41,0.341c0.483,0.366,0.862,0.871,1.102,1.453l0.445,1.095l5.882-2.813l2.809,1.522l17.418-38.096
	L176.184,14.266z M161.837,8.754l5.718,3.074c-0.56,1.542-0.395,3.284,0.457,4.643c1.189,1.904,3.071,2.954,5.037,2.808
	c1.59-0.117,3.03-1.014,3.912-2.387l5.745,3.091l-15.021,32.85L155.45,22.717L161.837,8.754z M162.793,54.521l-2.865,1.372
	c-0.356-0.618-0.829-1.16-1.39-1.583c-1.497-1.143-3.488-1.347-5.188-0.533c-1.705,0.814-2.907,2.547-3.145,4.517
	c-0.091,0.736-0.04,1.478,0.145,2.181l-5.872,2.809l-14.336-35.288l5.837-2.795c0.737,1.455,2.074,2.434,3.579,2.592
	c2.116,0.234,4.063-0.671,5.217-2.401c0.935-1.399,1.225-3.174,0.813-4.787l5.87-2.804l1.979,4.867l0.957,2.358l11.4,28.061
	l-0.828,0.398L162.793,54.521z"/>
<path fill="#595A5C" d="M218.433,17.851c0.99-0.492,1.927-1.021,2.715-1.631c2.438-1.88,3.66-4.428,3.353-6.979
	c-0.263-2.209-1.653-4.08-3.626-4.889c-2.378-0.97-5.068-0.266-7.374,1.935c-1.943,1.862-3.533,4.342-4.988,6.987
	c-1.282-2.137-2.715-4.259-4.55-6.247c-2.242-2.433-5.03-3.337-7.457-2.421c-2.026,0.767-3.438,2.655-3.679,4.925
	c-0.29,2.737,1.146,5.41,3.95,7.334c0.545,0.375,1.104,0.684,1.659,0.985h-10.96v38.835h42.384V17.851H218.433z M215.515,9.073
	c1.422-1.334,2.974-1.804,4.26-1.288c0.907,0.362,1.545,1.192,1.666,2.159c0.158,1.277-0.601,2.649-2.079,3.771
	c-2.024,1.53-5.238,2.783-8.809,3.183c-0.062-0.11-0.128-0.22-0.188-0.33C211.94,13.611,213.538,10.927,215.515,9.073
	 M195.405,9.945c0.12-0.967,0.763-1.797,1.672-2.159c1.282-0.517,2.835-0.047,4.257,1.288c1.979,1.854,3.577,4.538,5.153,7.496
	c-0.061,0.11-0.127,0.22-0.196,0.33c-3.563-0.399-6.777-1.653-8.799-3.183C196.014,12.594,195.251,11.222,195.405,9.945
	 M227.719,54.07h-38.101V20.467h15.151c-1.797,3.353-3.766,6.453-6.275,8.219l1.66,2.775c3.509-2.466,5.909-6.689,8.126-10.995
	h0.782c2,3.426,4.308,6.917,8.008,10.36l1.985-2.511c-2.761-2.567-4.693-5.212-6.336-7.849h14.999V54.07z"/>
<path fill="#595A5C" d="M273.378,26.007V5.897h-18.791l-1.751-1.876h-2.477h-12.425v52.57h37.191v-26.06v-2.649L273.378,26.007z
	 M273.378,54.715h-33.688V5.897h12.418l21.271,22.758V54.715z"/>
<polygon fill="#595959" points="330.982,54.574 284.175,54.574 284.175,10.461 284.175,8.768 282.615,8.768 282.615,56.271 
	332.541,56.271 332.541,54.574 "/>
<rect x="289.257" y="8.768" fill="#595959" width="4.572" height="41.978"/>
<rect x="297.398" y="18.323" fill="#595959" width="4.577" height="32.423"/>
<rect x="305.542" y="34.172" fill="#595959" width="4.572" height="16.573"/>
<rect x="313.685" y="13.846" fill="#595959" width="4.575" height="36.899"/>
<rect x="321.822" y="23.763" fill="#595959" width="4.577" height="26.983"/>
<path fill="#595959" d="M381.396,8.046V4.648h-11.964v3.398h-10.145V4.648h-11.96v3.398h-5.048v47.918h44.166V8.046H381.396z
	 M384.831,54.215h-40.94V9.8h40.94V54.215z"/>
<path fill="#595959" d="M352.502,51.879h1.613v-7.011h9.442v7.011h1.606v-7.011h9.444v7.011h1.612v-7.011h6.459v-1.742h-6.459V32.88
	h6.459v-1.75h-6.459V20.884h6.459v-1.745h-6.459v-7.011h-1.612v7.011h-9.444v-7.011h-1.606v7.011h-9.442v-7.011h-1.613v7.011h-6.457
	v1.745h6.457V31.13h-6.457v1.75h6.457v10.246h-6.457v1.742h6.457V51.879z M374.608,43.125h-9.437V32.88h9.437V43.125z
	 M374.608,31.13h-9.437V20.884h9.437V31.13z M354.115,20.884h9.436V31.13h-9.436V20.884z M354.115,32.88h9.436v10.246h-9.436V32.88z
	"/>
<path fill="#595959" d="M56.992,110.349c-6.99-9.594-16.314-14.875-26.244-14.875c-9.931,0-19.25,5.281-26.243,14.875l-0.692,0.944
	l0.692,0.944c6.993,9.596,16.312,14.878,26.243,14.878c9.93,0,19.253-5.282,26.244-14.878 M22.859,119.851
	c-4.346-4.72-4.346-12.394,0-17.11c2.11-2.291,4.909-3.548,7.89-3.548c2.979,0,5.779,1.257,7.889,3.548
	c2.107,2.282,3.267,5.321,3.267,8.553s-1.159,6.271-3.267,8.558C34.285,124.572,27.211,124.572,22.859,119.851 M7.413,111.293
	c3.917-5.078,8.549-8.744,13.569-10.808c-0.037,0.033-0.07,0.062-0.104,0.098c-5.445,5.904-5.445,15.516,0,21.421
	c0.034,0.036,0.067,0.064,0.104,0.101C15.962,120.038,11.33,116.376,7.413,111.293 M40.512,122.105
	c0.038-0.036,0.075-0.064,0.105-0.101c2.641-2.861,4.088-6.666,4.088-10.711s-1.447-7.85-4.088-10.71
	c-0.03-0.036-0.067-0.064-0.105-0.098c5.023,2.063,9.658,5.729,13.57,10.808C50.17,116.376,45.535,120.038,40.512,122.105"/>
<path fill="#595959" d="M30.75,106.045c-2.672,0-4.834,2.343-4.834,5.245c0,2.896,2.162,5.248,4.834,5.248
	c2.67,0,4.836-2.352,4.836-5.248C35.586,108.388,33.42,106.045,30.75,106.045"/>
<path fill="#595A5C" d="M227.712,124.803c-0.301-0.081-0.616-0.049-0.879,0.123c-0.435,0.268-0.884,0.521-1.342,0.764l-0.323,0.172
	c-2.045,1.033-4.099,1.733-6.199,2.14c-0.571,0.105-1.076,0.179-1.576,0.245c-11.469,1.398-22.378-6.096-26.194-17.8l-0.15-0.487
	c-0.835-2.719-1.261-5.566-1.261-8.464c0-2.896,0.426-5.763,1.264-8.496l0.212-0.643c2.933-8.578,9.402-14.853,17.376-16.993
	l0.252-0.064c1.933-0.48,3.755-0.709,5.58-0.717l1.114-0.009l0.02,2.751l4.373-4.02l-4.429-3.979l0.021,2.742l-1.125,0.008
	c-7.187,0.041-13.938,3.101-19.023,8.618c-0.5,0.546-0.977,1.107-1.431,1.685c-4.098,5.209-6.318,11.499-6.497,18.255l-0.019,0.838
	c0,0.374,0.007,0.749,0.021,1.114c0.239,6.268,2.18,12.054,5.628,16.879c0.364,0.521,0.727,0.993,1.087,1.441
	c0.438,0.527,0.814,0.968,1.21,1.391c4.01,4.354,9.062,7.187,14.597,8.204c5.747,1.025,11.08,0.179,16.026-2.328l0.335-0.179
	c0.614-0.317,1.11-0.594,1.582-0.895c0.274-0.164,0.465-0.432,0.552-0.758c0.078-0.317,0.042-0.66-0.108-0.944
	C228.255,125.104,228.003,124.893,227.712,124.803"/>
<path fill="#595A5C" d="M234.739,86.822c0.507,0.822,1.608,1.066,2.371,0.506c0.788-0.57,0.992-1.726,0.466-2.581
	c-0.309-0.504-0.64-1-0.977-1.48c-0.574-0.822-1.654-0.969-2.407-0.35c-0.364,0.301-0.593,0.739-0.657,1.229
	c-0.061,0.488,0.064,0.977,0.342,1.375C234.172,85.943,234.466,86.383,234.739,86.822"/>
<path fill="#595A5C" d="M237.688,93.438c0.148,0.513,0.284,1.025,0.407,1.546c0.229,0.97,1.166,1.596,2.083,1.345
	c0.441-0.122,0.813-0.424,1.049-0.854c0.233-0.424,0.301-0.92,0.188-1.409c-0.14-0.586-0.294-1.179-0.466-1.758
	c-0.144-0.472-0.442-0.854-0.848-1.082c-0.405-0.228-0.866-0.27-1.304-0.113C237.901,91.42,237.402,92.471,237.688,93.438"/>
<path fill="#595A5C" d="M235.339,118.537c-0.306-0.293-0.705-0.455-1.11-0.455c-0.044,0-0.085,0.009-0.127,0.009
	c-0.458,0.031-0.869,0.259-1.17,0.635c-0.322,0.406-0.659,0.805-0.998,1.179c-0.322,0.359-0.494,0.822-0.487,1.326
	c0,0.489,0.188,0.952,0.511,1.303c0.659,0.7,1.784,0.675,2.422-0.032c0.392-0.432,0.773-0.887,1.141-1.343
	c0.614-0.772,0.54-1.953-0.172-2.621H235.339z"/>
<path fill="#595A5C" d="M240.606,100.502c-0.021,0-0.035,0-0.053,0c-0.437,0-0.848,0.18-1.17,0.504
	c-0.332,0.343-0.525,0.799-0.538,1.295c-0.015,0.537-0.044,1.075-0.085,1.603c-0.046,0.498,0.09,0.978,0.386,1.359
	c0.293,0.384,0.7,0.618,1.159,0.659c0.06,0.009,0.108,0.009,0.157,0.009c0.877,0,1.619-0.741,1.703-1.693
	c0.052-0.602,0.083-1.221,0.098-1.822c0.015-0.496-0.15-0.969-0.466-1.326C241.49,100.722,241.063,100.519,240.606,100.502"/>
<path fill="#595A5C" d="M239.412,110.017c-0.202-0.091-0.416-0.131-0.623-0.131c-0.681,0-1.335,0.446-1.598,1.179
	c-0.179,0.498-0.375,0.994-0.581,1.474c-0.394,0.937-0.021,2.036,0.837,2.466c0.84,0.432,1.891,0,2.273-0.903
	c0.231-0.554,0.458-1.114,0.659-1.685c0.17-0.455,0.157-0.959-0.022-1.416C240.17,110.544,239.84,110.196,239.412,110.017"/>
<path fill="#595A5C" d="M231.079,77.374c-0.449-0.365-0.923-0.716-1.392-1.05c-0.277-0.195-0.6-0.301-0.928-0.301
	c-0.119,0-0.238,0.016-0.354,0.049c-0.451,0.098-0.837,0.382-1.085,0.797c-0.513,0.863-0.288,2.011,0.504,2.572
	c0.412,0.293,0.823,0.594,1.215,0.911c0.735,0.595,1.854,0.415,2.393-0.383c0.277-0.398,0.386-0.886,0.322-1.383
	C231.684,78.098,231.439,77.667,231.079,77.374"/>
<path fill="#595A5C" d="M214.955,86.367l-3.518,7.878c-0.754,1.684-0.862,3.589-0.288,5.371c0.094,0.301,0.228,0.618,0.4,0.976
	l0.45,0.937l-0.96,0.172c-2.086,0.365-3.881,1.813-4.802,3.857l-3.518,7.878l-2.213-1.164l-0.562,1.253l16.09,8.455l0.558-1.253
	l-2.215-1.164l3.51-7.878c0.758-1.684,0.862-3.589,0.292-5.363c-0.098-0.301-0.225-0.626-0.396-0.976l-0.459-0.936l0.96-0.172
	c0.375-0.064,0.743-0.162,1.097-0.301c1.635-0.61,2.95-1.881,3.702-3.572l3.518-7.871l2.111,1.108l0.559-1.254l-16.09-8.455
	l-0.559,1.253L214.955,86.367z M216.737,111.074l-3.518,7.878l-9.336-4.906l3.518-7.878c1.246-2.784,4.344-3.947,6.905-2.621
	l0.168,0.098c1.179,0.668,2.063,1.782,2.49,3.134C217.424,108.193,217.34,109.723,216.737,111.074 M225.445,91.883l-3.518,7.878
	c-0.604,1.352-1.657,2.37-2.967,2.866c-0.556,0.203-1.125,0.309-1.702,0.309c-0.773,0-1.523-0.187-2.229-0.545l-0.191-0.114
	c-1.163-0.658-2.043-1.774-2.478-3.126c-0.459-1.424-0.375-2.944,0.231-4.296l3.518-7.878L225.445,91.883z"/>
<path fill="#595A5C" d="M212.985,83.274l-0.929,2.084l2.333,1.22l-3.335,7.464c-0.802,1.798-0.914,3.825-0.308,5.72
	c0.104,0.326,0.248,0.668,0.428,1.042l0.177,0.375l-0.38,0.064c-2.228,0.398-4.132,1.93-5.108,4.118l-3.338,7.462l-2.215-1.162
	l-0.932,2.075l16.851,8.861l0.928-2.083l-2.221-1.162l3.335-7.465c0.802-1.798,0.914-3.833,0.312-5.72
	c-0.109-0.334-0.245-0.668-0.424-1.033l-0.182-0.376l0.384-0.064c0.39-0.072,0.779-0.179,1.158-0.317
	c1.736-0.659,3.144-2.011,3.946-3.808l3.329-7.463l2.108,1.106l0.931-2.076 M213.182,83.893l16.09,8.455l-0.563,1.254l-2.106-1.108
	l-3.518,7.871c-0.752,1.691-2.067,2.962-3.699,3.572c-0.353,0.139-0.725,0.236-1.096,0.301l-0.96,0.172l0.455,0.936
	c0.172,0.35,0.302,0.675,0.396,0.976c0.566,1.774,0.466,3.68-0.292,5.363l-3.52,7.878l2.221,1.164l-0.554,1.253l-16.092-8.455
	l0.56-1.253l2.221,1.164l3.518-7.878c0.913-2.044,2.708-3.492,4.798-3.857l0.96-0.172l-0.454-0.937
	c-0.169-0.357-0.299-0.675-0.4-0.983c-0.567-1.774-0.466-3.68,0.292-5.363l3.518-7.878l-2.332-1.221L213.182,83.893z"/>
<path fill="#595959" d="M91.495,79.661c-13.431,0-24.317,11.816-24.317,26.385c0,14.574,10.887,26.383,24.317,26.383
	c13.433,0,24.317-11.809,24.317-26.383C115.813,91.477,104.928,79.661,91.495,79.661 M91.495,128.474
	c-11.414,0-20.669-10.044-20.669-22.429c0-12.388,9.255-22.43,20.669-22.43c11.419,0,20.671,10.042,20.671,22.43
	C112.166,118.43,102.914,128.474,91.495,128.474"/>
<path fill="#595959" d="M98.913,103.725h-5.277v-5.722c0-0.683-0.513-1.236-1.139-1.236h-2.005c-0.626,0-1.137,0.554-1.137,1.236
	v5.722h-5.276c-0.627,0-1.133,0.554-1.133,1.237v2.173c0,0.676,0.506,1.229,1.133,1.229h5.276v5.729
	c0,0.676,0.511,1.229,1.137,1.229h2.005c0.626,0,1.139-0.553,1.139-1.229v-5.729h5.277c0.621,0,1.136-0.553,1.136-1.229v-2.173
	C100.049,104.279,99.534,103.725,98.913,103.725"/>
<path fill="#595959" d="M163.935,74.038c-4.698-3.688-10.855-3.663-15.594,0.049c-4.514,3.54-6.563,9.83-4.709,15.486
	c2.465,7.528,6.686,13.893,11.725,19.654c0.219,0.253,0.545,0.39,1.007,0.716c5.376-5.956,9.808-12.574,12.38-20.442
	C170.593,83.86,168.48,77.602,163.935,74.038 M156.198,94.822c-4.889,0.017-8.765-4.206-8.781-9.563
	c-0.018-5.403,3.793-9.578,8.73-9.57c4.916,0.009,8.826,4.216,8.83,9.515C164.984,90.493,161.044,94.805,156.198,94.822"/>
<path fill="#595959" d="M178.128,100.128h-12.148c-0.379,0.699-0.781,1.399-1.197,2.084h13.346c1.639,0,2.967,1.375,2.967,3.067
	v16.683c0,1.686-1.328,3.069-2.967,3.069h-43.37c-1.636,0-2.965-1.384-2.965-3.069V105.28c0-1.692,1.329-3.067,2.965-3.067h13.339
	c-0.415-0.685-0.81-1.385-1.194-2.084h-12.145c-2.745,0-4.98,2.312-4.98,5.151v16.683c0,2.841,2.235,5.153,4.98,5.153h43.37
	c2.749,0,4.98-2.313,4.98-5.153V105.28C183.108,102.44,180.877,100.128,178.128,100.128"/>
<g>
	<g>
		<path fill="#595A5C" d="M-35.333-14.506c3.224,0,3.224-5,0-5S-38.557-14.506-35.333-14.506L-35.333-14.506z"/>
	</g>
</g>
<g>
	<path fill="none" stroke="#B9B8B8" stroke-width="0.7" stroke-miterlimit="10" d="M311.418,102.936
		c0,17.261-12.893,31.25-28.803,31.25s-28.805-13.989-28.805-31.25c0-17.262,12.895-31.251,28.805-31.251
		S311.418,85.674,311.418,102.936z"/>
	<path fill="#B9B8B8" d="M281.603,95.482h3.976c1.223,0,2.138,1.281,1.879,2.645c-1.023,5.392-3.668,16.666-2.704,17.758
		c0.389,0.443,1.471,0.351,2.266,0.215c0.308-0.053,0.494,0.358,0.28,0.61c-1.878,2.211-7.258,7.805-10.078,3.223
		c-2.819-4.569,1.146-18.444,2.567-22.99C280.062,96.067,280.784,95.482,281.603,95.482"/>
	<path fill="#B9B8B8" d="M288.998,89.105c0,2.718-2.032,4.92-4.537,4.92c-2.507,0-4.532-2.202-4.532-4.92s2.025-4.92,4.532-4.92
		C286.966,84.185,288.998,86.387,288.998,89.105"/>
</g>
</svg>
