<?xml version="1.0" encoding="utf-8"?>
<!-- Generator: Adobe Illustrator 16.0.0, SVG Export Plug-In . SVG Version: 6.00 Build 0)  -->
<!DOCTYPE svg PUBLIC "-//W3C//DTD SVG 1.1//EN" "http://www.w3.org/Graphics/SVG/1.1/DTD/svg11.dtd">
<svg version="1.1" id="Capa_1" xmlns="http://www.w3.org/2000/svg" xmlns:xlink="http://www.w3.org/1999/xlink" x="0px" y="0px"
	 width="249.173px" height="203.719px" viewBox="0 0 249.173 203.719" enable-background="new 0 0 249.173 203.719"
	 xml:space="preserve">
<path fill="#FFFFFF" d="M222.126,86.582c-5.275,0-10.063,2.092-13.598,5.482l-44.902-39.385c1.527-2.796,2.417-6.021,2.417-9.441
	c0-10.871-8.849-19.723-19.724-19.723c-10.881,0-19.718,8.852-19.718,19.723c0,7.974,4.766,14.844,11.595,17.945l-28.184,74.663
	c-2.726-1.439-5.83-2.258-9.115-2.258c-6.28,0-11.862,2.951-15.476,7.524l-41.425-24.429c1.879-3.021,2.982-6.573,2.982-10.38
	c0-10.872-8.841-19.722-19.712-19.722s-19.722,8.85-19.722,19.722c0,10.871,8.851,19.722,19.722,19.722
	c5.817,0,11.044-2.553,14.658-6.585l41.598,24.541c-1.5,2.775-2.347,5.95-2.347,9.318c0,10.872,8.841,19.723,19.722,19.723
	c10.861,0,19.711-8.851,19.711-19.723c0-6.318-3.002-11.942-7.645-15.557l28.47-75.426c1.562,0.407,3.194,0.643,4.887,0.643
	c6.207,0,11.752-2.899,15.375-7.412l44.57,39.086c-2.41,3.277-3.861,7.299-3.861,11.669c0,10.871,8.852,19.712,19.723,19.712
	s19.723-8.841,19.723-19.712C241.849,95.432,232.998,86.582,222.126,86.582 M27.267,115.734c-5.205,0-9.432-4.236-9.432-9.431
	c0-5.206,4.227-9.435,9.432-9.435c5.195,0,9.431,4.229,9.431,9.435C36.697,111.498,32.461,115.734,27.267,115.734 M100.897,162.734
	c-5.209,0-9.434-4.229-9.434-9.435c0-5.194,4.225-9.431,9.434-9.431c5.195,0,9.42,4.236,9.42,9.431
	C110.317,158.506,106.092,162.734,100.897,162.734 M146.32,52.669c-5.204,0-9.43-4.226-9.43-9.432c0-5.195,4.226-9.432,9.43-9.432
	c5.199,0,9.425,4.237,9.425,9.432C155.745,48.443,151.519,52.669,146.32,52.669 M222.126,115.734c-5.195,0-9.432-4.236-9.432-9.431
	c0-5.206,4.236-9.435,9.432-9.435c5.206,0,9.436,4.229,9.436,9.435C231.562,111.498,227.333,115.734,222.126,115.734"/>
</svg>
