<?xml version="1.0" encoding="utf-8"?>
<!-- Generator: Adobe Illustrator 16.0.0, SVG Export Plug-In . SVG Version: 6.00 Build 0)  -->
<!DOCTYPE svg PUBLIC "-//W3C//DTD SVG 1.1//EN" "http://www.w3.org/Graphics/SVG/1.1/DTD/svg11.dtd">
<svg version="1.1" id="Capa_1" xmlns="http://www.w3.org/2000/svg" xmlns:xlink="http://www.w3.org/1999/xlink" x="0px" y="0px"
	 width="152.139px" height="147.854px" viewBox="0 0 152.139 147.854" enable-background="new 0 0 152.139 147.854"
	 xml:space="preserve">
<path fill="#EC652A" d="M141.212,40.037l10.927-10.929L123.031,0l-10.396,10.396C101.849,4.19,89.363,0.621,76.052,0.621
	c-13.302,0-25.78,3.564-36.561,9.763L29.108,0L0,29.108l10.904,10.905C5.507,50.246,2.436,61.887,2.436,74.237
	c0,19.304,7.479,36.887,19.678,50.03L7.291,139.092l5.757,5.757l14.931-14.93c12.909,11.16,29.71,17.935,48.073,17.935
	c18.372,0,35.18-6.781,48.092-17.951l14.945,14.946l5.76-5.757l-14.842-14.843c12.189-13.142,19.662-30.717,19.662-50.012
	C149.669,61.896,146.602,50.264,141.212,40.037 M141.525,74.237c0,36.103-29.371,65.473-65.473,65.473S10.58,110.34,10.58,74.237
	c0-36.102,29.37-65.473,65.472-65.473S141.525,38.136,141.525,74.237"/>
<polygon fill="#EC652A" points="80.124,17.791 71.979,17.791 71.979,70.165 71.979,75.737 71.979,78.311 129.933,78.311 
	129.933,70.165 80.124,70.165 "/>
</svg>
