<?xml version="1.0" encoding="utf-8"?>
<!-- Generator: Adobe Illustrator 16.0.0, SVG Export Plug-In . SVG Version: 6.00 Build 0)  -->
<!DOCTYPE svg PUBLIC "-//W3C//DTD SVG 1.1//EN" "http://www.w3.org/Graphics/SVG/1.1/DTD/svg11.dtd">
<svg version="1.1" id="Capa_1" xmlns="http://www.w3.org/2000/svg" xmlns:xlink="http://www.w3.org/1999/xlink" x="0px" y="0px"
	 width="388.843px" height="203.719px" viewBox="0 0 388.843 203.719" enable-background="new 0 0 388.843 203.719"
	 xml:space="preserve">
<path fill="#8E8E8E" d="M68.176,85.047l-3.989,18.755c-0.244,1.164-0.857,2.141-1.833,2.934c-1.012,0.826-2.082,1.24-3.213,1.24
	h-0.135c-1.136,0-2.022-0.414-2.66-1.24c-0.672-0.793-0.892-1.77-0.643-2.934L64.6,62.07c1.345-6.361,4.737-11.785,10.181-16.283
	c5.44-4.463,11.328-6.695,17.654-6.695c6.36,0,11.297,2.232,14.813,6.695c3.547,4.498,4.648,9.921,3.303,16.283
	c-1.345,6.326-4.737,11.74-10.182,16.233c-5.439,4.493-11.341,6.744-17.703,6.744H68.176z M70.01,76.56h14.495
	c4.004,0,7.715-1.42,11.143-4.264c3.422-2.814,5.563-6.221,6.421-10.227c0.856-4.005,0.169-7.432-2.063-10.276
	c-2.236-2.838-5.354-4.263-9.359-4.263c-4.005,0-7.737,1.425-11.188,4.263c-3.392,2.845-5.519,6.271-6.376,10.276L70.01,76.56z"/>
<path fill="#8E8E8E" d="M156.647,65.233c3.85,4.892,5.041,10.794,3.576,17.703l-4.449,20.867c-0.249,1.165-0.856,2.141-1.837,2.934
	c-1.006,0.826-2.078,1.24-3.208,1.24h-0.14c-1.131,0-2.017-0.414-2.659-1.24c-0.673-0.793-0.887-1.769-0.643-2.934l0.458-2.107
	c-5.624,4.189-11.586,6.281-17.883,6.281c-6.913,0-12.293-2.447-16.143-7.338c-3.856-4.891-5.046-10.795-3.576-17.703
	c1.463-6.909,5.165-12.812,11.097-17.703c5.928-4.891,12.349-7.337,19.262-7.337C147.412,57.896,152.792,60.342,156.647,65.233
	 M125.918,71.24c-3.886,3.243-6.316,7.144-7.293,11.696c-0.981,4.588-0.199,8.498,2.342,11.741
	c2.535,3.208,6.097,4.815,10.684,4.815c4.582,0,8.836-1.607,12.746-4.815c3.916-3.243,6.362-7.153,7.337-11.741
	c0.982-4.552,0.185-8.453-2.38-11.696c-2.51-3.237-6.057-4.861-10.64-4.861C134.127,66.379,129.862,68.003,125.918,71.24"/>
<path fill="#8E8E8E" d="M173.433,86.194c-0.732,3.392-0.154,6.296,1.743,8.712c1.894,2.417,4.553,3.622,7.981,3.622
	c3.391,0,6.54-1.205,9.443-3.622c2.904-2.387,4.728-5.29,5.46-8.712l5.135-24.079c0.244-1.161,0.857-2.157,1.834-2.979
	c1.01-0.827,2.096-1.24,3.258-1.24h0.094c1.16,0,2.047,0.413,2.658,1.24c0.674,0.822,0.889,1.817,0.639,2.979l-9.354,43.889
	c-1.191,5.658-4.373,10.564-9.539,14.725c-5.016,4.064-10.226,6.096-15.636,6.096c-4.344,0-8.06-1.07-11.148-3.207
	c-2.994-2.053-5.01-4.816-6.052-8.305c-0.338-1.131-0.139-2.275,0.598-3.436c0.702-1.195,1.694-1.988,2.979-2.387l0.184-0.094
	c1.071-0.334,2.033-0.32,2.889,0.049c0.856,0.395,1.435,1.051,1.743,1.973c0.673,2.076,1.958,3.74,3.851,4.996
	c1.927,1.285,4.174,1.928,6.744,1.928c3.267,0,6.386-1.211,9.354-3.627c2.995-2.445,4.847-5.35,5.55-8.711l0.643-3.074
	c-4.19,2.689-8.564,4.035-13.116,4.035c-5.748,0-10.226-2.033-13.439-6.098c-3.208-4.033-4.204-8.925-2.978-14.673l5.134-24.079
	c0.244-1.161,0.858-2.157,1.833-2.979c1.012-0.827,2.077-1.24,3.213-1.24h0.135c1.131,0,2.018,0.413,2.66,1.24
	c0.672,0.822,0.887,1.817,0.643,2.979L173.433,86.194z"/>
<path fill="#B8B8B7" d="M378.238,105.457h-8.963V91.961c0-3.768-3.035-6.85-6.744-6.85h-0.363c-3.711,0-6.746,3.082-6.746,6.85
	v13.496h-0.029c0.012,0.191,0.029,0.383,0.029,0.578v13.49v10.576v30.869c0,3.768,3.035,6.85,6.746,6.85h0.363
	c3.709,0,6.744-3.082,6.744-6.85v-41.445h8.963c3.711,0,6.746-3.082,6.746-6.85v-0.369
	C384.984,108.539,381.949,105.457,378.238,105.457"/>
<path fill="#B8B8B7" d="M271.154,130.76L271.154,130.76c-1.313-1.418-3.166-2.229-5.092-2.229l-17.941,0.01
	c-0.043-0.002-0.133-0.008-0.256-0.01c-0.813-0.018-3.213,0.092-5.141,1.904c-0.967,0.908-2.117,2.551-2.125,5.234
	c-0.008,1.688,0.65,3.322,1.805,4.479c0.846,0.852,2.354,1.865,4.754,1.865h10.961c-1.105,3.193-3.016,5.893-5.689,8.029
	c-3.629,2.91-8.076,4.389-13.211,4.389c-4.471,0-8.631-1.084-12.377-3.225c-3.947-2.232-7.07-5.463-9.281-9.604
	c-1.279-2.387-2.104-4.943-2.453-7.598c-0.68-5.191,0.279-10.133,2.854-14.688c2.02-3.572,4.947-6.443,8.725-8.547
	c1.389-0.789,2.816-1.43,4.279-1.922c2.383-0.803,4.855-1.209,7.391-1.209c6.535,0,12.672,2.533,18.236,7.531
	c2.713,2.436,6.877,2.324,9.482-0.266c1.373-1.369,2.092-3.195,2.025-5.143c-0.064-1.936-0.945-3.771-2.41-5.039
	c-8.193-7.096-17.461-10.694-27.545-10.694c-6.084,0-11.697,1.247-16.721,3.709c-0.73,0.358-1.449,0.742-2.154,1.151
	c-5.576,3.229-10.021,7.76-13.217,13.467c-3.176,5.68-4.787,11.92-4.787,18.549c0,8.889,2.814,16.832,8.361,23.615
	c7.23,8.828,17.131,13.305,29.426,13.305c10.307,0,18.65-3.299,24.807-9.803c1.674-1.77,3.098-3.73,4.322-5.834
	c2.693-4.629,4.32-10.033,4.801-16.186C273.13,134.09,272.464,132.178,271.154,130.76"/>
<path fill="#B8B8B7" d="M342.167,107.635c-6.949-9.043-16.357-13.628-27.967-13.628c-11.301,0-20.457,4.486-27.207,13.33
	c-5.287,6.906-7.969,14.885-7.969,23.711c0,10.451,3.406,19.27,10.125,26.211c6.723,6.947,15.309,10.471,25.52,10.471
	c4.975,0,9.516-0.805,13.492-2.389c6.885-2.715,12.572-7.6,16.9-14.523c0.965-1.543,1.256-3.445,0.795-5.223
	c-0.457-1.771-1.625-3.273-3.201-4.123c-2.883-1.547-6.434-0.617-8.26,2.156c-1.662,2.52-3.227,4.438-4.652,5.707
	c-4.326,3.871-9.475,5.754-15.746,5.754c-6.404,0-11.512-2.25-15.609-6.879c-3.031-3.438-4.74-7.648-5.703-12.404
	c-0.496-2.447,0.729-3.516,1.967-3.516h48.6c1.807,0,3.893-0.619,5.053-2.117c1.412-1.822,1.08-3.91,0.887-5.762
	C348.421,117.057,346.236,112.928,342.167,107.635 M332.689,119.398h-36.188c-0.803,0-1.682-1.508-0.992-3.09
	c2.201-5.039,7.037-11.238,19.109-11.057c10.758,0.161,15.867,5.432,18.984,11.1C334.626,118.215,333.49,119.398,332.689,119.398"/>
<path fill="#43B0E5" d="M208.82,161.531H48.749c-2.755,0-4.988,1.713-4.988,3.826s2.233,3.826,4.988,3.826h175.868
	C218.599,167.955,213.335,165.369,208.82,161.531"/>
<path fill="#EC652A" d="M194.572,133.127c0-0.744,0.095-1.465,0.135-2.199H48.749c-2.755,0-4.988,1.713-4.988,3.826
	c0,2.111,2.233,3.824,4.988,3.824h146.265C194.765,136.797,194.572,134.994,194.572,133.127"/>
<path fill="#7EBA28" d="M197.345,146.23H8.847c-2.755,0-4.988,1.713-4.988,3.824c0,2.113,2.233,3.826,4.988,3.826h192.559
	C199.756,151.447,198.345,148.92,197.345,146.23"/>
</svg>
