<svg xmlns="http://www.w3.org/2000/svg" viewBox="0 0 23.34 28.2"><defs><style>.cls-1{fill:#d33f6c;}</style></defs><title>Asset 37</title><g id="Layer_2" data-name="Layer 2"><g id="Layer_1-2" data-name="Layer 1"><path class="cls-1" d="M18.14,12.62C19.52,5.69,15.89,4,15.89,4A8.71,8.71,0,0,0,7,4.27c-7,5.57-2.27,9.94-2.27,9.94h0L4.09,17h0S-1.67,16,.48,8C2.67,0,14-1.5,17.74,1.33c.18.13.36.25.55.37,1.59,1,7.93,5.82,3.5,14,0,0-5,9.28-12.06,3.18h0L8.4,24.29h0L5.75,28.2h0l-1.13-4.9h0l2.52-9.81h0s-1.59-4,1.39-6.69l.11-.1a2,2,0,0,1,2-.44c.73.25,1.45,1,1.42,2.86a36,36,0,0,1-1.52,5.83h0s.8,4.71,5.3,1.92h0A8.35,8.35,0,0,0,18.14,12.62Z"/></g></g></svg>