<?xml version="1.0" encoding="utf-8"?>
<!-- Generator: Adobe Illustrator 16.0.0, SVG Export Plug-In . SVG Version: 6.00 Build 0)  -->
<!DOCTYPE svg PUBLIC "-//W3C//DTD SVG 1.1//EN" "http://www.w3.org/Graphics/SVG/1.1/DTD/svg11.dtd">
<svg version="1.1" id="Capa_1" xmlns="http://www.w3.org/2000/svg" xmlns:xlink="http://www.w3.org/1999/xlink" x="0px" y="0px"
	 width="152.139px" height="147.854px" viewBox="0 0 152.139 147.854" enable-background="new 0 0 152.139 147.854"
	 xml:space="preserve">
<path fill="#9F2C87" d="M137.868,142.85H14.271V38.718h123.597V142.85z M23.281,133.84h105.577v-86.11H23.281V133.84z"/>
<path fill="#9F2C87" d="M50.958,74.976l-4.899-7.562c7.765-5.031,13.759-14.031,19.275-23.644
	c-7.75-0.992-16.285-3.432-24.354-8.542c-8.274-5.24-12.528-12.522-11.67-19.978c0.711-6.178,4.874-11.313,10.864-13.4
	c7.17-2.499,15.407-0.034,22.035,6.594c5.409,5.408,9.646,11.19,13.445,17.005c4.295-7.207,8.996-13.966,14.741-19.021
	c6.809-5.992,14.745-7.911,21.771-5.266c5.832,2.195,9.938,7.293,10.717,13.305c0.902,6.961-2.705,13.887-9.898,19
	c-6.646,4.725-16.066,8.254-26.078,9.88c5.104,7.735,11.098,15.527,19.893,23.063l-5.863,6.842
	c-11.227-9.62-18.104-19.38-24.124-28.938c-0.478,0.015-0.963,0.024-1.455,0.03C68.695,56.306,61.525,68.129,50.958,74.976
	 M45.936,9.892c-0.962,0-1.899,0.154-2.796,0.467c-2.698,0.94-4.567,3.21-4.879,5.923c-0.447,3.886,2.301,8.018,7.54,11.335
	c7.443,4.714,15.92,7.01,24.31,7.595c0.168-0.303,0.335-0.605,0.503-0.91c-4.313-6.9-8.737-13.446-14.776-19.485
	C52.619,11.597,49.138,9.892,45.936,9.892 M81.063,34.072c0.188,0.306,0.377,0.612,0.566,0.92
	c10.584-1.113,20.133-4.603,26.136-8.869c4.389-3.12,6.644-6.947,6.183-10.499c-0.351-2.7-2.249-5.011-4.955-6.029
	c-3.81-1.435-8.419-0.123-12.646,3.597C90.478,18.356,85.738,25.828,81.063,34.072"/>
</svg>
