<?xml version="1.0" encoding="utf-8"?>
<!-- Generator: Adobe Illustrator 16.0.0, SVG Export Plug-In . SVG Version: 6.00 Build 0)  -->
<!DOCTYPE svg PUBLIC "-//W3C//DTD SVG 1.1//EN" "http://www.w3.org/Graphics/SVG/1.1/DTD/svg11.dtd">
<svg version="1.1" id="Capa_1" xmlns="http://www.w3.org/2000/svg" xmlns:xlink="http://www.w3.org/1999/xlink" x="0px" y="0px"
	 width="181.212px" height="183.767px" viewBox="0 0 181.212 183.767" enable-background="new 0 0 181.212 183.767"
	 xml:space="preserve">
<rect x="129.795" y="17.947" fill="#E73B35" width="34.746" height="34.748"/>
<rect x="79.668" y="102.824" fill="#E73B35" width="22.4" height="22.457"/>
<polygon fill="#E73B35" points="102.055,136.511 79.668,136.511 79.668,147.667 90.826,147.667 90.826,158.896 102.055,158.896 
	102.055,147.667 "/>
<polygon fill="#E73B35" points="68.44,80.438 68.44,91.596 57.211,91.596 57.211,102.826 79.668,102.826 79.668,80.438 "/>
<rect x="90.826" y="46.753" fill="#E73B35" width="11.23" height="22.457"/>
<polygon fill="#E73B35" points="102.055,91.596 102.055,102.826 124.512,102.826 124.512,80.438 90.826,80.438 90.826,91.596 "/>
<rect x="79.668" y="69.21" fill="#E73B35" width="11.174" height="11.228"/>
<polyline fill="#E73B35" points="102.055,181.353 102.055,158.896 124.512,158.896 124.512,181.353 "/>
<polyline fill="#E73B35" points="79.668,181.353 79.668,158.896 90.842,158.896 90.842,181.353 "/>
<rect x="102.055" y="125.28" fill="#E73B35" width="11.229" height="11.23"/>
<polygon fill="#E73B35" points="102.055,35.526 102.055,13.139 90.826,13.139 90.826,1.911 79.668,1.911 79.668,46.754 
	90.826,46.754 90.826,35.526 "/>
<polyline fill="#E73B35" points="135.74,181.353 135.74,158.896 146.912,158.896 146.912,181.353 "/>
<rect x="135.74" y="136.511" fill="#E73B35" width="22.4" height="11.172"/>
<rect x="124.512" y="147.667" fill="#E73B35" width="11.229" height="11.229"/>
<rect x="113.283" y="136.511" fill="#E73B35" width="11.23" height="11.172"/>
<polygon fill="#E73B35" points="158.127,114.053 158.127,125.282 169.355,125.282 169.355,136.511 180.584,136.511 180.584,114.053 
	169.355,114.053 "/>
<polyline fill="#E73B35" points="180.584,181.353 180.584,158.896 169.355,158.896 169.355,147.667 158.127,147.667 
	158.127,181.353 "/>
<polygon fill="#E73B35" points="113.283,114.053 113.283,125.282 146.898,125.282 146.898,102.825 124.512,102.825 124.512,114.053 
	"/>
<polygon fill="#E73B35" points="135.74,80.438 135.74,91.596 158.127,91.596 158.127,102.826 180.584,102.826 180.584,80.438 
	158.127,80.438 "/>
<path fill="#E73B35" d="M113.518,68.971h67.301V1.672h-67.301V68.971z M175.883,64.038h-57.432V6.605h57.432V64.038z"/>
<rect x="18.41" y="17.947" fill="#E73B35" width="34.747" height="34.748"/>
<path fill="#E73B35" d="M2.134,68.971h67.301V1.672H2.134V68.971z M64.5,64.038H7.067V6.605H64.5V64.038z"/>
<rect x="16.67" y="131.071" fill="#E73B35" width="34.747" height="34.746"/>
<polyline fill="#E73B35" points="67.693,182.095 67.693,114.795 0.394,114.795 0.394,182.095 "/>
<polyline fill="#E73B35" points="5.327,177.161 5.327,119.728 62.76,119.728 62.76,177.161 "/>
<polygon fill="#E73B35" points="4.806,80.438 1.141,80.438 1.141,102.826 34.392,102.806 34.392,92.364 4.806,92.364 "/>
<rect x="34.393" y="80.438" fill="#E73B35" width="22.819" height="11.173"/>
<rect x="34.756" y="91.61" fill="#E73B35" width="1.376" height="0.753"/>
</svg>
