<?xml version="1.0" encoding="utf-8"?>
<!-- Generator: Adobe Illustrator 16.0.0, SVG Export Plug-In . SVG Version: 6.00 Build 0)  -->
<!DOCTYPE svg PUBLIC "-//W3C//DTD SVG 1.1//EN" "http://www.w3.org/Graphics/SVG/1.1/DTD/svg11.dtd">
<svg version="1.1" id="Capa_1" xmlns="http://www.w3.org/2000/svg" xmlns:xlink="http://www.w3.org/1999/xlink" x="0px" y="0px"
	 width="249.173px" height="203.719px" viewBox="0 0 249.173 203.719" enable-background="new 0 0 249.173 203.719"
	 xml:space="preserve">
<path fill="#FFFFFF" d="M81.164,101.161h7.808v7.54h7.798v7.545H57.756v-7.545h7.805V93.617h15.632v7.544H81.164z M182.598,169.023
	h7.812v-7.539h-7.812V169.023z M88.971,101.161h7.8v-7.547h-7.8V101.161z M198.185,169.023h7.798v-7.539h-7.798V169.023z
	 M104.574,176.595h15.605v-7.571h-15.605V176.595z M174.8,169.023h-7.802v7.571h7.802V169.023z M143.585,176.595h7.807v-15.11
	h-7.807V176.595z M81.164,86.069h23.41v-7.541h-23.41V86.069z M73.359,86.069v-7.541H57.756v15.088h7.805v-7.547H73.359z
	 M96.769,70.985h-54.62V18.182h54.62V70.985z M88.971,25.723H49.958v37.723h39.013V25.723z M57.756,161.484h23.408v-22.633H57.756
	V161.484z M135.788,161.484h7.802v-7.547h-7.802V161.484z M81.164,33.268H57.756v22.631h23.408V33.268z M205.983,70.985h-54.591
	V18.182h54.591V70.985z M198.185,25.723h-38.994v37.723h38.994V25.723z M42.151,123.766h54.621v52.806H42.151V123.766z
	 M49.956,169.023h39.013v-37.716H49.956V169.023z M49.956,78.529h-7.807v37.715h7.807V78.529z M151.392,123.766h7.799v-7.52h-7.799
	V123.766z M127.984,146.415v-7.563h-7.806v7.563h-15.605v15.095h15.605v7.539h7.806v-15.084h7.803v-7.55H127.984z M104.574,48.353
	h15.605v-7.539h-15.605V48.353z M166.999,108.701h15.6v7.545h7.807V93.617h-7.807V78.529H174.8v22.632h-23.408v7.54h7.799v7.545
	h7.808V108.701z M174.8,131.308h-7.802v-7.542h-7.808v15.086h-23.403v7.563h15.604v15.095h7.799v7.539h7.808v-15.084h31.205v-7.55
	H174.8V131.308z M174.8,131.308h7.798v-15.063H174.8V131.308z M112.379,131.308v-7.542h7.8v-7.52h7.806v-7.545h7.803v-15.11h23.403
	V78.504h-7.799v7.545h-7.807V55.872h-7.798V40.788h7.798V18.182h-7.798v15.086h-7.83V18.182h-23.384v15.086h7.805v-7.545h7.771
	v15.091h7.808v22.632h7.83v7.539h-7.83v15.084h-7.808V70.985h-7.771v-7.539h-7.805v15.083h7.805v7.541h-7.805v22.632h7.805V93.617
	h7.771v15.084h-7.771v7.545h-7.805v22.605h15.576v-7.544H112.379z M198.185,131.308h-15.587v7.544h15.587V131.308z M190.377,33.268
	h-23.379v22.631h23.379V33.268z M127.984,131.308h15.601v-7.542h-7.798v-7.52h-7.803V131.308z M143.585,108.701h-7.798v7.545h7.798
	V108.701z M190.377,86.069h15.605v-7.541h-15.605V86.069z M198.185,146.415h7.798v-7.563h-7.798V146.415z M198.185,101.161h7.798
	v-7.547h-7.798V101.161z M127.984,63.446h-7.806v7.539h7.806V63.446z"/>
</svg>
