<svg xmlns="http://www.w3.org/2000/svg" viewBox="0 0 82.38 148.05"><defs><style>.cls-1{fill:#919191;}</style></defs><title>Asset 16</title><g id="Layer_2" data-name="Layer 2"><g id="Layer_1-2" data-name="Layer 1"><path class="cls-1" d="M74.29,0H8.1C3.63,0,0,4.2,0,9.37v129.3C0,143.84,3.63,148,8.1,148H74.29c4.46,0,8.1-4.2,8.1-9.37V9.37C82.38,4.2,78.75,0,74.29,0ZM4.06,23.56H78.33v97.91H4.06ZM8.1,4.7H74.29c2.23,0,4,2.1,4,4.68V20.43H4.06V9.37c0-2.58,1.81-4.68,4-4.68ZM74.29,143.35H8.1c-2.23,0-4-2.1-4-4.68V124.6H78.33v14.08c0,2.58-1.81,4.68-4,4.68Zm0,0"/><path class="cls-1" d="M41.19,126.67c-3.66,0-6.64,3.45-6.64,7.69s3,7.69,6.64,7.69,6.64-3.45,6.64-7.69-3-7.69-6.64-7.69Zm0,12.25c-2.17,0-3.94-2-3.94-4.56s1.77-4.56,3.94-4.56,3.94,2,3.94,4.56-1.77,4.56-3.94,4.56Zm0,0"/><path class="cls-1" d="M32,14.92H50.39a1.47,1.47,0,0,0,1.35-1.57,1.47,1.47,0,0,0-1.35-1.57H32a1.47,1.47,0,0,0-1.35,1.57A1.47,1.47,0,0,0,32,14.92Zm0,0"/><path class="cls-1" d="M27.13,14.92a1.27,1.27,0,0,0,1-.46,1.74,1.74,0,0,0,0-2.22,1.23,1.23,0,0,0-1.91,0,1.75,1.75,0,0,0,0,2.22,1.27,1.27,0,0,0,1,.46Zm0,0"/></g></g></svg>