<svg xmlns="http://www.w3.org/2000/svg" viewBox="0 0 20.3 15.84"><defs><style>.cls-1{fill:#80cb75;}</style></defs><title>Asset 38</title><g id="Layer_2" data-name="Layer 2"><g id="Layer_1-2" data-name="Layer 1"><path class="cls-1" d="M1.76,4.14C5.15,3.62,12.71,2.94,18,6.07A1.51,1.51,0,0,0,20.23,5h0a1.94,1.94,0,0,0-.75-2.16c-2.06-1.26-7-3.91-18-2.41A1.77,1.77,0,0,0,0,2.26v.08A1.66,1.66,0,0,0,1.76,4.14Z"/><path class="cls-1" d="M2.37,9.09c2.85-.38,9.63-.91,14,1.83a1.15,1.15,0,0,0,1.51-.26l.17-.2a1.62,1.62,0,0,0-.35-2.38C15.62,6.87,11,5.18,2.11,6.14A1.44,1.44,0,0,0,.95,7.72h0A1.35,1.35,0,0,0,2.37,9.09Z"/><path class="cls-1" d="M2.71,14.05c3.68-.28,7.1-1.27,12.57,1.64a1.06,1.06,0,0,0,1.35-.24l.15-.18a1.45,1.45,0,0,0-.31-2.13c-1.89-1.09-5.64-2.82-14-1.74a1.3,1.3,0,0,0-1,1.41h0A1.23,1.23,0,0,0,2.71,14.05Z"/></g></g></svg>