<svg xmlns="http://www.w3.org/2000/svg" viewBox="0 0 122.74 153.94"><defs><style>.cls-1{fill:#919191;}</style></defs><title>Asset 13</title><g id="Layer_2" data-name="Layer 2"><g id="Layer_1-2" data-name="Layer 1"><path class="cls-1" d="M113.63,0H9.11A9.12,9.12,0,0,0,0,9.11V144.84a9.12,9.12,0,0,0,9.11,9.1H113.63a9.12,9.12,0,0,0,9.11-9.1V9.11A9.12,9.12,0,0,0,113.63,0Zm3.91,144.84a3.91,3.91,0,0,1-3.91,3.9H9.11a3.91,3.91,0,0,1-3.9-3.9V9.11a3.91,3.91,0,0,1,3.9-3.9H113.63a3.91,3.91,0,0,1,3.91,3.9Zm0,0"/><path class="cls-1" d="M112.34,16.61H10.4a1.73,1.73,0,0,0-1.73,1.73V135.6a1.73,1.73,0,0,0,1.73,1.73H112.34a1.73,1.73,0,0,0,1.73-1.73V18.35a1.73,1.73,0,0,0-1.73-1.73ZM110.6,133.86H12.14V20.08H110.6Zm0,0"/><path class="cls-1" d="M61.37,140.94a2.6,2.6,0,1,0,1.84.76,2.62,2.62,0,0,0-1.84-.76Zm0,0"/><path class="cls-1" d="M61.37,12.91a1.73,1.73,0,0,0,1.73-1.73,1.74,1.74,0,1,0-1.73,1.73Zm0,0"/></g></g></svg>