<?xml version="1.0" encoding="utf-8"?>
<!-- Generator: Adobe Illustrator 16.0.0, SVG Export Plug-In . SVG Version: 6.00 Build 0)  -->
<!DOCTYPE svg PUBLIC "-//W3C//DTD SVG 1.1//EN" "http://www.w3.org/Graphics/SVG/1.1/DTD/svg11.dtd">
<svg version="1.1" id="Capa_1" xmlns="http://www.w3.org/2000/svg" xmlns:xlink="http://www.w3.org/1999/xlink" x="0px" y="0px"
	 width="206.986px" height="200.323px" viewBox="0 0 206.986 200.323" enable-background="new 0 0 206.986 200.323"
	 xml:space="preserve">
<path fill="#0072B9" d="M116.834,166.883c-1.297-2.076-3.008-3.88-5.035-5.302c-5.446-3.818-12.665-4.497-18.845-1.773
	c-6.178,2.724-10.547,8.512-11.403,15.107c-0.319,2.457-0.141,4.938,0.517,7.293l-21.305,9.393L8.723,73.549l21.194-9.345
	c2.669,4.859,7.526,8.135,12.994,8.671c7.674,0.768,14.739-2.252,18.929-8.037c3.392-4.684,4.443-10.619,2.951-16.007l21.308-9.393
	l7.184,16.295l3.828-7.718l-7.625-17.299L56.248,45.367l1.613,3.677c1.717,3.896,1.202,8.349-1.381,11.914
	c-2.837,3.917-7.549,5.859-12.923,5.333c-3.586-0.351-6.749-2.69-8.252-6.105l-2.066-4.674L0,70.163l57.377,130.16l33.237-14.652
	L89,181.993c-0.856-1.943-1.166-4.096-0.888-6.226c0.56-4.315,3.438-8.11,7.511-9.905c4.073-1.793,8.815-1.36,12.379,1.137
	c1.759,1.232,3.14,2.912,3.999,4.861l1.624,3.668l21.332-9.405l-7.717-3.828L116.834,166.883z"/>
<path fill="#0072B9" d="M206.986,42.46l-32.541-15.145l-1.789,3.596c-1.892,3.813-5.642,6.271-10.032,6.57
	c-4.807,0.34-9.338-2.041-12.375-6.509c-2.026-2.979-2.255-6.907-0.596-10.248l2.271-4.58L119.381,0l-23.67,47.711l3.476,7.883
	l23.179-46.726l20.751,10.294c-2.021,5.16-1.427,10.988,1.661,15.532c4.33,6.368,11.16,9.883,18.299,9.388
	c5.77-0.395,11-3.389,14.182-7.984l20.861,10.349L143.6,156.345l1.862,4.227l-11.904,5.248l10.215,4.066L206.986,42.46z"/>
<polygon fill="#0072B9" points="138.013,157.736 134.996,159.066 142.057,162.569 144.872,156.896 100.459,56.145 96.631,63.862 "/>
<polygon fill="#0072B9" points="144.905,156.633 142.09,162.307 135.028,158.804 127.146,162.279 134.862,166.108 146.768,160.86 
	"/>
<polygon fill="#0072B9" points="96.631,63.862 100.46,56.145 96.984,48.262 93.156,55.979 "/>
</svg>
