<?xml version="1.0" encoding="utf-8"?>
<!-- Generator: Adobe Illustrator 16.0.0, SVG Export Plug-In . SVG Version: 6.00 Build 0)  -->
<!DOCTYPE svg PUBLIC "-//W3C//DTD SVG 1.1//EN" "http://www.w3.org/Graphics/SVG/1.1/DTD/svg11.dtd">
<svg version="1.1" id="Capa_1" xmlns="http://www.w3.org/2000/svg" xmlns:xlink="http://www.w3.org/1999/xlink" x="0px" y="0px"
	 width="600px" height="600px" viewBox="0 0 600 600" enable-background="new 0 0 600 600" xml:space="preserve">
<polyline fill="#DF332A" points="600.98,0.807 329.033,66.201 329.188,0.17 "/>
<polyline fill="#7CB928" points="-0.806,599.573 40.235,285.117 84.351,183.194 129.718,326.775 -0.806,599.573 "/>
<polyline fill="#EC652A" points="0.07,261.112 50,269.537 -0.806,599.573 "/>
<polyline fill="#1C72B2" points="-0.225,387.05 119.23,121.104 18.533,184.633 0.156,224.446 "/>
<polygon fill="#44AFE4" points="294.976,19.487 95.614,57.28 18.521,189.417 "/>
<polyline fill="#009C3D" points="104.89,-0.355 68.174,65.187 422.993,0.657 "/>
<line fill="none" x1="0.143" y1="229.913" x2="135.967" y2="-0.015"/>
<polygon fill="#009C3D" points="129.718,326.775 87.238,192.333 115.254,129.957 190.65,83.613 "/>
<polygon fill="#EC652A" points="190.621,83.01 161.079,201.624 278.396,73.651 283.991,25.838 "/>
<polyline fill="#DF332A" points="373.917,9.583 283.991,25.838 278.394,73.651 373.917,9.583 "/>
<polygon fill="#7CB928" points="131.34,-0.293 0.609,-0.6 0.015,253.016 "/>
</svg>
