<svg xmlns="http://www.w3.org/2000/svg" viewBox="0 0 26.03 21.1"><defs><style>.cls-1{fill:#8fbff1;}</style></defs><title>Asset 34</title><g id="Layer_2" data-name="Layer 2"><g id="Layer_1-2" data-name="Layer 1"><polygon class="cls-1" points="25.14 0.34 25.14 0.34 25.14 0.34 25.14 0.34"/><path class="cls-1" d="M24.12,3a3.48,3.48,0,0,1-1,.13l0-.11a8.28,8.28,0,0,0,2-2.32c.08-.26,0-.35,0-.36l-1.69.72L22,1.7h0A5.65,5.65,0,0,0,17.92,0C15,0,12.58,2.09,12.58,4.66a6.94,6.94,0,0,0,.22,1.76c0,.13,0-.14,0,0A16.64,16.64,0,0,1,6.3,4.49C2,2.33,1.77.83,1.77.83c-.67.71-1,3.07-.34,4.92A6.13,6.13,0,0,0,3.36,8h0A4.53,4.53,0,0,1,2,7.77,3,3,0,0,1,1,7.3c-.42,1,.42,2.83,1.86,4.13a7.65,7.65,0,0,0,2.38,1.24l-2.4.07c-.14,2.34,4.9,3.72,4.9,3.72h0a8.23,8.23,0,0,1-5,1.83A9.57,9.57,0,0,1,0,17.89a13.08,13.08,0,0,0,8.93,3.2c9-.47,14.07-8.2,14.31-15.79v0A6.32,6.32,0,0,0,24.57,4.2a9.33,9.33,0,0,0,1.46-2S24.68,2.83,24.12,3Z"/><path class="cls-1" d="M25.14.34c0,.14,0,0,0,0Z"/></g></g></svg>