<?xml version="1.0" encoding="utf-8"?>
<!-- Generator: Adobe Illustrator 16.0.0, SVG Export Plug-In . SVG Version: 6.00 Build 0)  -->
<!DOCTYPE svg PUBLIC "-//W3C//DTD SVG 1.1//EN" "http://www.w3.org/Graphics/SVG/1.1/DTD/svg11.dtd">
<svg version="1.1" id="Capa_1" xmlns="http://www.w3.org/2000/svg" xmlns:xlink="http://www.w3.org/1999/xlink" x="0px" y="0px"
	 width="249.173px" height="203.719px" viewBox="0 0 249.173 203.719" enable-background="new 0 0 249.173 203.719"
	 xml:space="preserve">
<path fill="#FFFFFF" d="M140.97,111.465h-31.195c-1.734,0-3.337-0.939-4.18-2.455L88.796,72.864
	c-0.921-1.651-0.896-3.858,0.129-5.63c1.048-1.779,2.971-2.876,5.027-2.876c5.102,0,6.753,3.296,8.347,6.486
	c0.55,1.098,1.113,2.223,1.85,3.356V39.934c0-4.107,3.342-7.45,7.451-7.45s7.451,3.342,7.451,7.45v14.646
	c0.978-0.471,2.072-0.736,3.229-0.736c3.658,0,6.711,2.651,7.336,6.134c1.006-0.508,2.144-0.794,3.344-0.794
	c3.666,0,6.723,2.662,7.34,6.152c1.006-0.521,2.143-0.813,3.342-0.813c4.105,0,7.447,3.341,7.447,7.451v29.37
	C151.089,106.924,146.55,111.465,140.97,111.465 M93.952,68.579c-0.566,0-1.094,0.301-1.38,0.785
	c-0.28,0.481-0.288,1.096-0.016,1.588l16.795,36.142c0.028,0.037,0.223,0.15,0.424,0.15h31.195c3.252,0,5.898-2.646,5.898-5.9
	v-29.37c0-1.781-1.449-3.229-3.227-3.229c-1.658,0-3.045,1.331-3.165,3.03l-0.162,2.354l-4.341-0.871l0.216-1.646v-4.978
	c0-1.778-1.448-3.228-3.229-3.228c-1.78,0-3.229,1.449-3.229,3.228h-4.221v-5.339c0-1.78-1.449-3.229-3.23-3.229
	c-1.781,0-3.229,1.449-3.229,3.229h-4.222v-21.36c0-1.78-1.448-3.229-3.229-3.229s-3.23,1.449-3.23,3.229v35.898
	c0,1.545-1.121,2.959-2.724,3.442c-1.541,0.464-3.229-0.139-4.105-1.451c-1.336-1.732-2.23-3.517-3.016-5.09
	C96.945,69.576,96.332,68.579,93.952,68.579 M104.954,75.342c0.006,0.01,0.014,0.019,0.02,0.027
	C104.971,75.364,104.963,75.353,104.954,75.342"/>
<path fill="#FFFFFF" d="M145.46,138.504h-36.922c-3.103,0-5.629-2.525-5.629-5.631v-14.045c0-3.104,2.526-5.631,5.629-5.631h36.922
	c3.104,0,5.629,2.527,5.629,5.631v14.045C151.089,135.979,148.564,138.504,145.46,138.504 M108.538,117.42
	c-0.775,0-1.407,0.631-1.407,1.408v14.045c0,0.775,0.632,1.408,1.407,1.408h36.922c0.775,0,1.408-0.633,1.408-1.408v-14.045
	c0-0.777-0.633-1.408-1.408-1.408H108.538z"/>
</svg>
