<svg xmlns="http://www.w3.org/2000/svg" width="655.333" height="145.942" viewBox="0 0 655.333 145.942">
  <g id="Group_49" data-name="Group 49" transform="translate(39 -75)">
    <g id="Group_29" data-name="Group 29" transform="translate(-39 80.903)">
      <g id="Group_20" data-name="Group 20" transform="translate(3.152)">
        <g id="Group_11" data-name="Group 11">
          <path id="Path_16" data-name="Path 16" d="M37.835,1.9H21.019V44.566H19.786V1.9H2.97V.67H37.848V1.9Z" transform="translate(-2.052 0.248)" fill="#fff"/>
          <path id="Path_17" data-name="Path 17" d="M22.185,45.732h-3.07V3.056H2.3V0H39V3.056H22.185Z" transform="translate(-2.3)" fill="#fff"/>
        </g>
        <g id="Group_12" data-name="Group 12" transform="translate(45.198)">
          <path id="Path_18" data-name="Path 18" d="M68.91.67v43.9H67.676V22.734H37.183V44.566H35.95V.67h1.233V21.5H67.663V.67Z" transform="translate(-35.032 0.248)" fill="#fff"/>
          <path id="Path_19" data-name="Path 19" d="M70.062,45.732H67.006V23.9H38.35V45.732H35.28V0h3.07V20.831H67.006V0h3.056Z" transform="translate(-35.28)" fill="#fff"/>
        </g>
        <g id="Group_13" data-name="Group 13" transform="translate(93.493)">
          <path id="Path_20" data-name="Path 20" d="M100,43.333v1.233H71.18V.67H99.439V1.9H72.427V21.5H96.109v1.233H72.427v20.6Z" transform="translate(-70.275 0.248)" fill="#fff"/>
          <path id="Path_21" data-name="Path 21" d="M101.164,45.732H70.52V0H100.6V3.056H73.576V20.831H97.258V23.9H73.576V42.663h27.587Z" transform="translate(-70.52)" fill="#fff"/>
        </g>
        <g id="Group_14" data-name="Group 14" transform="translate(153.958)">
          <path id="Path_22" data-name="Path 22" d="M146.594,33.191a11.005,11.005,0,0,1-.863,4.331,12.263,12.263,0,0,1-2.344,3.618,11.04,11.04,0,0,1-3.495,2.508,10.039,10.039,0,0,1-4.235.932H115.32V.67h19.419a8.668,8.668,0,0,1,4.139.987A10.456,10.456,0,0,1,142.03,4.22a12.263,12.263,0,0,1,2.727,7.647,11.531,11.531,0,0,1-1.7,6.126,10.214,10.214,0,0,1-4.6,4.084,11.086,11.086,0,0,1,3.371,1.672,11.61,11.61,0,0,1,2.59,2.59,11,11,0,0,1,1.645,3.248A11.9,11.9,0,0,1,146.594,33.191ZM116.54,1.9V21.816h17.8a8.013,8.013,0,0,0,3.714-.863,9.533,9.533,0,0,0,2.878-2.289,11.3,11.3,0,0,0,1.891-3.179,10.029,10.029,0,0,0,.685-3.618,11.167,11.167,0,0,0-.644-3.769,10.628,10.628,0,0,0-1.8-3.179,8.378,8.378,0,0,0-2.782-2.193,7.983,7.983,0,0,0-3.549-.809h-18.2Zm28.821,31.288a10.207,10.207,0,0,0-.713-3.8,11.072,11.072,0,0,0-1.946-3.248,9.46,9.46,0,0,0-2.933-2.261,8.161,8.161,0,0,0-3.673-.836H116.553V43.333h19.1a8.479,8.479,0,0,0,3.8-.863,10.637,10.637,0,0,0,3.1-2.289,10.338,10.338,0,0,0,2.069-3.248A9.9,9.9,0,0,0,145.361,33.191Z" transform="translate(-114.388 0.248)" fill="#fff"/>
          <path id="Path_23" data-name="Path 23" d="M135.9,45.732H114.64V0h20.324a9.651,9.651,0,0,1,4.577,1.1,11.175,11.175,0,0,1,3.426,2.8,12.564,12.564,0,0,1,2.165,3.865,13.1,13.1,0,0,1,.767,4.358,12.419,12.419,0,0,1-1.836,6.592A11.094,11.094,0,0,1,140.8,22.16a11.23,11.23,0,0,1,1.782,1.083,13.189,13.189,0,0,1,2.8,2.8,12.072,12.072,0,0,1,1.768,3.508,12.9,12.9,0,0,1,.6,3.892,12.02,12.02,0,0,1-.932,4.687,13.211,13.211,0,0,1-2.522,3.892,12.207,12.207,0,0,1-3.769,2.714A11.22,11.22,0,0,1,135.9,45.732Zm-18.186-3.07h18.2a7.679,7.679,0,0,0,3.4-.767,9.724,9.724,0,0,0,4.714-5.057,8.891,8.891,0,0,0,.672-3.4,9.607,9.607,0,0,0-.644-3.467A10.16,10.16,0,0,0,142.269,27a8.566,8.566,0,0,0-2.645-2.042,7.359,7.359,0,0,0-3.275-.74H117.724V42.663Zm0-21.516h16.9a7.053,7.053,0,0,0,3.289-.767,8.7,8.7,0,0,0,2.6-2.069,10.268,10.268,0,0,0,1.727-2.919,9.089,9.089,0,0,0,.617-3.289,10.468,10.468,0,0,0-.589-3.467,9.821,9.821,0,0,0-1.645-2.919,7.4,7.4,0,0,0-2.481-1.96,7.184,7.184,0,0,0-3.152-.713H117.71v18.1Z" transform="translate(-114.64)" fill="#fff"/>
        </g>
        <g id="Group_15" data-name="Group 15" transform="translate(191.139)">
          <path id="Path_24" data-name="Path 24" d="M161.953.67h1.11l19.1,43.9H180.81L173.944,28.86H151l-6.866,15.706H142.78ZM173.4,27.627,162.515,2.465l-11,25.162Z" transform="translate(-141.396 0.248)" fill="#fff"/>
          <path id="Path_25" data-name="Path 25" d="M183.939,45.732H180.6l-6.866-15.706H151.98l-6.866,15.706H141.77L161.738,0h2.3ZM153.282,26.957h19.1l-9.5-21.969Z" transform="translate(-141.77)" fill="#fff"/>
        </g>
        <g id="Group_16" data-name="Group 16" transform="translate(237.008)">
          <path id="Path_26" data-name="Path 26" d="M175.9,43.333,209.408,1.9H176.2V.67h34.755V1.9L177.449,43.333H210.71v1.233H175.9V43.333Z" transform="translate(-174.995 0.248)" fill="#fff"/>
          <path id="Path_27" data-name="Path 27" d="M211.873,45.732H175.24V43.252l32.507-40.2H175.542V0h36.578V2.467l-32.507,40.2h32.261Z" transform="translate(-175.24)" fill="#fff"/>
        </g>
        <g id="Group_17" data-name="Group 17" transform="translate(277.588)">
          <path id="Path_28" data-name="Path 28" d="M225.033.67h1.11l19.1,43.9H243.89L237.024,28.86H214.083l-6.866,15.706H205.86Zm11.443,26.957L225.595,2.465l-11,25.162Z" transform="translate(-204.476 0.248)" fill="#fff"/>
          <path id="Path_29" data-name="Path 29" d="M247.019,45.732h-3.344l-6.866-15.706H215.06l-6.866,15.706H204.85L224.8,0h2.3ZM216.348,26.957h19.1l-9.5-21.969Z" transform="translate(-204.85)" fill="#fff"/>
        </g>
        <g id="Group_18" data-name="Group 18" transform="translate(322.347)">
          <path id="Path_30" data-name="Path 30" d="M257.693.67h1.11l19.1,43.9H276.55L269.684,28.86H246.743l-6.866,15.706H238.52Zm11.443,26.957L258.255,2.465l-11,25.162Z" transform="translate(-237.136 0.248)" fill="#fff"/>
          <path id="Path_31" data-name="Path 31" d="M279.679,45.732h-3.344l-6.866-15.706H247.72l-6.866,15.706H237.51L257.478,0h2.3ZM249.022,26.957h19.1l-9.5-21.969Z" transform="translate(-237.51)" fill="#fff"/>
        </g>
        <g id="Group_19" data-name="Group 19" transform="translate(372.616)">
          <path id="Path_32" data-name="Path 32" d="M274.85,44.566V.67h17.871a11.022,11.022,0,0,1,4.947,1.137A12.758,12.758,0,0,1,301.6,4.836,14.483,14.483,0,0,1,304.164,9.1a13.32,13.32,0,0,1,.932,4.851,14.993,14.993,0,0,1-.809,4.879A13.592,13.592,0,0,1,302,23.009a12.163,12.163,0,0,1-3.549,2.974,10.9,10.9,0,0,1-4.55,1.329l11.128,17.254h-1.48L292.419,27.312H276.1V44.566Zm1.233-18.488h17.062a9.375,9.375,0,0,0,4.454-1.055,10.958,10.958,0,0,0,3.371-2.755,12.373,12.373,0,0,0,2.138-3.865,13.68,13.68,0,0,0,.74-4.454,12.047,12.047,0,0,0-.863-4.509A12.561,12.561,0,0,0,300.6,5.6a11.973,11.973,0,0,0-3.549-2.686A9.49,9.49,0,0,0,292.721,1.9H276.083Z" transform="translate(-273.945 0.248)" fill="#fff"/>
          <path id="Path_33" data-name="Path 33" d="M306.944,45.732h-3.659L292.157,28.478H277.246V45.732H274.19V0h18.789a11.717,11.717,0,0,1,5.359,1.247A13.437,13.437,0,0,1,302.545,4.5a15.511,15.511,0,0,1,2.727,4.536,14.188,14.188,0,0,1,.987,5.18,16.1,16.1,0,0,1-.85,5.18,14.765,14.765,0,0,1-2.439,4.454,13.035,13.035,0,0,1-3.824,3.193,12.018,12.018,0,0,1-3.44,1.247Zm-29.7-20.324H293.4a8.447,8.447,0,0,0,4.029-.946,10.274,10.274,0,0,0,3.1-2.522,11.513,11.513,0,0,0,1.973-3.577,12.641,12.641,0,0,0,.7-4.153,11.441,11.441,0,0,0-.795-4.18A11.882,11.882,0,0,0,300.2,6.469a11.017,11.017,0,0,0-3.289-2.481,8.628,8.628,0,0,0-3.92-.918H277.274V25.408Z" transform="translate(-274.19)" fill="#fff"/>
        </g>
      </g>
      <g id="Group_27" data-name="Group 27" transform="translate(0 57.299)">
        <g id="Group_25" data-name="Group 25" transform="translate(48.336 0.096)">
          <g id="Group_21" data-name="Group 21">
            <path id="Path_34" data-name="Path 34" d="M89.347,96.217q-10.032,11.389-23.133,11.389a26.347,26.347,0,0,1-12.238-2.851A31.918,31.918,0,0,1,44.4,97.3,34.213,34.213,0,0,1,38.16,86.871a32.893,32.893,0,0,1-2.22-11.786,35.487,35.487,0,0,1,8.168-22.544,29.064,29.064,0,0,1,9.21-7.277A25.751,25.751,0,0,1,65.1,42.55a34.051,34.051,0,0,1,8.853,1.042,25.567,25.567,0,0,1,6.866,2.892,20.682,20.682,0,0,1,5.1,4.427,30.219,30.219,0,0,1,3.659,5.646l-1.713.548a22.834,22.834,0,0,0-9.484-9.758A28.555,28.555,0,0,0,65.1,44.359a24.151,24.151,0,0,0-11.389,2.659,28.043,28.043,0,0,0-8.634,7,31.341,31.341,0,0,0-5.468,9.854,34.327,34.327,0,0,0-1.891,11.21,30.952,30.952,0,0,0,2.22,11.608,31.844,31.844,0,0,0,6.1,9.8,30.12,30.12,0,0,0,9.031,6.77A24.867,24.867,0,0,0,66.186,105.8a26.122,26.122,0,0,0,12.019-2.892A37.409,37.409,0,0,0,89.32,93.7V78.415H74.258V76.606h16.9V107.14H89.347Z" transform="translate(-35.022 -41.632)" fill="#fff"/>
            <path id="Path_35" data-name="Path 35" d="M66.462,108.759A27.477,27.477,0,0,1,53.8,105.812a32.976,32.976,0,0,1-9.854-7.661,35.193,35.193,0,0,1-6.4-10.717A34.058,34.058,0,0,1,35.27,75.319a36.021,36.021,0,0,1,2.22-12.43,35.656,35.656,0,0,1,6.167-10.7,29.96,29.96,0,0,1,9.5-7.5,26.829,26.829,0,0,1,12.2-2.809,35.328,35.328,0,0,1,9.086,1.069,26.526,26.526,0,0,1,7.113,3,22.255,22.255,0,0,1,5.331,4.618,30.293,30.293,0,0,1,3.769,5.824l.48.959-3.454,1.1-.356-.658a22.088,22.088,0,0,0-9.1-9.388,27.859,27.859,0,0,0-12.869-2.878,23.31,23.31,0,0,0-10.964,2.563,27.1,27.1,0,0,0-8.346,6.77,30.63,30.63,0,0,0-5.3,9.566,33.653,33.653,0,0,0-1.85,10.909A30.341,30.341,0,0,0,41.04,86.612a31.158,31.158,0,0,0,5.92,9.525,29.494,29.494,0,0,0,8.771,6.578,24.066,24.066,0,0,0,10.717,2.439,25.432,25.432,0,0,0,11.608-2.8,36.245,36.245,0,0,0,10.621-8.744V79.568H73.588V75.936H92.309v32.37H88.677V98.782C82.208,105.4,74.739,108.759,66.462,108.759Zm-14.116-5.866c.74.466,1.508.891,2.3,1.3a24.67,24.67,0,0,0,6.222,2.179,25.878,25.878,0,0,1-5.92-2.042C54.059,103.894,53.182,103.414,52.346,102.893ZM68.312,43.8a28.448,28.448,0,0,1,10.758,2.96,23.151,23.151,0,0,1,8.853,8.387,27.715,27.715,0,0,0-2.426-3.44,19.977,19.977,0,0,0-4.879-4.235A24.361,24.361,0,0,0,74,44.689,32.555,32.555,0,0,0,68.312,43.8Z" transform="translate(-35.27 -41.88)" fill="#fff"/>
          </g>
          <g id="Group_22" data-name="Group 22" transform="translate(65.07 0)">
            <path id="Path_36" data-name="Path 36" d="M113.324,107.592a26.323,26.323,0,0,1-12.156-2.8,31.526,31.526,0,0,1-9.443-7.318,32.418,32.418,0,0,1-6.14-10.388A34.61,34.61,0,0,1,83.42,75.071a33.415,33.415,0,0,1,2.3-12.293A34.2,34.2,0,0,1,92.054,52.39a30.325,30.325,0,0,1,9.484-7.181,26.485,26.485,0,0,1,11.786-2.659,25.869,25.869,0,0,1,12.1,2.851,30.852,30.852,0,0,1,9.443,7.455,34.58,34.58,0,0,1,6.1,10.443,34,34,0,0,1-6.455,34.508,30.937,30.937,0,0,1-9.443,7.14A26.4,26.4,0,0,1,113.324,107.592ZM85.215,75.071A32.165,32.165,0,0,0,87.34,86.6a32.988,32.988,0,0,0,5.824,9.854,27.7,27.7,0,0,0,8.853,6.825,25.289,25.289,0,0,0,11.293,2.535,24.8,24.8,0,0,0,11.43-2.659,28.442,28.442,0,0,0,8.853-7A32.567,32.567,0,0,0,139.28,86.3a32.4,32.4,0,0,0-6.016-32.59,28.957,28.957,0,0,0-8.894-6.825,25.675,25.675,0,0,0-22.5.123,28.927,28.927,0,0,0-8.894,7,32.31,32.31,0,0,0-5.742,9.854A32.815,32.815,0,0,0,85.215,75.071Z" transform="translate(-82.502 -41.632)" fill="#fff"/>
            <path id="Path_37" data-name="Path 37" d="M113.572,108.759A27.194,27.194,0,0,1,101,105.853a32.71,32.71,0,0,1-9.717-7.524A33.831,33.831,0,0,1,84.97,87.654a35.456,35.456,0,0,1-2.22-12.334A34.3,34.3,0,0,1,85.121,62.7a35.283,35.283,0,0,1,6.5-10.662,31.426,31.426,0,0,1,9.771-7.4,27.487,27.487,0,0,1,12.2-2.755,26.955,26.955,0,0,1,12.526,2.947,31.9,31.9,0,0,1,9.717,7.675,35.661,35.661,0,0,1,6.263,10.717,34.914,34.914,0,0,1-6.647,35.454,32.114,32.114,0,0,1-9.717,7.346A27.676,27.676,0,0,1,113.572,108.759Zm0-63.247a23.976,23.976,0,0,0-11.019,2.563,28.251,28.251,0,0,0-8.62,6.784,31.607,31.607,0,0,0-5.578,9.566,31.157,31.157,0,0,0,.1,22.078,32.192,32.192,0,0,0,5.66,9.58,27.156,27.156,0,0,0,8.565,6.606,24.489,24.489,0,0,0,10.9,2.439,23.935,23.935,0,0,0,11.019-2.563,27.559,27.559,0,0,0,8.579-6.784,31.975,31.975,0,0,0,5.537-9.58,31.5,31.5,0,0,0-5.838-31.658,28.334,28.334,0,0,0-8.62-6.606A24.066,24.066,0,0,0,113.572,45.512ZM86.765,87.256a32.238,32.238,0,0,0,3.056,6.112A35.852,35.852,0,0,1,86.765,87.256ZM142.2,79.65a34.657,34.657,0,0,1-4.317,12.567,33.955,33.955,0,0,0,2.357-4.865A32.593,32.593,0,0,0,142.2,79.65ZM86.519,64.15a31.358,31.358,0,0,0-1.384,5.084A32.137,32.137,0,0,1,86.519,64.15Z" transform="translate(-82.75 -41.88)" fill="#fff"/>
          </g>
          <g id="Group_23" data-name="Group 23" transform="translate(133.456 0)">
            <path id="Path_38" data-name="Path 38" d="M163.224,107.592a26.323,26.323,0,0,1-12.156-2.8,31.525,31.525,0,0,1-9.443-7.318,32.418,32.418,0,0,1-6.14-10.388,34.609,34.609,0,0,1-2.165-12.019,33.414,33.414,0,0,1,2.3-12.293,34.2,34.2,0,0,1,6.332-10.388,30.325,30.325,0,0,1,9.484-7.181,26.486,26.486,0,0,1,11.786-2.659,25.869,25.869,0,0,1,12.1,2.851,30.852,30.852,0,0,1,9.442,7.455,34.58,34.58,0,0,1,6.1,10.443,34,34,0,0,1-6.455,34.508,30.937,30.937,0,0,1-9.442,7.14A26.316,26.316,0,0,1,163.224,107.592ZM135.129,75.071A32.165,32.165,0,0,0,137.253,86.6a32.989,32.989,0,0,0,5.824,9.854,27.7,27.7,0,0,0,8.853,6.825,25.289,25.289,0,0,0,11.293,2.535,24.8,24.8,0,0,0,11.43-2.659,28.442,28.442,0,0,0,8.853-7,32.566,32.566,0,0,0,5.687-9.854,32.4,32.4,0,0,0-6.016-32.59,28.957,28.957,0,0,0-8.894-6.825,25.675,25.675,0,0,0-22.5.123,28.927,28.927,0,0,0-8.894,7,32.746,32.746,0,0,0-7.757,21.064Z" transform="translate(-132.402 -41.632)" fill="#fff"/>
            <path id="Path_39" data-name="Path 39" d="M163.472,108.759a27.2,27.2,0,0,1-12.567-2.905,32.71,32.71,0,0,1-9.717-7.524,33.83,33.83,0,0,1-6.318-10.676,35.455,35.455,0,0,1-2.22-12.334A34.3,34.3,0,0,1,135.021,62.7a35.283,35.283,0,0,1,6.5-10.662,31.426,31.426,0,0,1,9.771-7.4,27.487,27.487,0,0,1,12.2-2.755,26.955,26.955,0,0,1,12.526,2.947,31.9,31.9,0,0,1,9.717,7.675,35.662,35.662,0,0,1,6.263,10.717,34.914,34.914,0,0,1-6.647,35.454,32.114,32.114,0,0,1-9.717,7.346A27.59,27.59,0,0,1,163.472,108.759Zm0-63.247a23.975,23.975,0,0,0-11.019,2.563,28.251,28.251,0,0,0-8.62,6.784,31.608,31.608,0,0,0-5.578,9.566,31.157,31.157,0,0,0,.1,22.078,32.193,32.193,0,0,0,5.66,9.58,27.157,27.157,0,0,0,8.565,6.606,24.489,24.489,0,0,0,10.9,2.439,23.934,23.934,0,0,0,11.019-2.563,27.56,27.56,0,0,0,8.579-6.784,31.975,31.975,0,0,0,5.537-9.58,31.5,31.5,0,0,0-5.838-31.658,28.335,28.335,0,0,0-8.62-6.606A24.023,24.023,0,0,0,163.472,45.512ZM136.679,87.256a32.241,32.241,0,0,0,3.056,6.112A35.852,35.852,0,0,1,136.679,87.256ZM192.1,79.664a34.658,34.658,0,0,1-4.317,12.567,33.956,33.956,0,0,0,2.357-4.865A31.479,31.479,0,0,0,192.1,79.664ZM136.419,64.15a31.355,31.355,0,0,0-1.384,5.084A35.864,35.864,0,0,1,136.419,64.15Z" transform="translate(-132.65 -41.88)" fill="#fff"/>
          </g>
          <g id="Group_24" data-name="Group 24" transform="translate(206.461 0.452)">
            <path id="Path_40" data-name="Path 40" d="M186.59,107.021V42.87h20.6a32.18,32.18,0,0,1,13.239,2.535,26.615,26.615,0,0,1,9.4,6.866,28.605,28.605,0,0,1,5.605,10.169,40.891,40.891,0,0,1,1.85,12.43,39.107,39.107,0,0,1-2.124,13.239,29.292,29.292,0,0,1-6,10.114,26.513,26.513,0,0,1-9.484,6.51,32.551,32.551,0,0,1-12.471,2.3H186.59Zm48.885-32.165a37.8,37.8,0,0,0-1.85-12.1,26.9,26.9,0,0,0-5.468-9.538,24.937,24.937,0,0,0-8.894-6.277,30.428,30.428,0,0,0-12.06-2.261H188.413v60.533H207.2a30.416,30.416,0,0,0,12.238-2.3,24.765,24.765,0,0,0,8.853-6.373,27.074,27.074,0,0,0,5.372-9.621A38.691,38.691,0,0,0,235.474,74.857Z" transform="translate(-185.672 -41.965)" fill="#fff"/>
            <path id="Path_41" data-name="Path 41" d="M207.436,108.184H185.92V42.21h21.516a33.252,33.252,0,0,1,13.609,2.6,27.808,27.808,0,0,1,9.717,7.1A29.618,29.618,0,0,1,236.545,62.4a41.838,41.838,0,0,1,1.891,12.7,39.864,39.864,0,0,1-2.179,13.54,30.347,30.347,0,0,1-6.195,10.429,27.382,27.382,0,0,1-9.813,6.729A33.244,33.244,0,0,1,207.436,108.184Zm-17.871-3.632H207.45a29.641,29.641,0,0,0,11.882-2.234,24.03,24.03,0,0,0,8.538-6.14,26.27,26.27,0,0,0,5.194-9.305,38.278,38.278,0,0,0,1.768-11.786,36.828,36.828,0,0,0-1.809-11.813,26.124,26.124,0,0,0-5.276-9.21,24.085,24.085,0,0,0-8.579-6.044,29.658,29.658,0,0,0-11.7-2.179H189.579v58.711Zm22.777-60.218a28.673,28.673,0,0,1,7.51,2.015,26.013,26.013,0,0,1,9.223,6.51,27.621,27.621,0,0,1,5.317,8.922,27.448,27.448,0,0,0-5.016-8.661,25.926,25.926,0,0,0-9.086-6.633A27.52,27.52,0,0,0,212.343,44.334Z" transform="translate(-185.92 -42.21)" fill="#fff"/>
          </g>
        </g>
        <g id="Group_26" data-name="Group 26">
          <path id="Path_42" data-name="Path 42" d="M41.347,95.724H0L16.788,41.81l3.495,1.083L4.961,92.079H41.347Z" transform="translate(0 -41.81)" fill="#fff"/>
          <rect id="Rectangle_13" data-name="Rectangle 13" width="3.645" height="39.291" transform="translate(31.918 26.313)" fill="#fff"/>
        </g>
      </g>
      <path id="Path_43" data-name="Path 43" d="M311.347,43.91H245.989a9.329,9.329,0,0,0-9.319,9.319V87.587a9.329,9.329,0,0,0,9.319,9.319h4.893l.521,11a4.17,4.17,0,0,0,2.851,3.81,4.4,4.4,0,0,0,1.425.247,4.167,4.167,0,0,0,3.166-1.466l11.813-13.6h40.675a9.329,9.329,0,0,0,9.319-9.319V53.229A9.308,9.308,0,0,0,311.347,43.91ZM278.661,84.448s-16.473-12.334-16.473-19.981a9.1,9.1,0,0,1,16.459-5.345,9.1,9.1,0,0,1,16.459,5.345C295.134,72.114,278.661,84.448,278.661,84.448Z" transform="translate(87.678 16.267)" fill="#fff"/>
    </g>
    <text id="_" data-name="&amp;" transform="translate(395.921 160.173)" fill="#fff" font-size="29" font-family="Lato-Bold, Lato" font-weight="700"><tspan x="0" y="0">&amp;</tspan></text>
    <g id="Group_28" data-name="Group 28" transform="translate(433.487 75)">
      <path id="Path_44" data-name="Path 44" d="M102.18,75.89h-1.764a2.677,2.677,0,0,0-1.89.535,2.514,2.514,0,0,0-.546,1.844v1.958c0,.3.148.444.467.444h5.714c.307,0,.467-.148.467-.444V78.269a2.532,2.532,0,0,0-.546-1.844A2.729,2.729,0,0,0,102.18,75.89Z" transform="translate(13.551 10.502)" fill="#fff"/>
      <path id="Path_45" data-name="Path 45" d="M106.272,49.08h-2.083a1.991,1.991,0,0,0-2.379,2.379v7.194a1.991,1.991,0,0,0,2.379,2.379h2.083a2.618,2.618,0,0,0,1.855-.535,2.514,2.514,0,0,0,.546-1.844V51.459a2.532,2.532,0,0,0-.546-1.844A2.583,2.583,0,0,0,106.272,49.08Z" transform="translate(14.081 6.794)" fill="#fff"/>
      <path id="Path_46" data-name="Path 46" d="M87.183,49.11H85.339a2.532,2.532,0,0,0-1.844.546,2.637,2.637,0,0,0-.535,1.855v7.035a2.618,2.618,0,0,0,.535,1.855,2.514,2.514,0,0,0,1.844.546h1.844c1.878,0,2.823-1.036,2.823-3.108V52.206C89.995,50.146,89.061,49.11,87.183,49.11Z" transform="translate(11.474 6.798)" fill="#fff"/>
      <path id="Path_47" data-name="Path 47" d="M121.786,75.93H119.9a2.621,2.621,0,0,0-1.89.546,2.582,2.582,0,0,0-.546,1.855v7.035a2.563,2.563,0,0,0,.546,1.855,2.621,2.621,0,0,0,1.89.546h1.89c1.935,0,2.891-1.036,2.891-3.108V79.026C124.688,76.966,123.721,75.93,121.786,75.93Z" transform="translate(16.245 10.507)" fill="#fff"/>
      <path id="Path_48" data-name="Path 48" d="M40.97,75.89H39.206a2.677,2.677,0,0,0-1.89.535,2.514,2.514,0,0,0-.546,1.844v1.958c0,.3.148.444.467.444h5.714c.307,0,.467-.148.467-.444V78.269a2.532,2.532,0,0,0-.546-1.844A2.729,2.729,0,0,0,40.97,75.89Z" transform="translate(5.086 10.502)" fill="#fff"/>
      <path id="Path_49" data-name="Path 49" d="M181.492,72.852l-14.126-8.162a2.674,2.674,0,0,0-2.675,0l-10.131,6.17V37.827a2.682,2.682,0,0,0-1.343-2.322L92.362.354a2.674,2.674,0,0,0-2.675,0L0,52.135l.011.034L0,52.181v17.86a2.7,2.7,0,0,0,1.332,2.322l14.126,8.15a2.674,2.674,0,0,0,2.675,0l9.334-5.407v33.011a2.682,2.682,0,0,0,1.343,2.322l60.865,35.14a2.674,2.674,0,0,0,2.675,0l79.01-45.612h.011L181.5,93.8a2.682,2.682,0,0,0,1.343-2.322V75.163A2.7,2.7,0,0,0,181.492,72.852ZM36.619,52.272a.755.755,0,0,1,.854-.854h3.472a.755.755,0,0,1,.854.854V65.339a2.563,2.563,0,0,0,.546,1.855,2.525,2.525,0,0,0,1.821.546H45.68c1.878,0,2.823-1.036,2.823-3.108V52.272a.755.755,0,0,1,.854-.854h3.438c.6,0,.9.285.9.854V71.4c0,.569-.3.854-.9.854H49.357A.755.755,0,0,1,48.5,71.4V70.052h-.159A3.052,3.052,0,0,1,46.75,71.7a5.543,5.543,0,0,1-2.413.546H42.994a6.2,6.2,0,0,1-4.758-1.719,6.927,6.927,0,0,1-1.616-4.94Zm17.12,41.514a.766.766,0,0,1-.876.854H42.322c-.341,0-.5.148-.5.444v.9a2.493,2.493,0,0,0,.569,1.821,2.7,2.7,0,0,0,1.912.546h8.48c.592,0,.876.3.876.9v2.7a.888.888,0,0,1-.194.637.978.978,0,0,1-.694.182H43.495a7.13,7.13,0,0,1-5.122-1.719,6.49,6.49,0,0,1-1.81-4.94V88.584a6.473,6.473,0,0,1,1.81-4.94,7.13,7.13,0,0,1,5.122-1.719h3.312a7.13,7.13,0,0,1,5.122,1.719,6.49,6.49,0,0,1,1.81,4.94v5.2ZM58.19,71.4V52.272a.755.755,0,0,1,.854-.854h3.472a.755.755,0,0,1,.854.854v1.355h.159c.6-1.468,1.935-2.208,4.007-2.208h1.309q6.42,0,6.42,6.659V71.4c0,.569-.3.854-.9.854H70.928a.755.755,0,0,1-.854-.854V58.316a2.021,2.021,0,0,0-2.4-2.4H66.2c-1.878,0-2.823,1.036-2.823,3.108V71.407a.755.755,0,0,1-.854.854H59.055A.771.771,0,0,1,58.19,71.4Zm18.384,30.518q0,.854-.922.854H72.123a.762.762,0,0,1-.876-.854V88.845a2.511,2.511,0,0,0-.569-1.855,2.7,2.7,0,0,0-1.912-.546H67.251c-1.935,0-2.891,1.036-2.891,3.108v12.385a.766.766,0,0,1-.876.854H59.92a.762.762,0,0,1-.877-.854V82.812a.766.766,0,0,1,.877-.854h3.563a.762.762,0,0,1,.876.854v1.343h.171c.615-1.468,1.992-2.208,4.109-2.208h1.343q6.591,0,6.591,6.659ZM84.963,71.4a.675.675,0,0,1-.82.854H80.626a.755.755,0,0,1-.854-.854V52.272q0-.854.82-.854h3.517a.755.755,0,0,1,.854.854Zm0-23.506a.724.724,0,0,1-.82.82H80.592a.724.724,0,0,1-.82-.82V44.338a.724.724,0,0,1,.82-.82h3.552c.546,0,.82.262.82.774v3.6Zm17.792,37.723a.927.927,0,0,1-.194.672.814.814,0,0,1-.649.148H99.021c-1.935,0-2.891,1.059-2.891,3.187v12.305a.766.766,0,0,1-.876.854H91.691a.762.762,0,0,1-.876-.854V82.8a.766.766,0,0,1,.876-.854h3.563a.762.762,0,0,1,.876.854V84.19H96.3a3.177,3.177,0,0,1,1.639-1.673,5.663,5.663,0,0,1,2.482-.569h1.514a.751.751,0,0,1,.842.854v2.812Zm-.421-13.364a.755.755,0,0,1-.854-.854V70.052h-.171A3.052,3.052,0,0,1,99.716,71.7a5.543,5.543,0,0,1-2.413.546H95.629a6.2,6.2,0,0,1-4.758-1.719,6.927,6.927,0,0,1-1.616-4.94V58.066a6.908,6.908,0,0,1,1.616-4.94,6.257,6.257,0,0,1,4.758-1.719H97.3a5.543,5.543,0,0,1,2.413.546,3.09,3.09,0,0,1,1.594,1.651h.159V44.372a.755.755,0,0,1,.854-.854h3.472a.755.755,0,0,1,.854.854V71.384a.755.755,0,0,1-.854.854h-3.46Zm21.081,21.537a.766.766,0,0,1-.877.854H112c-.341,0-.5.148-.5.444v.9a2.493,2.493,0,0,0,.569,1.821,2.7,2.7,0,0,0,1.912.546h8.48c.592,0,.876.3.876.9v2.7a.888.888,0,0,1-.194.637.978.978,0,0,1-.694.182H113.17a7.13,7.13,0,0,1-5.122-1.719,6.49,6.49,0,0,1-1.81-4.94V88.584a6.473,6.473,0,0,1,1.81-4.94,7.13,7.13,0,0,1,5.122-1.719h3.312a7.13,7.13,0,0,1,5.122,1.719,6.49,6.49,0,0,1,1.81,4.94v5.2Zm4.451-28.2a6.585,6.585,0,0,1-1.776,4.929,6.78,6.78,0,0,1-4.963,1.742H117.5a6.82,6.82,0,0,1-4.986-1.719,6.6,6.6,0,0,1-1.753-4.94V58.077a6.577,6.577,0,0,1,1.753-4.94,6.868,6.868,0,0,1,4.986-1.719h3.631a6.78,6.78,0,0,1,4.963,1.742,6.585,6.585,0,0,1,1.776,4.929Zm18.4,36.323a.766.766,0,0,1-.876.854h-3.563a.762.762,0,0,1-.877-.854V100.57h-.171a3.1,3.1,0,0,1-1.639,1.651,5.8,5.8,0,0,1-2.481.546h-1.719a6.49,6.49,0,0,1-4.895-1.719,6.841,6.841,0,0,1-1.662-4.94V88.584a6.774,6.774,0,0,1,1.662-4.94,6.473,6.473,0,0,1,4.895-1.719h1.719a5.842,5.842,0,0,1,2.481.546,3.137,3.137,0,0,1,1.639,1.651h.171V74.9a.766.766,0,0,1,.877-.854h3.563a.762.762,0,0,1,.876.854Zm-6.42-29.664h-7.763q-.82,0-.82-.854V68.777a1.023,1.023,0,0,1,.159-.637.867.867,0,0,1,.649-.182h6.83c1.332,0,2-.41,2-1.229v-.2q0-.973-1.673-1.878L135.185,62.4a9.125,9.125,0,0,1-3.062-2.288,4.909,4.909,0,0,1-.979-3.142,5.346,5.346,0,0,1,1.514-4.212,6.981,6.981,0,0,1,4.735-1.343h6.83q.82,0,.82.854v2.652a1.024,1.024,0,0,1-.159.637.867.867,0,0,1-.649.182h-5.68c-1.332,0-2,.341-2,1.024v.2c0,.6.581,1.218,1.753,1.844l4.132,2.447a8.728,8.728,0,0,1,2.982,2.345,5.364,5.364,0,0,1,.854,3.164Q146.255,72.255,139.841,72.249Z" transform="translate(0 0.005)" fill="#fff"/>
    </g>
  </g>
</svg>
