<svg id="Group_61" data-name="Group 61" xmlns="http://www.w3.org/2000/svg" width="195.002" height="61.211" viewBox="0 0 195.002 61.211">
  <g id="Group_20" data-name="Group 20" transform="translate(1.505)">
    <g id="Group_11" data-name="Group 11">
      <path id="Path_16" data-name="Path 16" d="M19.612,1.259H11.585V21.623H11V1.259H2.97V.67H19.619v.589Z" transform="translate(-2.532 -0.232)" fill="#888"/>
      <path id="Path_17" data-name="Path 17" d="M11.792,21.83H10.327V1.459H2.3V0H19.819V1.459H11.792Z" transform="translate(-2.3)" fill="#888"/>
    </g>
    <g id="Group_12" data-name="Group 12" transform="translate(21.575)">
      <path id="Path_18" data-name="Path 18" d="M51.683.67V21.623h-.589V11.2H36.539V21.623H35.95V.67h.589v9.943H51.088V.67Z" transform="translate(-35.512 -0.232)" fill="#888"/>
      <path id="Path_19" data-name="Path 19" d="M51.883,21.83H50.424V11.409H36.745V21.83H35.28V0h1.465V9.943H50.424V0h1.459Z" transform="translate(-35.28)" fill="#888"/>
    </g>
    <g id="Group_13" data-name="Group 13" transform="translate(44.628)">
      <path id="Path_20" data-name="Path 20" d="M84.937,21.034v.589H71.18V.67H84.669v.589H71.775v9.355h11.3V11.2h-11.3v9.832Z" transform="translate(-70.748 -0.232)" fill="#888"/>
      <path id="Path_21" data-name="Path 21" d="M85.147,21.83H70.52V0H84.879V1.459h-12.9V9.943h11.3v1.465h-11.3v8.956H85.147Z" transform="translate(-70.52)" fill="#888"/>
    </g>
    <g id="Group_14" data-name="Group 14" transform="translate(73.49)">
      <path id="Path_22" data-name="Path 22" d="M130.248,16.193a5.253,5.253,0,0,1-.412,2.067,5.854,5.854,0,0,1-1.119,1.727,5.27,5.27,0,0,1-1.668,1.2,4.792,4.792,0,0,1-2.021.445H115.32V.67h9.27a4.138,4.138,0,0,1,1.976.471,4.991,4.991,0,0,1,1.5,1.223,5.854,5.854,0,0,1,1.3,3.65,5.5,5.5,0,0,1-.811,2.924,4.876,4.876,0,0,1-2.2,1.949,5.292,5.292,0,0,1,1.609.8,5.542,5.542,0,0,1,1.236,1.236,5.248,5.248,0,0,1,.785,1.55A5.681,5.681,0,0,1,130.248,16.193ZM115.9,1.259v9.505h8.5a3.825,3.825,0,0,0,1.773-.412,4.55,4.55,0,0,0,1.374-1.092,5.393,5.393,0,0,0,.9-1.518,4.787,4.787,0,0,0,.327-1.727,5.33,5.33,0,0,0-.307-1.8,5.073,5.073,0,0,0-.857-1.518,4,4,0,0,0-1.328-1.047,3.81,3.81,0,0,0-1.694-.386H115.9Zm13.757,14.935a4.872,4.872,0,0,0-.34-1.812,5.285,5.285,0,0,0-.929-1.55,4.515,4.515,0,0,0-1.4-1.079,3.9,3.9,0,0,0-1.753-.4h-9.328v9.682h9.119a4.047,4.047,0,0,0,1.812-.412,5.077,5.077,0,0,0,1.478-1.092,4.935,4.935,0,0,0,.988-1.55A4.723,4.723,0,0,0,129.659,16.193Z" transform="translate(-114.875 -0.232)" fill="#888"/>
      <path id="Path_23" data-name="Path 23" d="M124.786,21.83H114.64V0h9.7a4.607,4.607,0,0,1,2.185.523,5.334,5.334,0,0,1,1.635,1.335A6,6,0,0,1,129.2,3.7a6.254,6.254,0,0,1,.366,2.08,5.928,5.928,0,0,1-.877,3.147,5.3,5.3,0,0,1-1.557,1.649,5.361,5.361,0,0,1,.85.517,6.3,6.3,0,0,1,1.334,1.335,5.762,5.762,0,0,1,.844,1.675,6.156,6.156,0,0,1,.288,1.858A5.737,5.737,0,0,1,130,18.2a6.306,6.306,0,0,1-1.2,1.858,5.827,5.827,0,0,1-1.8,1.3A5.355,5.355,0,0,1,124.786,21.83Zm-8.681-1.465h8.687A3.665,3.665,0,0,0,126.415,20a4.641,4.641,0,0,0,2.25-2.414,4.244,4.244,0,0,0,.321-1.622,4.586,4.586,0,0,0-.307-1.655,4.85,4.85,0,0,0-.85-1.42,4.089,4.089,0,0,0-1.263-.975A3.513,3.513,0,0,0,125,11.559h-8.89v8.805Zm0-10.27h8.066a3.367,3.367,0,0,0,1.57-.366,4.15,4.15,0,0,0,1.243-.988,4.9,4.9,0,0,0,.824-1.393,4.338,4.338,0,0,0,.294-1.57,5,5,0,0,0-.281-1.655,4.688,4.688,0,0,0-.785-1.393,3.53,3.53,0,0,0-1.184-.935,3.429,3.429,0,0,0-1.5-.34h-8.243v8.642Z" transform="translate(-114.64)" fill="#888"/>
    </g>
    <g id="Group_15" data-name="Group 15" transform="translate(91.237)">
      <path id="Path_24" data-name="Path 24" d="M151.932.67h.53l9.119,20.953h-.648l-3.277-7.5H146.705l-3.277,7.5h-.648Zm5.462,12.868L152.2,1.527l-5.253,12.011Z" transform="translate(-142.119 -0.232)" fill="#888"/>
      <path id="Path_25" data-name="Path 25" d="M161.9,21.83h-1.6l-3.277-7.5H146.644l-3.277,7.5h-1.6L151.3,0h1.1Zm-14.634-8.962h9.119L151.851,2.381Z" transform="translate(-141.77)" fill="#888"/>
    </g>
    <g id="Group_16" data-name="Group 16" transform="translate(113.132)">
      <path id="Path_26" data-name="Path 26" d="M175.9,21.034,191.895,1.259H176.044V.67h16.59v.589L176.639,21.034h15.877v.589H175.9v-.589Z" transform="translate(-175.468 -0.232)" fill="#888"/>
      <path id="Path_27" data-name="Path 27" d="M192.726,21.83H175.24V20.646L190.757,1.459H175.384V0h17.46V1.178L177.327,20.364h15.4Z" transform="translate(-175.24)" fill="#888"/>
    </g>
    <g id="Group_17" data-name="Group 17" transform="translate(132.502)">
      <path id="Path_28" data-name="Path 28" d="M215.012.67h.53l9.119,20.953h-.648l-3.277-7.5H209.785l-3.277,7.5h-.648Zm5.462,12.868L215.28,1.527l-5.253,12.011Z" transform="translate(-205.199 -0.232)" fill="#888"/>
      <path id="Path_29" data-name="Path 29" d="M224.979,21.83h-1.6l-3.277-7.5H209.724l-3.277,7.5h-1.6L214.375,0h1.1Zm-14.64-8.962h9.119L214.924,2.381Z" transform="translate(-204.85)" fill="#888"/>
    </g>
    <g id="Group_18" data-name="Group 18" transform="translate(153.867)">
      <path id="Path_30" data-name="Path 30" d="M247.672.67h.53l9.119,20.953h-.648l-3.277-7.5H242.445l-3.277,7.5h-.648Zm5.462,12.868L247.94,1.527l-5.253,12.011Z" transform="translate(-237.859 -0.232)" fill="#888"/>
      <path id="Path_31" data-name="Path 31" d="M257.639,21.83h-1.6l-3.277-7.5H242.384l-3.277,7.5h-1.6L247.041,0h1.1Zm-14.634-8.962h9.119L247.591,2.381Z" transform="translate(-237.51)" fill="#888"/>
    </g>
    <g id="Group_19" data-name="Group 19" transform="translate(177.862)">
      <path id="Path_32" data-name="Path 32" d="M274.85,21.623V.67h8.53a5.261,5.261,0,0,1,2.362.543,6.09,6.09,0,0,1,1.877,1.446,6.914,6.914,0,0,1,1.223,2.034,6.358,6.358,0,0,1,.445,2.316,7.157,7.157,0,0,1-.386,2.329,6.488,6.488,0,0,1-1.092,2,5.805,5.805,0,0,1-1.694,1.42,5.2,5.2,0,0,1-2.172.635l5.312,8.236h-.706l-5.312-8.236h-7.791v8.236Zm.589-8.825h8.144a4.475,4.475,0,0,0,2.126-.5,5.23,5.23,0,0,0,1.609-1.315,5.905,5.905,0,0,0,1.021-1.845,6.53,6.53,0,0,0,.353-2.126,5.751,5.751,0,0,0-.412-2.152,6,6,0,0,0-1.138-1.832,5.716,5.716,0,0,0-1.694-1.282,4.53,4.53,0,0,0-2.067-.484h-7.942Z" transform="translate(-274.418 -0.232)" fill="#888"/>
      <path id="Path_33" data-name="Path 33" d="M289.825,21.83h-1.747l-5.312-8.236h-7.117V21.83H274.19V0h8.969a5.593,5.593,0,0,1,2.558.6,6.414,6.414,0,0,1,2.008,1.55,7.4,7.4,0,0,1,1.3,2.165,6.772,6.772,0,0,1,.471,2.473,7.685,7.685,0,0,1-.406,2.473,7.047,7.047,0,0,1-1.164,2.126,6.221,6.221,0,0,1-1.825,1.524,5.737,5.737,0,0,1-1.642.6Zm-14.176-9.7h7.713a4.032,4.032,0,0,0,1.923-.451,4.9,4.9,0,0,0,1.478-1.2,5.5,5.5,0,0,0,.942-1.707,6.034,6.034,0,0,0,.334-1.982,5.461,5.461,0,0,0-.379-2,5.671,5.671,0,0,0-1.053-1.7,5.258,5.258,0,0,0-1.57-1.184,4.119,4.119,0,0,0-1.871-.438h-7.5V12.128Z" transform="translate(-274.19)" fill="#888"/>
    </g>
  </g>
  <g id="Group_27" data-name="Group 27" transform="translate(0 27.351)">
    <g id="Group_25" data-name="Group 25" transform="translate(23.073 0.046)">
      <g id="Group_21" data-name="Group 21">
        <path id="Path_34" data-name="Path 34" d="M61.433,68.167Q56.645,73.6,50.391,73.6a12.577,12.577,0,0,1-5.842-1.361,15.236,15.236,0,0,1-4.573-3.559A16.331,16.331,0,0,1,37,63.706a15.7,15.7,0,0,1-1.06-5.626,16.939,16.939,0,0,1,3.9-10.761,13.873,13.873,0,0,1,4.4-3.474,12.292,12.292,0,0,1,5.626-1.3,16.254,16.254,0,0,1,4.226.5,12.2,12.2,0,0,1,3.277,1.38A9.872,9.872,0,0,1,59.8,46.54a14.424,14.424,0,0,1,1.747,2.7l-.818.262A10.9,10.9,0,0,0,56.2,44.84a13.63,13.63,0,0,0-6.339-1.426,11.528,11.528,0,0,0-5.436,1.269A13.386,13.386,0,0,0,40.3,48.025a14.96,14.96,0,0,0-2.61,4.7,16.385,16.385,0,0,0-.9,5.351,14.775,14.775,0,0,0,1.06,5.541A15.2,15.2,0,0,0,40.761,68.3a14.377,14.377,0,0,0,4.311,3.232,11.87,11.87,0,0,0,5.305,1.21,12.469,12.469,0,0,0,5.737-1.38,17.857,17.857,0,0,0,5.305-4.4V59.67H54.231v-.864H62.3V73.381h-.864Z" transform="translate(-35.502 -42.112)" fill="#888"/>
        <path id="Path_35" data-name="Path 35" d="M50.159,73.8A13.116,13.116,0,0,1,44.114,72.4a15.741,15.741,0,0,1-4.7-3.657,16.8,16.8,0,0,1-3.055-5.116,16.257,16.257,0,0,1-1.086-5.783,17.194,17.194,0,0,1,1.06-5.933A17.02,17.02,0,0,1,39.274,46.8a14.3,14.3,0,0,1,4.533-3.578,12.807,12.807,0,0,1,5.822-1.341,16.863,16.863,0,0,1,4.337.51,12.662,12.662,0,0,1,3.4,1.433,10.623,10.623,0,0,1,2.545,2.2,14.461,14.461,0,0,1,1.8,2.78l.229.458-1.649.523-.17-.314a10.543,10.543,0,0,0-4.344-4.481,13.3,13.3,0,0,0-6.143-1.374A11.126,11.126,0,0,0,44.4,44.843a12.938,12.938,0,0,0-3.984,3.232,14.621,14.621,0,0,0-2.532,4.566A16.064,16.064,0,0,0,37,57.848a14.483,14.483,0,0,0,1.027,5.384,14.873,14.873,0,0,0,2.826,4.546,14.078,14.078,0,0,0,4.187,3.14,11.488,11.488,0,0,0,5.116,1.164,12.14,12.14,0,0,0,5.541-1.335,17.3,17.3,0,0,0,5.07-4.174V59.87h-7.2V58.136H62.5V73.588H60.763V69.041A14.512,14.512,0,0,1,50.159,73.8ZM43.421,71c.353.222.72.425,1.1.621a11.776,11.776,0,0,0,2.97,1.04,12.353,12.353,0,0,1-2.826-.975C44.239,71.481,43.82,71.252,43.421,71ZM51.042,42.8a13.579,13.579,0,0,1,5.135,1.413,11.051,11.051,0,0,1,4.226,4,13.23,13.23,0,0,0-1.158-1.642,9.536,9.536,0,0,0-2.329-2.021,11.628,11.628,0,0,0-3.16-1.328A15.54,15.54,0,0,0,51.042,42.8Z" transform="translate(-35.27 -41.88)" fill="#888"/>
      </g>
      <g id="Group_22" data-name="Group 22" transform="translate(31.06 0)">
        <path id="Path_36" data-name="Path 36" d="M97.694,73.6a12.565,12.565,0,0,1-5.8-1.335,15.048,15.048,0,0,1-4.507-3.493,15.475,15.475,0,0,1-2.931-4.959,16.52,16.52,0,0,1-1.034-5.737,15.95,15.95,0,0,1,1.1-5.868,16.327,16.327,0,0,1,3.022-4.959,14.475,14.475,0,0,1,4.527-3.428,12.642,12.642,0,0,1,5.626-1.269,12.348,12.348,0,0,1,5.776,1.361,14.727,14.727,0,0,1,4.507,3.559,16.507,16.507,0,0,1,2.911,4.985,16.229,16.229,0,0,1-3.081,16.472,14.767,14.767,0,0,1-4.507,3.408A12.6,12.6,0,0,1,97.694,73.6ZM84.277,58.073a15.354,15.354,0,0,0,1.014,5.5,15.746,15.746,0,0,0,2.78,4.7A13.224,13.224,0,0,0,92.3,71.536a12.071,12.071,0,0,0,5.39,1.21,11.837,11.837,0,0,0,5.456-1.269,13.576,13.576,0,0,0,4.226-3.343,15.545,15.545,0,0,0,2.715-4.7,15.466,15.466,0,0,0-2.872-15.556,13.822,13.822,0,0,0-4.246-3.258,12.256,12.256,0,0,0-10.741.059,13.808,13.808,0,0,0-4.246,3.343,15.423,15.423,0,0,0-2.741,4.7A15.664,15.664,0,0,0,84.277,58.073Z" transform="translate(-82.982 -42.112)" fill="#888"/>
        <path id="Path_37" data-name="Path 37" d="M97.462,73.8a12.981,12.981,0,0,1-6-1.387,15.614,15.614,0,0,1-4.638-3.591,16.149,16.149,0,0,1-3.016-5.1,16.924,16.924,0,0,1-1.06-5.888,16.372,16.372,0,0,1,1.132-6.025,16.842,16.842,0,0,1,3.1-5.089,15,15,0,0,1,4.664-3.533,13.12,13.12,0,0,1,5.822-1.315,12.867,12.867,0,0,1,5.979,1.406,15.226,15.226,0,0,1,4.638,3.663,17.023,17.023,0,0,1,2.99,5.116A16.666,16.666,0,0,1,107.9,68.989a15.329,15.329,0,0,1-4.638,3.506A13.211,13.211,0,0,1,97.462,73.8Zm0-30.19a11.444,11.444,0,0,0-5.26,1.223,13.485,13.485,0,0,0-4.115,3.238,15.087,15.087,0,0,0-2.662,4.566,14.873,14.873,0,0,0,.046,10.539,15.367,15.367,0,0,0,2.7,4.573,12.963,12.963,0,0,0,4.089,3.153,11.689,11.689,0,0,0,5.2,1.164,11.425,11.425,0,0,0,5.26-1.223,13.155,13.155,0,0,0,4.1-3.238,15.262,15.262,0,0,0,2.643-4.573,15.037,15.037,0,0,0-2.787-15.111,13.525,13.525,0,0,0-4.115-3.153A11.487,11.487,0,0,0,97.462,43.614ZM84.667,63.54a15.389,15.389,0,0,0,1.459,2.918A17.114,17.114,0,0,1,84.667,63.54Zm26.461-3.631a16.543,16.543,0,0,1-2.061,6,16.206,16.206,0,0,0,1.125-2.322A15.559,15.559,0,0,0,111.128,59.909Zm-26.579-7.4a14.969,14.969,0,0,0-.661,2.427A15.341,15.341,0,0,1,84.549,52.51Z" transform="translate(-82.75 -41.88)" fill="#888"/>
      </g>
      <g id="Group_23" data-name="Group 23" transform="translate(63.703 0)">
        <path id="Path_38" data-name="Path 38" d="M147.594,73.6a12.565,12.565,0,0,1-5.8-1.335,15.048,15.048,0,0,1-4.507-3.493,15.474,15.474,0,0,1-2.931-4.959,16.52,16.52,0,0,1-1.034-5.737,15.95,15.95,0,0,1,1.1-5.868,16.327,16.327,0,0,1,3.022-4.959,14.475,14.475,0,0,1,4.527-3.428,12.643,12.643,0,0,1,5.626-1.269,12.348,12.348,0,0,1,5.776,1.361,14.727,14.727,0,0,1,4.507,3.559,16.506,16.506,0,0,1,2.911,4.985,16.229,16.229,0,0,1-3.081,16.472,14.767,14.767,0,0,1-4.507,3.408A12.562,12.562,0,0,1,147.594,73.6Zm-13.41-15.523a15.354,15.354,0,0,0,1.014,5.5,15.747,15.747,0,0,0,2.78,4.7,13.224,13.224,0,0,0,4.226,3.258,12.071,12.071,0,0,0,5.39,1.21,11.837,11.837,0,0,0,5.456-1.269,13.576,13.576,0,0,0,4.226-3.343,15.545,15.545,0,0,0,2.715-4.7,15.466,15.466,0,0,0-2.872-15.556,13.822,13.822,0,0,0-4.246-3.258,12.256,12.256,0,0,0-10.741.059,13.808,13.808,0,0,0-4.246,3.343,15.631,15.631,0,0,0-3.7,10.055Z" transform="translate(-132.882 -42.112)" fill="#888"/>
        <path id="Path_39" data-name="Path 39" d="M147.362,73.8a12.981,12.981,0,0,1-6-1.387,15.614,15.614,0,0,1-4.638-3.591,16.148,16.148,0,0,1-3.016-5.1,16.924,16.924,0,0,1-1.06-5.888,16.372,16.372,0,0,1,1.132-6.025,16.842,16.842,0,0,1,3.1-5.089,15,15,0,0,1,4.664-3.533,13.121,13.121,0,0,1,5.822-1.315,12.867,12.867,0,0,1,5.979,1.406,15.225,15.225,0,0,1,4.638,3.663,17.023,17.023,0,0,1,2.99,5.116A16.666,16.666,0,0,1,157.8,68.989a15.329,15.329,0,0,1-4.638,3.506A13.17,13.17,0,0,1,147.362,73.8Zm0-30.19a11.444,11.444,0,0,0-5.26,1.223,13.485,13.485,0,0,0-4.115,3.238,15.088,15.088,0,0,0-2.662,4.566,14.872,14.872,0,0,0,.046,10.539,15.366,15.366,0,0,0,2.7,4.573,12.962,12.962,0,0,0,4.089,3.153,11.689,11.689,0,0,0,5.2,1.164,11.425,11.425,0,0,0,5.26-1.223,13.155,13.155,0,0,0,4.1-3.238,15.262,15.262,0,0,0,2.643-4.573,15.037,15.037,0,0,0-2.787-15.111,13.525,13.525,0,0,0-4.115-3.153A11.467,11.467,0,0,0,147.362,43.614ZM134.573,63.54a15.391,15.391,0,0,0,1.459,2.918A17.113,17.113,0,0,1,134.573,63.54Zm26.455-3.624a16.543,16.543,0,0,1-2.061,6,16.21,16.21,0,0,0,1.125-2.322A15.026,15.026,0,0,0,161.028,59.915ZM134.449,52.51a14.968,14.968,0,0,0-.661,2.427A17.119,17.119,0,0,1,134.449,52.51Z" transform="translate(-132.65 -41.88)" fill="#888"/>
      </g>
      <g id="Group_24" data-name="Group 24" transform="translate(98.551 0.216)">
        <path id="Path_40" data-name="Path 40" d="M186.59,73.492V42.87h9.832a15.361,15.361,0,0,1,6.319,1.21,12.7,12.7,0,0,1,4.488,3.277,13.654,13.654,0,0,1,2.676,4.854,19.519,19.519,0,0,1,.883,5.933,18.667,18.667,0,0,1-1.014,6.319,13.982,13.982,0,0,1-2.865,4.828,12.655,12.655,0,0,1-4.527,3.107,15.538,15.538,0,0,1-5.953,1.1H186.59Zm23.334-15.353a18.042,18.042,0,0,0-.883-5.776,12.841,12.841,0,0,0-2.61-4.553,11.9,11.9,0,0,0-4.246-3,14.524,14.524,0,0,0-5.757-1.079H187.46V72.628h8.969a14.518,14.518,0,0,0,5.842-1.1,11.821,11.821,0,0,0,4.226-3.042,12.924,12.924,0,0,0,2.564-4.592A18.469,18.469,0,0,0,209.924,58.138Z" transform="translate(-186.152 -42.438)" fill="#888"/>
        <path id="Path_41" data-name="Path 41" d="M196.191,73.7H185.92V42.21h10.27a15.872,15.872,0,0,1,6.5,1.243,13.274,13.274,0,0,1,4.638,3.389,14.138,14.138,0,0,1,2.761,5,19.971,19.971,0,0,1,.9,6.064,19.028,19.028,0,0,1-1.04,6.463,14.486,14.486,0,0,1-2.957,4.978,13.071,13.071,0,0,1-4.684,3.212A15.869,15.869,0,0,1,196.191,73.7Zm-8.53-1.734H196.2a14.149,14.149,0,0,0,5.672-1.066,11.471,11.471,0,0,0,4.075-2.931,12.54,12.54,0,0,0,2.479-4.442,18.272,18.272,0,0,0,.844-5.626,17.579,17.579,0,0,0-.864-5.639,12.47,12.47,0,0,0-2.519-4.4,11.5,11.5,0,0,0-4.1-2.885,14.157,14.157,0,0,0-5.587-1.04h-8.537V71.968Zm10.872-28.744a13.687,13.687,0,0,1,3.585.962,12.417,12.417,0,0,1,4.4,3.107,13.184,13.184,0,0,1,2.538,4.259,13.1,13.1,0,0,0-2.394-4.134,12.376,12.376,0,0,0-4.337-3.166A13.137,13.137,0,0,0,198.532,43.224Z" transform="translate(-185.92 -42.21)" fill="#888"/>
      </g>
    </g>
    <g id="Group_26" data-name="Group 26">
      <path id="Path_42" data-name="Path 42" d="M19.736,67.545H0L8.014,41.81l1.668.517L2.368,65.8H19.736Z" transform="translate(0 -41.81)" fill="#888"/>
      <rect id="Rectangle_13" data-name="Rectangle 13" width="1.74" height="18.755" transform="translate(15.236 12.56)" fill="#888"/>
    </g>
  </g>
  <path id="Path_43" data-name="Path 43" d="M272.316,43.91h-31.2a4.453,4.453,0,0,0-4.448,4.448v16.4a4.453,4.453,0,0,0,4.448,4.448h2.335l.249,5.253a1.991,1.991,0,0,0,1.361,1.819,2.1,2.1,0,0,0,.68.118,1.989,1.989,0,0,0,1.511-.7l5.639-6.489h19.416a4.453,4.453,0,0,0,4.448-4.448v-16.4A4.443,4.443,0,0,0,272.316,43.91Zm-15.6,19.35s-7.863-5.888-7.863-9.538a4.342,4.342,0,0,1,7.857-2.551,4.342,4.342,0,0,1,7.857,2.551C264.577,57.373,256.714,63.26,256.714,63.26Z" transform="translate(-81.847 -15.185)" fill="#888"/>
</svg>
