<svg id="Group_28" data-name="Group 28" xmlns="http://www.w3.org/2000/svg" width="182.846" height="145.942" viewBox="0 0 182.846 145.942">
  <path id="Path_44" data-name="Path 44" d="M102.18,75.89h-1.764a2.677,2.677,0,0,0-1.89.535,2.514,2.514,0,0,0-.546,1.844v1.958c0,.3.148.444.467.444h5.714c.307,0,.467-.148.467-.444V78.269a2.532,2.532,0,0,0-.546-1.844A2.729,2.729,0,0,0,102.18,75.89Z" transform="translate(13.551 10.502)" fill="#fff"/>
  <path id="Path_45" data-name="Path 45" d="M106.272,49.08h-2.083a1.991,1.991,0,0,0-2.379,2.379v7.194a1.991,1.991,0,0,0,2.379,2.379h2.083a2.618,2.618,0,0,0,1.855-.535,2.514,2.514,0,0,0,.546-1.844V51.459a2.532,2.532,0,0,0-.546-1.844A2.583,2.583,0,0,0,106.272,49.08Z" transform="translate(14.081 6.794)" fill="#fff"/>
  <path id="Path_46" data-name="Path 46" d="M87.183,49.11H85.339a2.532,2.532,0,0,0-1.844.546,2.637,2.637,0,0,0-.535,1.855v7.035a2.618,2.618,0,0,0,.535,1.855,2.514,2.514,0,0,0,1.844.546h1.844c1.878,0,2.823-1.036,2.823-3.108V52.206C89.995,50.146,89.061,49.11,87.183,49.11Z" transform="translate(11.474 6.798)" fill="#fff"/>
  <path id="Path_47" data-name="Path 47" d="M121.786,75.93H119.9a2.621,2.621,0,0,0-1.89.546,2.582,2.582,0,0,0-.546,1.855v7.035a2.563,2.563,0,0,0,.546,1.855,2.621,2.621,0,0,0,1.89.546h1.89c1.935,0,2.891-1.036,2.891-3.108V79.026C124.688,76.966,123.721,75.93,121.786,75.93Z" transform="translate(16.245 10.507)" fill="#fff"/>
  <path id="Path_48" data-name="Path 48" d="M40.97,75.89H39.206a2.677,2.677,0,0,0-1.89.535,2.514,2.514,0,0,0-.546,1.844v1.958c0,.3.148.444.467.444h5.714c.307,0,.467-.148.467-.444V78.269a2.532,2.532,0,0,0-.546-1.844A2.729,2.729,0,0,0,40.97,75.89Z" transform="translate(5.086 10.502)" fill="#fff"/>
  <path id="Path_49" data-name="Path 49" d="M181.492,72.852l-14.126-8.162a2.674,2.674,0,0,0-2.675,0l-10.131,6.17V37.827a2.682,2.682,0,0,0-1.343-2.322L92.362.354a2.674,2.674,0,0,0-2.675,0L0,52.135l.011.034L0,52.181v17.86a2.7,2.7,0,0,0,1.332,2.322l14.126,8.15a2.674,2.674,0,0,0,2.675,0l9.334-5.407v33.011a2.682,2.682,0,0,0,1.343,2.322l60.865,35.14a2.674,2.674,0,0,0,2.675,0l79.01-45.612h.011L181.5,93.8a2.682,2.682,0,0,0,1.343-2.322V75.163A2.7,2.7,0,0,0,181.492,72.852ZM36.619,52.272a.755.755,0,0,1,.854-.854h3.472a.755.755,0,0,1,.854.854V65.339a2.563,2.563,0,0,0,.546,1.855,2.525,2.525,0,0,0,1.821.546H45.68c1.878,0,2.823-1.036,2.823-3.108V52.272a.755.755,0,0,1,.854-.854h3.438c.6,0,.9.285.9.854V71.4c0,.569-.3.854-.9.854H49.357A.755.755,0,0,1,48.5,71.4V70.052h-.159A3.052,3.052,0,0,1,46.75,71.7a5.543,5.543,0,0,1-2.413.546H42.994a6.2,6.2,0,0,1-4.758-1.719,6.927,6.927,0,0,1-1.616-4.94Zm17.12,41.514a.766.766,0,0,1-.876.854H42.322c-.341,0-.5.148-.5.444v.9a2.493,2.493,0,0,0,.569,1.821,2.7,2.7,0,0,0,1.912.546h8.48c.592,0,.876.3.876.9v2.7a.888.888,0,0,1-.194.637.978.978,0,0,1-.694.182H43.495a7.13,7.13,0,0,1-5.122-1.719,6.49,6.49,0,0,1-1.81-4.94V88.584a6.473,6.473,0,0,1,1.81-4.94,7.13,7.13,0,0,1,5.122-1.719h3.312a7.13,7.13,0,0,1,5.122,1.719,6.49,6.49,0,0,1,1.81,4.94v5.2ZM58.19,71.4V52.272a.755.755,0,0,1,.854-.854h3.472a.755.755,0,0,1,.854.854v1.355h.159c.6-1.468,1.935-2.208,4.007-2.208h1.309q6.42,0,6.42,6.659V71.4c0,.569-.3.854-.9.854H70.928a.755.755,0,0,1-.854-.854V58.316a2.021,2.021,0,0,0-2.4-2.4H66.2c-1.878,0-2.823,1.036-2.823,3.108V71.407a.755.755,0,0,1-.854.854H59.055A.771.771,0,0,1,58.19,71.4Zm18.384,30.518q0,.854-.922.854H72.123a.762.762,0,0,1-.876-.854V88.845a2.511,2.511,0,0,0-.569-1.855,2.7,2.7,0,0,0-1.912-.546H67.251c-1.935,0-2.891,1.036-2.891,3.108v12.385a.766.766,0,0,1-.876.854H59.92a.762.762,0,0,1-.877-.854V82.812a.766.766,0,0,1,.877-.854h3.563a.762.762,0,0,1,.876.854v1.343h.171c.615-1.468,1.992-2.208,4.109-2.208h1.343q6.591,0,6.591,6.659ZM84.963,71.4a.675.675,0,0,1-.82.854H80.626a.755.755,0,0,1-.854-.854V52.272q0-.854.82-.854h3.517a.755.755,0,0,1,.854.854Zm0-23.506a.724.724,0,0,1-.82.82H80.592a.724.724,0,0,1-.82-.82V44.338a.724.724,0,0,1,.82-.82h3.552c.546,0,.82.262.82.774v3.6Zm17.792,37.723a.927.927,0,0,1-.194.672.814.814,0,0,1-.649.148H99.021c-1.935,0-2.891,1.059-2.891,3.187v12.305a.766.766,0,0,1-.876.854H91.691a.762.762,0,0,1-.876-.854V82.8a.766.766,0,0,1,.876-.854h3.563a.762.762,0,0,1,.876.854V84.19H96.3a3.177,3.177,0,0,1,1.639-1.673,5.663,5.663,0,0,1,2.482-.569h1.514a.751.751,0,0,1,.842.854v2.812Zm-.421-13.364a.755.755,0,0,1-.854-.854V70.052h-.171A3.052,3.052,0,0,1,99.716,71.7a5.543,5.543,0,0,1-2.413.546H95.629a6.2,6.2,0,0,1-4.758-1.719,6.927,6.927,0,0,1-1.616-4.94V58.066a6.908,6.908,0,0,1,1.616-4.94,6.257,6.257,0,0,1,4.758-1.719H97.3a5.543,5.543,0,0,1,2.413.546,3.09,3.09,0,0,1,1.594,1.651h.159V44.372a.755.755,0,0,1,.854-.854h3.472a.755.755,0,0,1,.854.854V71.384a.755.755,0,0,1-.854.854h-3.46Zm21.081,21.537a.766.766,0,0,1-.877.854H112c-.341,0-.5.148-.5.444v.9a2.493,2.493,0,0,0,.569,1.821,2.7,2.7,0,0,0,1.912.546h8.48c.592,0,.876.3.876.9v2.7a.888.888,0,0,1-.194.637.978.978,0,0,1-.694.182H113.17a7.13,7.13,0,0,1-5.122-1.719,6.49,6.49,0,0,1-1.81-4.94V88.584a6.473,6.473,0,0,1,1.81-4.94,7.13,7.13,0,0,1,5.122-1.719h3.312a7.13,7.13,0,0,1,5.122,1.719,6.49,6.49,0,0,1,1.81,4.94v5.2Zm4.451-28.2a6.585,6.585,0,0,1-1.776,4.929,6.78,6.78,0,0,1-4.963,1.742H117.5a6.82,6.82,0,0,1-4.986-1.719,6.6,6.6,0,0,1-1.753-4.94V58.077a6.577,6.577,0,0,1,1.753-4.94,6.868,6.868,0,0,1,4.986-1.719h3.631a6.78,6.78,0,0,1,4.963,1.742,6.585,6.585,0,0,1,1.776,4.929Zm18.4,36.323a.766.766,0,0,1-.876.854h-3.563a.762.762,0,0,1-.877-.854V100.57h-.171a3.1,3.1,0,0,1-1.639,1.651,5.8,5.8,0,0,1-2.481.546h-1.719a6.49,6.49,0,0,1-4.895-1.719,6.841,6.841,0,0,1-1.662-4.94V88.584a6.774,6.774,0,0,1,1.662-4.94,6.473,6.473,0,0,1,4.895-1.719h1.719a5.842,5.842,0,0,1,2.481.546,3.137,3.137,0,0,1,1.639,1.651h.171V74.9a.766.766,0,0,1,.877-.854h3.563a.762.762,0,0,1,.876.854Zm-6.42-29.664h-7.763q-.82,0-.82-.854V68.777a1.023,1.023,0,0,1,.159-.637.867.867,0,0,1,.649-.182h6.83c1.332,0,2-.41,2-1.229v-.2q0-.973-1.673-1.878L135.185,62.4a9.125,9.125,0,0,1-3.062-2.288,4.909,4.909,0,0,1-.979-3.142,5.346,5.346,0,0,1,1.514-4.212,6.981,6.981,0,0,1,4.735-1.343h6.83q.82,0,.82.854v2.652a1.024,1.024,0,0,1-.159.637.867.867,0,0,1-.649.182h-5.68c-1.332,0-2,.341-2,1.024v.2c0,.6.581,1.218,1.753,1.844l4.132,2.447a8.728,8.728,0,0,1,2.982,2.345,5.364,5.364,0,0,1,.854,3.164Q146.255,72.255,139.841,72.249Z" transform="translate(0 0.005)" fill="#fff"/>
</svg>
