<svg xmlns="http://www.w3.org/2000/svg" width="115.121" height="91.886" viewBox="0 0 115.121 91.886">
  <g id="Group_31" data-name="Group 31" transform="translate(-902 -4760.5)">
    <g id="Group_30" data-name="Group 30" transform="translate(902 4760.505)">
      <path id="Path_44" data-name="Path 44" d="M100.625,75.89H99.514a1.685,1.685,0,0,0-1.19.337,1.583,1.583,0,0,0-.344,1.161v1.233c0,.186.093.28.294.28h3.6c.194,0,.294-.093.294-.28V77.388a1.594,1.594,0,0,0-.344-1.161A1.718,1.718,0,0,0,100.625,75.89Z" transform="translate(-27.759 -21.502)" fill="#888"/>
      <path id="Path_45" data-name="Path 45" d="M104.619,49.08h-1.312a1.254,1.254,0,0,0-1.5,1.5v4.529a1.254,1.254,0,0,0,1.5,1.5h1.312a1.648,1.648,0,0,0,1.168-.337,1.583,1.583,0,0,0,.344-1.161V50.578a1.594,1.594,0,0,0-.344-1.161A1.626,1.626,0,0,0,104.619,49.08Z" transform="translate(-28.844 -13.906)" fill="#888"/>
      <path id="Path_46" data-name="Path 46" d="M85.619,49.11H84.458a1.594,1.594,0,0,0-1.161.344,1.66,1.66,0,0,0-.337,1.168v4.429A1.648,1.648,0,0,0,83.3,56.22a1.583,1.583,0,0,0,1.161.344h1.161c1.183,0,1.777-.652,1.777-1.957V51.059C87.389,49.762,86.8,49.11,85.619,49.11Z" transform="translate(-23.504 -13.915)" fill="#888"/>
      <path id="Path_47" data-name="Path 47" d="M120.183,75.93h-1.19a1.65,1.65,0,0,0-1.19.344,1.626,1.626,0,0,0-.344,1.168v4.429a1.614,1.614,0,0,0,.344,1.168,1.65,1.65,0,0,0,1.19.344h1.19c1.218,0,1.82-.652,1.82-1.957V77.879C122.011,76.582,121.4,75.93,120.183,75.93Z" transform="translate(-33.278 -21.513)" fill="#888"/>
      <path id="Path_48" data-name="Path 48" d="M39.415,75.89H38.3a1.685,1.685,0,0,0-1.19.337,1.583,1.583,0,0,0-.344,1.161v1.233c0,.186.093.28.294.28h3.6c.194,0,.294-.093.294-.28V77.388a1.594,1.594,0,0,0-.344-1.161A1.718,1.718,0,0,0,39.415,75.89Z" transform="translate(-10.417 -21.502)" fill="#888"/>
      <path id="Path_49" data-name="Path 49" d="M114.268,45.866l-8.894-5.139a1.683,1.683,0,0,0-1.684,0l-6.379,3.884v-20.8a1.689,1.689,0,0,0-.846-1.462L58.152.221a1.683,1.683,0,0,0-1.684,0L0,32.823l.007.021L0,32.851V44.1a1.7,1.7,0,0,0,.839,1.462L9.733,50.69a1.683,1.683,0,0,0,1.684,0l5.877-3.4V68.069a1.689,1.689,0,0,0,.846,1.462L56.46,91.655a1.683,1.683,0,0,0,1.684,0L107.89,62.938h.007l6.378-3.884a1.689,1.689,0,0,0,.846-1.462V47.321A1.7,1.7,0,0,0,114.268,45.866ZM23.056,32.909a.475.475,0,0,1,.538-.538h2.186a.475.475,0,0,1,.538.538v8.228a1.614,1.614,0,0,0,.344,1.168,1.59,1.59,0,0,0,1.147.344h.953c1.183,0,1.777-.652,1.777-1.957V32.909a.475.475,0,0,1,.538-.538H33.24c.38,0,.566.179.566.538v12.04c0,.358-.186.538-.566.538H31.075a.475.475,0,0,1-.538-.538V44.1h-.1a1.921,1.921,0,0,1-1,1.039,3.49,3.49,0,0,1-1.519.344h-.846a3.9,3.9,0,0,1-3-1.082,4.361,4.361,0,0,1-1.018-3.11ZM33.835,59.046a.482.482,0,0,1-.552.538H26.646c-.215,0-.315.093-.315.28v.566a1.57,1.57,0,0,0,.358,1.147,1.7,1.7,0,0,0,1.2.344h5.339c.373,0,.552.186.552.566v1.7a.559.559,0,0,1-.122.4.616.616,0,0,1-.437.115H27.385a4.489,4.489,0,0,1-3.225-1.082,4.086,4.086,0,0,1-1.14-3.11V55.771a4.075,4.075,0,0,1,1.14-3.11,4.489,4.489,0,0,1,3.225-1.082H29.47A4.489,4.489,0,0,1,32.7,52.661a4.086,4.086,0,0,1,1.14,3.11v3.275Zm2.8-14.1V32.909a.475.475,0,0,1,.538-.538H39.36a.475.475,0,0,1,.538.538v.853H40a2.422,2.422,0,0,1,2.523-1.39h.824q4.042,0,4.042,4.193v8.385c0,.358-.186.538-.566.538H44.657a.475.475,0,0,1-.538-.538V36.714A1.272,1.272,0,0,0,42.607,35.2h-.925c-1.183,0-1.777.652-1.777,1.957v7.8a.475.475,0,0,1-.538.538H37.182A.485.485,0,0,1,36.637,44.949ZM48.211,64.163q0,.538-.581.538H45.409a.48.48,0,0,1-.552-.538V55.936a1.581,1.581,0,0,0-.358-1.168,1.7,1.7,0,0,0-1.2-.344h-.953c-1.218,0-1.82.652-1.82,1.957v7.8a.482.482,0,0,1-.552.538H37.726a.48.48,0,0,1-.552-.538V52.137a.482.482,0,0,1,.552-.538H39.97a.48.48,0,0,1,.552.538v.846h.108a2.5,2.5,0,0,1,2.587-1.39h.846q4.15,0,4.15,4.193Zm5.282-19.214a.425.425,0,0,1-.516.538H50.763a.475.475,0,0,1-.538-.538V32.909q0-.538.516-.538h2.215a.475.475,0,0,1,.538.538Zm0-14.8a.456.456,0,0,1-.516.516H50.741a.456.456,0,0,1-.516-.516V27.913a.456.456,0,0,1,.516-.516h2.236c.344,0,.516.165.516.487V30.15ZM64.7,53.9a.584.584,0,0,1-.122.423.513.513,0,0,1-.409.093h-1.82c-1.218,0-1.82.667-1.82,2.007v7.747a.482.482,0,0,1-.552.538H57.729a.48.48,0,0,1-.552-.538V52.13a.482.482,0,0,1,.552-.538h2.243a.48.48,0,0,1,.552.538V53h.108a2,2,0,0,1,1.032-1.054,3.565,3.565,0,0,1,1.562-.358h.953a.473.473,0,0,1,.53.538V53.9Zm-.265-8.414a.475.475,0,0,1-.538-.538V44.1h-.108a1.921,1.921,0,0,1-1,1.039,3.49,3.49,0,0,1-1.519.344H60.209a3.9,3.9,0,0,1-3-1.082,4.361,4.361,0,0,1-1.018-3.11V36.557a4.349,4.349,0,0,1,1.018-3.11,3.939,3.939,0,0,1,3-1.082h1.054a3.49,3.49,0,0,1,1.519.344,1.945,1.945,0,0,1,1,1.039h.1V27.935a.475.475,0,0,1,.538-.538h2.186a.475.475,0,0,1,.538.538V44.942a.475.475,0,0,1-.538.538H64.43ZM77.7,59.046a.482.482,0,0,1-.552.538H70.515c-.215,0-.315.093-.315.28v.566a1.57,1.57,0,0,0,.358,1.147,1.7,1.7,0,0,0,1.2.344H77.1c.373,0,.552.186.552.566v1.7a.559.559,0,0,1-.122.4.616.616,0,0,1-.437.115H71.253a4.489,4.489,0,0,1-3.225-1.082,4.086,4.086,0,0,1-1.14-3.11V55.771a4.075,4.075,0,0,1,1.14-3.11,4.489,4.489,0,0,1,3.225-1.082h2.086a4.489,4.489,0,0,1,3.225,1.082,4.086,4.086,0,0,1,1.14,3.11v3.275Zm2.8-17.752a4.146,4.146,0,0,1-1.118,3.1,4.269,4.269,0,0,1-3.125,1.1H73.976a4.294,4.294,0,0,1-3.139-1.082,4.152,4.152,0,0,1-1.1-3.11V36.564a4.141,4.141,0,0,1,1.1-3.11,4.324,4.324,0,0,1,3.139-1.082h2.286a4.269,4.269,0,0,1,3.125,1.1,4.146,4.146,0,0,1,1.118,3.1ZM92.087,64.163a.482.482,0,0,1-.552.538H89.292a.48.48,0,0,1-.552-.538v-.846h-.108A1.951,1.951,0,0,1,87.6,64.357a3.655,3.655,0,0,1-1.562.344H84.956a4.086,4.086,0,0,1-3.082-1.082,4.307,4.307,0,0,1-1.046-3.11V55.771a4.265,4.265,0,0,1,1.046-3.11,4.075,4.075,0,0,1,3.082-1.082h1.082a3.678,3.678,0,0,1,1.562.344,1.975,1.975,0,0,1,1.032,1.039h.108V47.156a.482.482,0,0,1,.552-.538h2.243a.48.48,0,0,1,.552.538ZM88.045,45.487H83.157q-.516,0-.516-.538V43.3a.644.644,0,0,1,.1-.4.546.546,0,0,1,.409-.115h4.3c.839,0,1.261-.258,1.261-.774v-.129q0-.613-1.054-1.183l-2.544-1.412a5.745,5.745,0,0,1-1.928-1.441,3.091,3.091,0,0,1-.616-1.978,3.366,3.366,0,0,1,.953-2.652,4.4,4.4,0,0,1,2.981-.846h4.3q.516,0,.516.538v1.67a.644.644,0,0,1-.1.4.546.546,0,0,1-.409.115H87.235c-.839,0-1.261.215-1.261.645v.129c0,.38.366.767,1.1,1.161l2.6,1.541a5.5,5.5,0,0,1,1.878,1.476,3.377,3.377,0,0,1,.538,1.992Q92.083,45.49,88.045,45.487Z" transform="translate(0 0)" fill="#888"/>
    </g>
  </g>
</svg>
