<?xml version="1.0" standalone="no"?>
<!DOCTYPE svg PUBLIC "-//W3C//DTD SVG 1.1//EN" "http://www.w3.org/Graphics/SVG/1.1/DTD/svg11.dtd" >
<svg xmlns="http://www.w3.org/2000/svg">
<metadata>Generated by IcoMoon</metadata>
<defs>
<font id="tecbound-" horiz-adv-x="1024">
<font-face units-per-em="1024" ascent="960" descent="-64" />
<missing-glyph horiz-adv-x="1024" />
<glyph unicode="&#x20;" horiz-adv-x="512" d="" />
<glyph unicode="&#xe900;" glyph-name="anotherhardrive" d="M491.448 623.77c-34.657 0-62.756-27.694-62.756-61.809 0-34.14 28.104-61.819 62.756-61.819s62.73 27.679 62.73 61.819c0 34.115-28.073 61.809-62.73 61.809zM824.197 947.2h-665.477v-995.835h665.477c31.043 0 56.448 24.991 56.448 55.603v884.654c-0.031 30.577-25.446 55.578-56.448 55.578zM196.316 898.632c23.741 0 42.921-18.918 42.921-42.271 0-23.337-19.185-42.245-42.921-42.245v84.516zM438.723 18.258c0 0-202.655-1.106-259.021 165.417l113.603 56.069c0 0 43.315-88.53 172.631-114.944l-27.213-106.542zM494.367 271.35l75.684 215.905-191.672-193.864c-106.813 43.715-182.062 147.446-182.062 268.57 0 160.553 132.091 290.739 295.148 290.739 162.959 0 295.096-130.171 295.096-290.739 0-159.652-130.601-289.065-292.193-290.611zM773.96-0.092c-23.711 0-42.906 18.924-42.906 42.266 0 23.357 19.195 42.281 42.906 42.281s42.931-18.924 42.931-42.281c0-23.337-19.22-42.266-42.931-42.266zM773.96 814.111c-23.711 0-42.906 18.908-42.906 42.245 0 23.352 19.195 42.271 42.906 42.271s42.931-18.918 42.931-42.271c0-23.332-19.22-42.245-42.931-42.245z" />
<glyph unicode="&#xe901;" glyph-name="check" d="M288.722 585.457v-155.274l195.103-194.053 395.689 393.661v155.284l-395.689-393.702-195.103 194.084zM989.148 583.613l-95.181-94.679c0.952-11.013 1.72-22.006 1.72-33.254 0-212.25-172.897-384.266-386.243-384.266-213.35 0-386.314 172.012-386.314 384.266 0 212.244 172.959 384.271 386.314 384.271 76.641 0 147.953-22.508 208.026-60.831l79.606 79.212c-81.178 57.487-180.398 91.428-287.626 91.428-274.309 0-496.65-221.199-496.65-494.080s222.341-494.080 496.65-494.080c274.284 0 496.625 221.199 496.625 494.080 0 44.257-5.944 87.101-16.927 127.933z" />
<glyph unicode="&#xe902;" glyph-name="checklist" d="M245.509 626.217h384.087c14.213 0 24.361 12.365 24.361 28.175s-10.143 28.17-24.361 28.17h-384.087c-14.188 0-24.33-12.36-24.33-28.17s10.143-28.175 24.33-28.175zM553.851 528.338h-308.342c-14.188 0-24.33-12.365-24.33-28.18s10.143-28.165 24.33-28.165h308.342c14.198 0 24.361 12.355 24.361 28.165 0 15.821-10.163 28.18-24.361 28.18zM488.96 374.118h-243.451c-14.188 0-24.33-12.36-24.33-28.175 0-15.831 10.143-28.18 24.33-28.18h243.451c14.188 0 24.325 12.349 24.325 28.18 0 15.816-10.138 28.175-24.325 28.175zM456.499 208.031h-210.99c-14.188 0-24.33-12.365-24.33-28.18 0-15.811 10.143-28.17 24.33-28.17h210.99c14.157 0 24.325 12.36 24.325 28.17 0 15.816-10.168 28.18-24.325 28.18zM816.225 390.902v471.076c0 45.619-33.93 80.102-75.725 80.102h-605.88c-41.82 0-75.74-34.483-75.74-80.102v-812.59c0-45.645 33.92-80.118 75.72-80.118h637.829c107.566-0.323 195.011 94.981 195.302 212.977 0.2 101.806-64.589 187.018-151.506 208.655zM134.62 52.316v735.539h605.88v-394.691c-91.853-16.932-162.058-104.146-162.289-209.787-0.113-49.413 15.222-94.817 40.817-131.087l-484.403 0.026zM772.961 22.651c-80.666 0-146.053 71.721-146.053 160.154 0 88.453 65.388 160.164 146.053 160.164 80.645 0 146.038-71.711 146.038-160.164 0-88.433-65.393-160.154-146.038-160.154zM838.467 283.996l-77.353-120.796-59.32 65.009-34.15-36.091 98.959-108.416 109.804 170.394-37.939 29.901z" />
<glyph unicode="&#xe903;" glyph-name="chevron-down" d="M797.867 584.534c-17.067 17.067-42.667 17.067-59.733 0l-226.133-226.133-226.133 226.133c-17.067 17.067-42.667 17.067-59.733 0s-17.067-42.667 0-59.733l256-256c8.533-8.533 21.333-12.8 29.867-12.8s21.333 4.267 29.867 12.8l256 256c17.067 17.067 17.067 42.667 0 59.733z" />
<glyph unicode="&#xe904;" glyph-name="cicle" d="M935.142 225.546c26.117 56.11 40.796 118.164 40.776 183.373 0.036 97.249-32.251 187.663-87.107 261.417-54.779 73.764-132.147 131.149-222.612 163.062l-29.107-75.213c74.307-26.199 138.112-73.492 183.204-134.257 45.138-60.78 71.593-134.753 71.629-215.025-0.036-49.551-10.204-96.671-28.534-139.812l-77.645 47.16 21.212-202.967 201.498 67.692-73.313 44.57zM502.042 36.613c-70.374 0.015-136.079 17.705-193.009 48.717-40.417 22.036-76.232 50.924-105.989 84.828l75.617 40.822-197.53 77.594-32.23-201.62 80.005 43.192c37.903-46.157 84.838-85.212 138.516-114.452 69.151-37.699 149.391-59.269 234.614-59.264 104.499-0.020 201.431 32.502 279.772 87.332l-49.628 64.681c-64.62-45.174-143.933-71.803-230.139-71.828zM112.118 408.919c0.031 102.927 43.566 195.763 114.186 263.25 53.217 50.76 121.446 86.835 197.888 101.622l0.712-86.369 166.927 127.242-168.991 124.759 0.691-84.311c-99.395-15.852-188.503-61.153-256.614-126.244-85.699-81.766-138.813-195.123-138.783-319.964 0-22.303 1.848-44.017 5.064-65.075l83.108 11.474c-2.688 17.746-4.188 35.584-4.188 53.617zM665.144 563.43l-43.489-23.962c-16.604 13.558-35.825 24.182-56.868 31.293v47.908c-19.123 5.007-39.188 7.895-59.955 7.895-20.803 0-40.847-2.898-59.996-7.895v-47.908c-21.028-7.112-40.233-17.736-56.847-31.293l-43.484 23.962c-28.488-26.967-49.377-61.102-59.904-99.251l43.392-23.921c-1.966-10.184-3.139-20.628-3.139-31.34s1.172-21.166 3.139-31.34l-43.392-23.926c10.532-38.139 31.416-72.289 59.904-99.246l43.484 23.972c16.609-13.563 35.814-24.187 56.847-31.304v-47.892c19.154-5.007 39.194-7.905 59.996-7.905 20.767 0 40.832 2.903 59.955 7.905v47.892c21.043 7.122 40.264 17.746 56.868 31.304l43.489-23.972c28.483 26.967 49.388 61.107 59.873 99.246l-43.372 23.926c1.951 10.179 3.139 20.628 3.139 31.34s-1.188 21.176-3.139 31.34l43.372 23.921c-10.486 38.149-31.391 72.284-59.873 99.251zM504.827 328.73c-46.372 0-83.999 35.907-83.999 80.189 0 44.288 37.627 80.184 83.999 80.184s83.973-35.896 83.973-80.184c0-44.283-37.601-80.189-83.973-80.189z" />
<glyph unicode="&#xe905;" glyph-name="cloud" d="M865.746 534.753c-1.044 152.376-145.853 275.174-323.471 274.273-152.858-0.773-283.95-93.752-313.59-222.403-12.6 2.222-25.416 3.323-38.282 3.313-106.557 0-192.968-74.127-192.968-165.55 0-91.428 86.41-165.545 192.968-165.545h160.804v55.178h-160.804c-71.050-0.251-128.865 48.963-129.152 109.911-0.292 60.954 57.057 110.577 128.102 110.812 18.314 0.072 36.424-3.22 53.14-9.656 16.404-5.827 35.22 0.855 42.010 14.935 1.341 2.714 2.125 5.596 2.386 8.53 4.429 121.912 123.203 217.636 265.298 213.832 142.126-3.814 253.706-105.723 249.252-227.625-0.189-9.236-1.075-18.447-2.57-27.602-2.248-15.109 10.204-28.928 27.837-30.853 4.25-0.466 8.571-0.205 12.682 0.788 8.627 1.884 17.485 2.724 26.358 2.483 53.294 0 96.481-37.053 96.481-82.78 0-45.716-43.187-82.765-96.481-82.765h-192.927v-55.178h192.927c88.827 0 160.814 61.757 160.814 137.943s-71.992 137.958-160.814 137.958zM534.835 554.337c-12.549 10.701-32.773 10.701-45.332 0l-160.809-137.953 45.338-38.907 105.825 90.778v-319.79h64.307v319.79l105.795-90.778 45.343 38.907-160.466 137.953z" />
<glyph unicode="&#xe906;" glyph-name="coolarrow" d="M533.166 285.353c6.047-5.949 13.906-8.945 21.765-8.945 7.844 0 15.754 2.995 21.745 8.945l146.13 144.906c12.012 11.93 12.012 31.212 0 43.136l-146.13 144.911c-12.012 11.924-31.493 11.924-43.51 0-11.991-11.93-11.991-31.232 0-43.136l93.604-92.831h-339.738c-17.029 0-30.792-13.665-30.792-30.505s13.763-30.51 30.792-30.51h339.738l-93.604-92.826c-11.991-11.914-11.991-31.242 0-43.146zM125.937 227.4v544.886c0 37.181 30.469 67.395 67.937 67.395h549.468c10.163-15.575 27.756-25.958 47.862-25.958 31.457 0 56.914 25.283 56.914 56.463s-25.462 56.463-56.914 56.463c-20.106 0-37.652-10.363-47.816-25.958h-549.514c-71.368 0-129.464-57.574-129.464-128.41v-544.886c-15.703-10.051-26.173-27.5-26.173-47.421 0-31.181 25.467-56.453 56.909-56.453 31.488 0 56.955 25.277 56.955 56.453 0 19.927-10.46 37.35-26.163 47.427zM938.926 780.14c-31.447 0-56.904-25.283-56.904-56.463 0-19.917 10.46-37.34 26.168-47.391v-544.906c0-37.192-30.5-67.4-68.019-67.4h-549.448c-10.122 15.596-27.715 25.958-47.805 25.958-31.447 0-56.955-25.283-56.955-56.474 0-31.176 25.508-56.453 56.955-56.453 20.091 0 37.683 10.363 47.805 25.938h549.448c71.429 0 129.531 57.615 129.531 128.43v544.901c15.698 10.051 26.158 27.474 26.158 47.391 0 31.191-25.508 56.468-56.934 56.468z" />
<glyph unicode="&#xe907;" glyph-name="hardrive" d="M513.28 505.462c-30.828 0-55.050-24.156-55.050-54.902 0-30.751 24.223-54.902 55.050-54.902s55.055 24.151 55.055 54.902c0 30.74-24.228 54.902-55.055 54.902zM513.28 944.64c-274.089 0-495.365-220.687-495.365-494.080 0-273.388 221.276-494.080 495.365-494.080 274.074 0 495.365 220.692 495.365 494.080 0 273.393-221.292 494.080-495.365 494.080zM289.823 117.883c-44.042 21.944-88.074 65.869-110.075 109.783l187.131 120.786c10.998-21.955 22.021-32.942 44.012-43.93l-121.068-186.639zM513.28 302.336c-82.565 0-148.593 65.879-148.593 148.224 0 82.35 66.028 148.229 148.593 148.229s148.608-65.879 148.608-148.229c0-82.345-66.043-148.224-148.608-148.224zM659.692 552.668c-10.998 21.96-22.031 32.937-44.047 43.914l121.093 186.655c44.042-21.965 88.059-65.874 110.075-109.793l-187.121-120.776z" />
<glyph unicode="&#xe908;" glyph-name="lock" d="M168.463 666.092c-7.501-6.738-7.501-17.669 0-24.428l38.308-34.519c7.552-6.687 19.686-6.625 27.090 0.154 7.373 6.728 7.373 17.526 0 24.264l-38.308 34.524c-7.496 6.728-19.594 6.728-27.090 0.005zM233.861 493.481c-7.465 6.738-19.594 6.738-27.090 0l-38.308-34.519c-7.521-6.687-7.619-17.633-0.184-24.397 7.434-6.784 19.564-6.856 27.090-0.159 0.067 0.056 0.128 0.102 0.184 0.159l38.308 34.519c7.501 6.728 7.501 17.659 0 24.397zM239.483 550.298c0 0.010 0 0.026 0 0.026 0 9.513-8.571 17.249-19.133 17.249-0.031 0-0.031 0-0.031 0h-76.605c-10.634 0-19.174-7.721-19.174-17.249 0-9.539 8.54-17.275 19.174-17.275h76.605c10.593 0.005 19.164 7.741 19.164 17.249zM201.155 360.468v-362.445c0.020-28.585 25.774-51.753 57.498-51.784h574.812c31.693 0.031 57.431 23.199 57.467 51.784v362.445h-689.777zM699.351 274.166v-103.547c0-9.528-8.596-17.27-19.164-17.27h-268.252c-10.604-0.010-19.174 7.726-19.174 17.254v103.562c0 9.528 8.571 17.265 19.174 17.265h268.252c10.568 0 19.164-7.721 19.164-17.249 0-0.015 0-0.015 0-0.015zM852.593-1.976c0-9.544-8.566-17.26-19.133-17.26-10.598 0-19.164 7.716-19.164 17.26v103.547c0 9.528 8.566 17.265 19.164 17.265 10.568 0 19.133-7.736 19.133-17.265v-103.547zM852.593 170.619c0-9.528-8.566-17.27-19.133-17.27-10.598 0-19.164 7.741-19.164 17.27v34.519c0 9.523 8.566 17.244 19.164 17.244 10.568 0 19.133-7.721 19.133-17.244v-34.519zM392.755 636.616c0 76.252 68.649 138.092 153.283 138.092 84.654 0 153.308-61.839 153.308-138.092v-241.644h76.616v241.644c0 114.391-102.943 207.104-229.924 207.104-126.976 0-229.919-92.713-229.919-207.104v-241.644h76.636v241.644zM431.099 187.878h229.924v69.028h-229.924v-69.028zM182.011 947.287h-38.298v-103.562h38.298v103.562zM258.652 912.763h-38.333v-172.58h38.333v172.58z" />
<glyph unicode="&#xe909;" glyph-name="mail" d="M853.333 810.667h-682.667c-72.533 0-128-55.467-128-128v-512c0-72.533 55.467-128 128-128h682.667c72.533 0 128 55.467 128 128v512c0 72.533-55.467 128-128 128zM170.667 725.334h682.667c17.067 0 29.867-8.533 38.4-25.6l-379.733-264.533-379.733 264.533c8.533 17.067 21.333 25.6 38.4 25.6zM853.333 128h-682.667c-25.6 0-42.667 17.067-42.667 42.667v430.933l358.4-251.733c8.533-4.267 17.067-8.533 25.6-8.533s17.067 4.267 25.6 8.533l358.4 251.733v-430.933c0-25.6-17.067-42.667-42.667-42.667z" />
<glyph unicode="&#xe90a;" glyph-name="map-pin" d="M512 938.667c-234.667 0-426.667-192-426.667-426.667 0-315.733 388.267-580.267 401.067-588.8 8.533-4.267 17.067-8.533 25.6-8.533s17.067 4.267 25.6 8.533c12.8 8.533 401.067 273.067 401.067 588.8 0 234.667-192 426.667-426.667 426.667zM512 8.534c-81.067 59.733-341.333 273.067-341.333 503.467 0 187.733 153.6 341.333 341.333 341.333s341.333-153.6 341.333-341.333c0-230.4-260.267-443.733-341.333-503.467zM512 682.667c-93.867 0-170.667-76.8-170.667-170.667s76.8-170.667 170.667-170.667c93.867 0 170.667 76.8 170.667 170.667s-76.8 170.667-170.667 170.667zM512 426.667c-46.933 0-85.333 38.4-85.333 85.333s38.4 85.333 85.333 85.333c46.933 0 85.333-38.4 85.333-85.333s-38.4-85.333-85.333-85.333z" />
<glyph unicode="&#xe90b;" glyph-name="pencil" d="M992.282 775.951l-150.702 150.871c-30.653 30.71-81.336 30.71-113.326 0l-630.743-631.526c-13.338-13.343-21.33-29.373-22.666-48.067l-73.339-263.025c-3.988-13.353 0-29.368 10.665-38.723 8.013-8.003 17.341-12.012 28.012-12.012 4.009 0 6.656 0 10.665 1.331l262.692 72.1c17.341 2.668 34.683 9.344 46.664 22.702l632.079 632.858c31.995 32.041 31.995 82.78 0 113.49zM153.533 237.88v0l458.696 459.295 46.679-46.725-458.706-459.3-46.669 46.73zM129.531 148.429l85.345-85.443-117.361-32.056 32.015 117.499zM304.205 87.009v0l-46.669 46.73 458.716 459.29 46.669-46.725-458.716-459.295zM818.913 602.378l-150.666 150.871 117.34 117.494 150.697-150.871-117.371-117.494z" />
<glyph unicode="&#xe90c;" glyph-name="menu" d="M896 469.334h-768c-25.6 0-42.667-17.067-42.667-42.667s17.067-42.667 42.667-42.667h768c25.6 0 42.667 17.067 42.667 42.667s-17.067 42.667-42.667 42.667zM128 640h768c25.6 0 42.667 17.067 42.667 42.667s-17.067 42.667-42.667 42.667h-768c-25.6 0-42.667-17.067-42.667-42.667s17.067-42.667 42.667-42.667zM896 213.334h-768c-25.6 0-42.667-17.067-42.667-42.667s17.067-42.667 42.667-42.667h768c25.6 0 42.667 17.067 42.667 42.667s-17.067 42.667-42.667 42.667z" />
<glyph unicode="&#xe90d;" glyph-name="poitarrow" d="M591.314 179.348c11.356-9.472 26.348-14.208 41.226-14.208 15.119 0 29.993 4.741 41.528 14.208l278.072 230.313c22.938 18.985 22.938 49.608 0 68.547l-278.072 230.374c-22.943 18.939-60.052 18.939-82.755 0-22.943-18.99-22.943-49.664 0-68.598l178.115-147.564h-646.723c-32.261 0-58.552-21.699-58.552-48.435 0-26.772 26.291-48.532 58.552-48.532h646.723l-178.115-147.553c-22.943-18.939-22.943-49.618 0-68.552z" />
<glyph unicode="&#xe90e;" glyph-name="screen" d="M889.626 878.080h-745.129c-75.464 0-136.868-56.269-136.868-125.43v-422.124c0-69.161 61.404-125.42 136.868-125.42h218.342v-70.932h-47.688c-23.475 0-42.491-17.428-42.491-38.932 0-21.494 19.016-38.922 42.491-38.922h416.338c23.45 0 42.465 17.423 42.465 38.922s-19.016 38.932-42.465 38.932h-47.698v70.932h205.834c75.469 0 136.873 56.259 136.873 125.42v422.124c0 69.161-61.404 125.43-136.873 125.43zM598.82 134.17h-151.020v70.938h151.020v-70.938zM941.553 330.527c0-26.235-23.296-47.57-51.932-47.57h-745.124c-28.616 0-51.907 21.335-51.907 47.57v24.627h848.963v-24.627zM92.59 432.998v319.652c0 26.24 23.286 47.575 51.907 47.575h745.129c28.636 0 51.932-21.34 51.932-47.575v-319.652h-848.968z" />
<glyph unicode="&#xe90f;" glyph-name="splat" d="M502.456 546.396l-179.108 196.997c7.639 11.633 12.114 25.518 12.114 40.479 0 40.806-33.065 73.902-73.861 73.902-40.827 0-73.912-33.096-73.912-73.902s33.075-73.871 73.912-73.871c12.442 0 24.136 3.113 34.427 8.54l179.108-196.997c7.803 9.595 17.019 17.971 27.32 24.852zM448.051 453.939l-252.918-17.469c-9.779 29.338-37.407 50.534-70.031 50.534-40.827 0-73.902-33.096-73.902-73.912 0-40.786 33.075-73.861 73.902-73.861 36.188 0 66.253 26.030 72.581 60.385l252.877 17.459c-1.925 8.663-3.011 17.613-3.011 26.829 0 3.389 0.236 6.717 0.502 10.035zM442.941 208.671c-5.857 1.27-11.919 1.956-18.156 1.956-47.616 0-86.221-38.605-86.221-86.211 0-47.596 38.605-86.19 86.221-86.19 47.585 0 86.18 38.595 86.18 86.19 0 28.17-13.568 53.115-34.458 68.844l60.426 132.291c-12.063 3.43-23.357 8.612-33.597 15.34l-60.396-132.219zM806.349 589.507c17.674-16.855 41.574-27.29 67.942-27.29 54.405 0 98.509 44.104 98.509 98.509s-44.104 98.529-98.509 98.529c-54.415 0-98.529-44.124-98.529-98.529 0-14.715 3.308-28.621 9.114-41.155l-125.911-89.928c8.602-8.837 15.821-18.985 21.463-30.065l125.921 89.928zM874.291 272.21c-19.62 0-37.652-6.625-52.142-17.684l-146.811 124.723c-6.554-10.557-14.592-20.060-23.91-28.18l146.739-124.652c-6.42-12.063-10.086-25.815-10.086-40.428 0-47.596 38.595-86.19 86.211-86.19 47.596 0 86.19 38.595 86.19 86.19 0 47.606-38.595 86.221-86.19 86.221zM628.685 661.524c30.28 3.871 53.76 29.45 53.76 60.774 0 34.007-27.556 61.583-61.563 61.583s-61.583-27.576-61.583-61.583c0-23.634 13.476-43.919 33.034-54.231l-18.248-101.181c12.698-0.358 24.904-2.611 36.362-6.523l18.237 101.161zM675.338 379.249c11.653 18.811 18.493 40.909 18.493 64.655 0 20.060-4.905 38.943-13.414 55.675-5.642 11.090-12.861 21.228-21.463 30.065-13.384 13.783-29.952 24.361-48.517 30.71-11.459 3.912-23.665 6.164-36.362 6.523-1.137 0.020-2.263 0.174-3.42 0.174-25.231 0-48.671-7.629-68.198-20.654-10.312-6.881-19.517-15.258-27.32-24.852-15.247-18.749-25.027-42.076-27.095-67.604-0.256-3.318-0.502-6.646-0.502-10.025 0-9.216 1.085-18.166 3.011-26.829 7.066-31.775 26.378-58.9 52.767-76.186 10.24-6.728 21.545-11.909 33.597-15.34 10.742-3.052 22.016-4.803 33.731-4.803 30.935 0 59.116 11.489 80.773 30.321 9.329 8.11 17.377 17.613 23.921 28.17z" />
<glyph unicode="&#xe910;" glyph-name="phone" d="M870.4 345.6c-38.4 4.267-76.8 12.8-110.933 25.6-46.933 17.067-98.133 4.267-136.533-29.867l-29.867-29.867c-76.8 51.2-145.067 115.2-196.267 196.267l29.867 29.867c34.133 34.133 46.933 89.6 29.867 136.533-12.8 34.133-21.333 72.533-25.6 110.933-8.533 64-64 110.933-128 110.933 0 0 0 0 0 0h-128c-4.267 0-8.533 0-12.8 0-34.133-4.267-64-21.333-85.333-46.933s-29.867-59.733-29.867-93.867c12.8-136.533 64-273.067 136.533-388.267 68.267-106.667 162.133-200.533 268.8-268.8 115.2-76.8 251.733-123.733 388.267-136.533 4.267 0 8.533 0 12.8 0 0 0 0 0 0 0 34.133 0 68.267 12.8 89.6 38.4s38.4 55.467 38.4 89.6v128c0 64-46.933 119.467-110.933 128zM896 217.6v-128c0-12.8-4.267-21.333-12.8-29.867s-17.067-12.8-34.133-12.8c-123.733 12.8-243.2 55.467-349.867 123.733-98.133 59.733-179.2 145.067-243.2 243.2-68.267 106.667-110.933 226.133-123.733 349.867 0 12.8 4.267 21.333 8.533 29.867 8.533 8.533 21.333 17.067 34.133 17.067h128c0 0 0 0 0 0 21.333 0 38.4-17.067 42.667-38.4 4.267-42.667 17.067-89.6 34.133-128 4.267-17.067 0-34.133-8.533-46.933l-55.467-51.2c-12.8-12.8-17.067-34.133-8.533-51.2 64-115.2 157.867-209.067 273.067-273.067 17.067-8.533 38.4-8.533 51.2 8.533l55.467 55.467c12.8 12.8 29.867 17.067 46.933 8.533 42.667-17.067 85.333-25.6 128-34.133 17.067-4.267 34.133-21.333 34.133-42.667 0 0 0 0 0 0z" />
<glyph unicode="&#xe911;" glyph-name="cross" d="M571.733 426.667l226.133 226.133c17.067 17.067 17.067 42.667 0 59.733s-42.667 17.067-59.733 0l-226.133-226.133-226.133 226.133c-17.067 17.067-42.667 17.067-59.733 0s-17.067-42.667 0-59.733l226.133-226.133-226.133-226.133c-17.067-17.067-17.067-42.667 0-59.733 8.533-8.533 17.067-12.8 29.867-12.8s21.333 4.267 29.867 12.8l226.133 226.133 226.133-226.133c8.533-8.533 21.333-12.8 29.867-12.8s21.333 4.267 29.867 12.8c17.067 17.067 17.067 42.667 0 59.733l-226.133 226.133z" />
<glyph unicode="&#xe912;" glyph-name="chevron-left" d="M443.733 426.667l226.133 226.133c17.067 17.067 17.067 42.667 0 59.733s-42.667 17.067-59.733 0l-256-256c-17.067-17.067-17.067-42.667 0-59.733l256-256c8.533-8.533 21.333-12.8 29.867-12.8s21.333 4.267 29.867 12.8c17.067 17.067 17.067 42.667 0 59.733l-226.133 226.133z" />
<glyph unicode="&#xe913;" glyph-name="chevron-right" d="M669.867 456.534l-256 256c-17.067 17.067-42.667 17.067-59.733 0s-17.067-42.667 0-59.733l226.133-226.133-226.133-226.133c-17.067-17.067-17.067-42.667 0-59.733 8.533-8.533 17.067-12.8 29.867-12.8s21.333 4.267 29.867 12.8l256 256c17.067 17.067 17.067 42.667 0 59.733z" />
<glyph unicode="&#xe9d9;" glyph-name="star-full" d="M1024 562.95l-353.78 51.408-158.22 320.582-158.216-320.582-353.784-51.408 256-249.538-60.432-352.352 316.432 166.358 316.432-166.358-60.434 352.352 256.002 249.538z" />
<glyph unicode="&#xea90;" glyph-name="facebook" d="M608 768h160v192h-160c-123.514 0-224-100.486-224-224v-96h-128v-192h128v-512h192v512h160l32 192h-192v96c0 17.346 14.654 32 32 32z" />
<glyph unicode="&#xea92;" glyph-name="instagram" d="M512 867.8c136.8 0 153-0.6 206.8-3 50-2.2 77-10.6 95-17.6 23.8-9.2 41-20.4 58.8-38.2 18-18 29-35 38.4-58.8 7-18 15.4-45.2 17.6-95 2.4-54 3-70.2 3-206.8s-0.6-153-3-206.8c-2.2-50-10.6-77-17.6-95-9.2-23.8-20.4-41-38.2-58.8-18-18-35-29-58.8-38.4-18-7-45.2-15.4-95-17.6-54-2.4-70.2-3-206.8-3s-153 0.6-206.8 3c-50 2.2-77 10.6-95 17.6-23.8 9.2-41 20.4-58.8 38.2-18 18-29 35-38.4 58.8-7 18-15.4 45.2-17.6 95-2.4 54-3 70.2-3 206.8s0.6 153 3 206.8c2.2 50 10.6 77 17.6 95 9.2 23.8 20.4 41 38.2 58.8 18 18 35 29 58.8 38.4 18 7 45.2 15.4 95 17.6 53.8 2.4 70 3 206.8 3zM512 960c-139 0-156.4-0.6-211-3-54.4-2.4-91.8-11.2-124.2-23.8-33.8-13.2-62.4-30.6-90.8-59.2-28.6-28.4-46-57-59.2-90.6-12.6-32.6-21.4-69.8-23.8-124.2-2.4-54.8-3-72.2-3-211.2s0.6-156.4 3-211c2.4-54.4 11.2-91.8 23.8-124.2 13.2-33.8 30.6-62.4 59.2-90.8 28.4-28.4 57-46 90.6-59 32.6-12.6 69.8-21.4 124.2-23.8 54.6-2.4 72-3 211-3s156.4 0.6 211 3c54.4 2.4 91.8 11.2 124.2 23.8 33.6 13 62.2 30.6 90.6 59s46 57 59 90.6c12.6 32.6 21.4 69.8 23.8 124.2 2.4 54.6 3 72 3 211s-0.6 156.4-3 211c-2.4 54.4-11.2 91.8-23.8 124.2-12.6 34-30 62.6-58.6 91-28.4 28.4-57 46-90.6 59-32.6 12.6-69.8 21.4-124.2 23.8-54.8 2.6-72.2 3.2-211.2 3.2v0zM512 711c-145.2 0-263-117.8-263-263s117.8-263 263-263 263 117.8 263 263c0 145.2-117.8 263-263 263zM512 277.4c-94.2 0-170.6 76.4-170.6 170.6s76.4 170.6 170.6 170.6c94.2 0 170.6-76.4 170.6-170.6s-76.4-170.6-170.6-170.6zM846.8 721.4c0-33.91-27.49-61.4-61.4-61.4s-61.4 27.49-61.4 61.4c0 33.91 27.49 61.4 61.4 61.4s61.4-27.49 61.4-61.4z" />
<glyph unicode="&#xea96;" glyph-name="twitter" d="M1024 733.6c-37.6-16.8-78.2-28-120.6-33 43.4 26 76.6 67.2 92.4 116.2-40.6-24-85.6-41.6-133.4-51-38.4 40.8-93 66.2-153.4 66.2-116 0-210-94-210-210 0-16.4 1.8-32.4 5.4-47.8-174.6 8.8-329.4 92.4-433 219.6-18-31-28.4-67.2-28.4-105.6 0-72.8 37-137.2 93.4-174.8-34.4 1-66.8 10.6-95.2 26.2 0-0.8 0-1.8 0-2.6 0-101.8 72.4-186.8 168.6-206-17.6-4.8-36.2-7.4-55.4-7.4-13.6 0-26.6 1.4-39.6 3.8 26.8-83.4 104.4-144.2 196.2-146-72-56.4-162.4-90-261-90-17 0-33.6 1-50.2 3 93.2-59.8 203.6-94.4 322.2-94.4 386.4 0 597.8 320.2 597.8 597.8 0 9.2-0.2 18.2-0.6 27.2 41 29.4 76.6 66.4 104.8 108.6z" />
<glyph unicode="&#xeaca;" glyph-name="linkedin2" d="M384 576h177.106v-90.782h2.532c24.64 44.194 84.958 90.782 174.842 90.782 186.946 0 221.52-116.376 221.52-267.734v-308.266h-184.61v273.278c0 65.184-1.334 149.026-96.028 149.026-96.148 0-110.82-70.986-110.82-144.292v-278.012h-184.542v576zM64 576h192v-576h-192v576zM256 736c0-53.019-42.981-96-96-96s-96 42.981-96 96c0 53.019 42.981 96 96 96s96-42.981 96-96z" />
</font>
</defs>
</svg>
