<svg xmlns="http://www.w3.org/2000/svg" xmlns:xlink="http://www.w3.org/1999/xlink" version="1.1" x="0px" y="0px" viewBox="0 0 100 100" enable-background="new 0 0 100 100" xml:space="preserve"><g><path d="M49.068,40.391L31.577,21.153c0.746-1.136,1.183-2.492,1.183-3.953c0-3.985-3.229-7.217-7.213-7.217   c-3.987,0-7.218,3.232-7.218,7.217s3.23,7.214,7.218,7.214c1.215,0,2.357-0.304,3.362-0.834L46.4,42.818   C47.162,41.881,48.062,41.063,49.068,40.391z"></path><path d="M43.755,49.42l-24.699,1.706c-0.955-2.865-3.653-4.935-6.839-4.935C8.23,46.191,5,49.423,5,53.409   c0,3.983,3.23,7.213,7.217,7.213c3.534,0,6.47-2.542,7.088-5.897L44,53.02c-0.188-0.846-0.294-1.72-0.294-2.62   C43.706,50.069,43.729,49.744,43.755,49.42z"></path><path d="M43.256,73.372c-0.572-0.124-1.164-0.191-1.773-0.191c-4.65,0-8.42,3.77-8.42,8.419c0,4.648,3.77,8.417,8.42,8.417   c4.647,0,8.416-3.769,8.416-8.417c0-2.751-1.325-5.187-3.365-6.723l5.901-12.919c-1.178-0.335-2.281-0.841-3.281-1.498   L43.256,73.372z"></path><path d="M78.745,36.181c1.726,1.646,4.06,2.665,6.635,2.665c5.313,0,9.62-4.307,9.62-9.62s-4.307-9.622-9.62-9.622   c-5.314,0-9.622,4.309-9.622,9.622c0,1.437,0.323,2.795,0.89,4.019l-12.296,8.782c0.84,0.863,1.545,1.854,2.096,2.936   L78.745,36.181z"></path><path d="M85.38,67.167c-1.916,0-3.677,0.647-5.092,1.727l-14.337-12.18c-0.64,1.031-1.425,1.959-2.335,2.752l14.33,12.173   c-0.627,1.178-0.985,2.521-0.985,3.948c0,4.648,3.769,8.417,8.419,8.417c4.648,0,8.417-3.769,8.417-8.417   C93.797,70.938,90.028,67.167,85.38,67.167z"></path><path d="M61.395,29.148c2.957-0.378,5.25-2.876,5.25-5.935c0-3.321-2.691-6.014-6.012-6.014c-3.321,0-6.014,2.693-6.014,6.014   c0,2.308,1.316,4.289,3.226,5.296l-1.782,9.881c1.24,0.035,2.432,0.255,3.551,0.637L61.395,29.148z"></path><path d="M65.951,56.714c1.138-1.837,1.806-3.995,1.806-6.314c0-1.959-0.479-3.803-1.31-5.437c-0.551-1.083-1.256-2.073-2.096-2.936   c-1.307-1.346-2.925-2.379-4.738-2.999c-1.119-0.382-2.311-0.602-3.551-0.637c-0.111-0.002-0.221-0.017-0.334-0.017   c-2.464,0-4.753,0.745-6.66,2.017c-1.007,0.672-1.906,1.49-2.668,2.427c-1.489,1.831-2.444,4.109-2.646,6.602   c-0.025,0.324-0.049,0.649-0.049,0.979c0,0.9,0.106,1.774,0.294,2.62c0.69,3.103,2.576,5.752,5.153,7.44   c1,0.657,2.104,1.163,3.281,1.498c1.049,0.298,2.15,0.469,3.294,0.469c3.021,0,5.773-1.122,7.888-2.961   C64.526,58.673,65.312,57.745,65.951,56.714z"></path></g></svg>